solid OpenSCAD_Model
  facet normal -1 0 0
    outer loop
      vertex -1 -1 1
      vertex -1 44 61
      vertex -1 44 1
    endloop
  endfacet
  facet normal -1 -0 0
    outer loop
      vertex -1 44 61
      vertex -1 -1 1
      vertex -1 -1 61
    endloop
  endfacet
  facet normal -0 0 1
    outer loop
      vertex -1 44 61
      vertex 49 -1 61
      vertex 49 44 61
    endloop
  endfacet
  facet normal 0 0 1
    outer loop
      vertex 49 -1 61
      vertex -1 44 61
      vertex -1 -1 61
    endloop
  endfacet
  facet normal 1 -0 0
    outer loop
      vertex 49 -1 61
      vertex 49 44 1
      vertex 49 44 61
    endloop
  endfacet
  facet normal 1 0 0
    outer loop
      vertex 49 44 1
      vertex 49 -1 61
      vertex 49 -1 1
    endloop
  endfacet
  facet normal 0 1 -0
    outer loop
      vertex 49 44 1
      vertex -1 44 61
      vertex 49 44 61
    endloop
  endfacet
  facet normal 0 1 0
    outer loop
      vertex -1 44 61
      vertex 49 44 1
      vertex -1 44 1
    endloop
  endfacet
  facet normal 0 0 -1
    outer loop
      vertex 49 -1 1
      vertex 47.9407 0 1
      vertex 49 44 1
    endloop
  endfacet
  facet normal 0 0 -1
    outer loop
      vertex 49 -1 1
      vertex 0.059322 0 1
      vertex 47.9407 0 1
    endloop
  endfacet
  facet normal -0 0 -1
    outer loop
      vertex 0.059322 0 1
      vertex -1 -1 1
      vertex 0.059322 43 1
    endloop
  endfacet
  facet normal 0 0 -1
    outer loop
      vertex -1 -1 1
      vertex 0.059322 0 1
      vertex 49 -1 1
    endloop
  endfacet
  facet normal 0 0 -1
    outer loop
      vertex 47.9407 43 1
      vertex 49 44 1
      vertex 47.9407 0 1
    endloop
  endfacet
  facet normal 0 0 -1
    outer loop
      vertex 0.059322 43 1
      vertex 49 44 1
      vertex 47.9407 43 1
    endloop
  endfacet
  facet normal 0 0 -1
    outer loop
      vertex 0.059322 43 1
      vertex -1 44 1
      vertex 49 44 1
    endloop
  endfacet
  facet normal 0 0 -1
    outer loop
      vertex -1 44 1
      vertex 0.059322 43 1
      vertex -1 -1 1
    endloop
  endfacet
  facet normal 0 -1 0
    outer loop
      vertex -1 -1 1
      vertex 49 -1 61
      vertex -1 -1 61
    endloop
  endfacet
  facet normal 0 -1 -0
    outer loop
      vertex 49 -1 61
      vertex -1 -1 1
      vertex 49 -1 1
    endloop
  endfacet
  facet normal 0.998245 0 -0.0592179
    outer loop
      vertex 3.5 0 59
      vertex 0.059322 43 1
      vertex 3.5 43 59
    endloop
  endfacet
  facet normal 0.998245 0 -0.0592179
    outer loop
      vertex 0.059322 43 1
      vertex 3.5 0 59
      vertex 0.059322 0 1
    endloop
  endfacet
  facet normal -0.998245 0 -0.0592183
    outer loop
      vertex 47.9407 0 1
      vertex 44.5 43 59
      vertex 47.9407 43 1
    endloop
  endfacet
  facet normal -0.998245 -0 -0.0592183
    outer loop
      vertex 44.5 43 59
      vertex 47.9407 0 1
      vertex 44.5 0 59
    endloop
  endfacet
  facet normal 0 -1 0
    outer loop
      vertex 0.059322 43 1
      vertex 44.5 43 59
      vertex 3.5 43 59
    endloop
  endfacet
  facet normal 0 -1 -0
    outer loop
      vertex 44.5 43 59
      vertex 0.059322 43 1
      vertex 47.9407 43 1
    endloop
  endfacet
  facet normal 0 1 0
    outer loop
      vertex 47.9407 0 1
      vertex 3.5 0 59
      vertex 44.5 0 59
    endloop
  endfacet
  facet normal 0 1 0
    outer loop
      vertex 3.5 0 59
      vertex 47.9407 0 1
      vertex 0.059322 0 1
    endloop
  endfacet
  facet normal 0 0 -1
    outer loop
      vertex 3.5 0 59
      vertex 44.5 43 59
      vertex 44.5 0 59
    endloop
  endfacet
  facet normal -0 0 -1
    outer loop
      vertex 44.5 43 59
      vertex 3.5 0 59
      vertex 3.5 43 59
    endloop
  endfacet
endsolid OpenSCAD_Model
