solid OpenSCAD_Model
  facet normal 0.998369 0.0570889 0
    outer loop
      vertex 10 0 2
      vertex 9.93482 1.13991 0
      vertex 9.93482 1.13991 2
    endloop
  endfacet
  facet normal 0.998369 0.0570889 0
    outer loop
      vertex 9.93482 1.13991 0
      vertex 10 0 2
      vertex 10 0 0
    endloop
  endfacet
  facet normal -1 0 0
    outer loop
      vertex -9.98369 -0.570888 0
      vertex -9.98369 0.570888 2
      vertex -9.98369 0.570888 0
    endloop
  endfacet
  facet normal -1 -0 0
    outer loop
      vertex -9.98369 0.570888 2
      vertex -9.98369 -0.570888 0
      vertex -9.98369 -0.570888 2
    endloop
  endfacet
  facet normal -0.0855743 0.996332 0
    outer loop
      vertex -0.28556 9.99592 0
      vertex -1.42315 9.89821 2
      vertex -0.28556 9.99592 2
    endloop
  endfacet
  facet normal -0.0855743 0.996332 0
    outer loop
      vertex -1.42315 9.89821 2
      vertex -0.28556 9.99592 0
      vertex -1.42315 9.89821 0
    endloop
  endfacet
  facet normal 0.0285557 -0.999592 0
    outer loop
      vertex -0.28556 -9.99592 0
      vertex 0.85575 -9.96332 2
      vertex -0.28556 -9.99592 2
    endloop
  endfacet
  facet normal 0.0285557 -0.999592 0
    outer loop
      vertex 0.85575 -9.96332 2
      vertex -0.28556 -9.99592 0
      vertex 0.85575 -9.96332 0
    endloop
  endfacet
  facet normal -0.696938 -0.717132 0
    outer loop
      vertex -7.36741 -6.76175 0
      vertex -6.54861 -7.5575 2
      vertex -7.36741 -6.76175 2
    endloop
  endfacet
  facet normal -0.696938 -0.717132 -0
    outer loop
      vertex -6.54861 -7.5575 2
      vertex -7.36741 -6.76175 0
      vertex -6.54861 -7.5575 0
    endloop
  endfacet
  facet normal 0.654861 0.75575 -0
    outer loop
      vertex 6.96938 7.17132 0
      vertex 6.10648 7.91902 2
      vertex 6.96938 7.17132 2
    endloop
  endfacet
  facet normal 0.654861 0.75575 0
    outer loop
      vertex 6.10648 7.91902 2
      vertex 6.96938 7.17132 0
      vertex 6.10648 7.91902 0
    endloop
  endfacet
  facet normal -0.774141 0.633013 0
    outer loop
      vertex -8.09017 5.87785 0
      vertex -7.36741 6.76175 2
      vertex -7.36741 6.76175 0
    endloop
  endfacet
  facet normal -0.774141 0.633013 0
    outer loop
      vertex -7.36741 6.76175 2
      vertex -8.09017 5.87785 0
      vertex -8.09017 5.87785 2
    endloop
  endfacet
  facet normal -0.516397 0.856349 0
    outer loop
      vertex -4.66667 8.84433 0
      vertex -5.64443 8.25472 2
      vertex -4.66667 8.84433 2
    endloop
  endfacet
  facet normal -0.516397 0.856349 0
    outer loop
      vertex -5.64443 8.25472 2
      vertex -4.66667 8.84433 0
      vertex -5.64443 8.25472 0
    endloop
  endfacet
  facet normal -0.897399 -0.441221 0
    outer loop
      vertex -8.70746 -4.91733 0
      vertex -9.21124 -3.8927 2
      vertex -9.21124 -3.8927 0
    endloop
  endfacet
  facet normal -0.897399 -0.441221 0
    outer loop
      vertex -9.21124 -3.8927 2
      vertex -8.70746 -4.91733 0
      vertex -8.70746 -4.91733 2
    endloop
  endfacet
  facet normal 0.921124 0.38927 0
    outer loop
      vertex 9.41844 3.36049 2
      vertex 8.97398 4.41221 0
      vertex 8.97398 4.41221 2
    endloop
  endfacet
  facet normal 0.921124 0.38927 0
    outer loop
      vertex 8.97398 4.41221 0
      vertex 9.41844 3.36049 2
      vertex 9.41844 3.36049 0
    endloop
  endfacet
  facet normal 0.985354 0.170522 0
    outer loop
      vertex 9.93482 1.13991 2
      vertex 9.74012 2.26497 0
      vertex 9.74012 2.26497 2
    endloop
  endfacet
  facet normal 0.985354 0.170522 0
    outer loop
      vertex 9.74012 2.26497 0
      vertex 9.93482 1.13991 2
      vertex 9.93482 1.13991 0
    endloop
  endfacet
  facet normal 0.362808 0.931864 -0
    outer loop
      vertex 4.15415 9.09632 0
      vertex 3.09017 9.51056 2
      vertex 4.15415 9.09632 2
    endloop
  endfacet
  facet normal 0.362808 0.931864 0
    outer loop
      vertex 3.09017 9.51056 2
      vertex 4.15415 9.09632 0
      vertex 3.09017 9.51056 0
    endloop
  endfacet
  facet normal 0.564443 0.825472 -0
    outer loop
      vertex 6.10648 7.91902 0
      vertex 5.16397 8.56349 2
      vertex 6.10648 7.91902 2
    endloop
  endfacet
  facet normal 0.564443 0.825472 0
    outer loop
      vertex 5.16397 8.56349 2
      vertex 6.10648 7.91902 0
      vertex 5.16397 8.56349 0
    endloop
  endfacet
  facet normal -0.941844 0.33605 0
    outer loop
      vertex -9.59493 2.81732 0
      vertex -9.21124 3.8927 2
      vertex -9.21124 3.8927 0
    endloop
  endfacet
  facet normal -0.941844 0.33605 0
    outer loop
      vertex -9.21124 3.8927 2
      vertex -9.59493 2.81732 0
      vertex -9.59493 2.81732 2
    endloop
  endfacet
  facet normal -0.841254 0.54064 0
    outer loop
      vertex -8.70746 4.91733 0
      vertex -8.09017 5.87785 2
      vertex -8.09017 5.87785 0
    endloop
  endfacet
  facet normal -0.841254 0.54064 0
    outer loop
      vertex -8.09017 5.87785 2
      vertex -8.70746 4.91733 0
      vertex -8.70746 4.91733 2
    endloop
  endfacet
  facet normal 0 0 1
    outer loop
      vertex 2.5 0 2
      vertex 10 0 2
      vertex 9.93482 1.13991 2
    endloop
  endfacet
  facet normal 0 0 1
    outer loop
      vertex 2.4837 0.284978 2
      vertex 9.93482 1.13991 2
      vertex 9.74012 2.26497 2
    endloop
  endfacet
  facet normal 0 0 1
    outer loop
      vertex 10 0 2
      vertex 2.5 0 2
      vertex 9.93482 -1.13991 2
    endloop
  endfacet
  facet normal 0 0 1
    outer loop
      vertex 2.43503 0.566241 2
      vertex 9.74012 2.26497 2
      vertex 9.41844 3.36049 2
    endloop
  endfacet
  facet normal -0 0 1
    outer loop
      vertex 2.4837 -0.284978 2
      vertex 9.93482 -1.13991 2
      vertex 2.5 0 2
    endloop
  endfacet
  facet normal 0 0 1
    outer loop
      vertex 2.35461 0.840123 2
      vertex 9.41844 3.36049 2
      vertex 8.97398 4.41221 2
    endloop
  endfacet
  facet normal 0 0 1
    outer loop
      vertex 9.93482 -1.13991 2
      vertex 2.4837 -0.284978 2
      vertex 9.74012 -2.26497 2
    endloop
  endfacet
  facet normal 0 0 1
    outer loop
      vertex 2.2435 1.10305 2
      vertex 8.97398 4.41221 2
      vertex 8.41253 5.40641 2
    endloop
  endfacet
  facet normal -0 0 1
    outer loop
      vertex 2.43503 -0.566241 2
      vertex 9.74012 -2.26497 2
      vertex 2.4837 -0.284978 2
    endloop
  endfacet
  facet normal 0 0 1
    outer loop
      vertex 2.10313 1.3516 2
      vertex 8.41253 5.40641 2
      vertex 7.74142 6.33012 2
    endloop
  endfacet
  facet normal 0 0 1
    outer loop
      vertex 9.74012 -2.26497 2
      vertex 2.43503 -0.566241 2
      vertex 9.41844 -3.36049 2
    endloop
  endfacet
  facet normal 0 0 1
    outer loop
      vertex 1.93535 1.58253 2
      vertex 7.74142 6.33012 2
      vertex 6.96938 7.17132 2
    endloop
  endfacet
  facet normal -0 0 1
    outer loop
      vertex 2.35461 -0.840123 2
      vertex 9.41844 -3.36049 2
      vertex 2.43503 -0.566241 2
    endloop
  endfacet
  facet normal 0 0 1
    outer loop
      vertex 1.74234 1.79283 2
      vertex 6.96938 7.17132 2
      vertex 6.10648 7.91902 2
    endloop
  endfacet
  facet normal 0 0 1
    outer loop
      vertex 9.41844 -3.36049 2
      vertex 2.35461 -0.840123 2
      vertex 8.97398 -4.41221 2
    endloop
  endfacet
  facet normal 0 0 1
    outer loop
      vertex 1.52662 1.97976 2
      vertex 6.10648 7.91902 2
      vertex 5.16397 8.56349 2
    endloop
  endfacet
  facet normal -0 0 1
    outer loop
      vertex 2.2435 -1.10305 2
      vertex 8.97398 -4.41221 2
      vertex 2.35461 -0.840123 2
    endloop
  endfacet
  facet normal 0 0 1
    outer loop
      vertex 1.29099 2.14087 2
      vertex 5.16397 8.56349 2
      vertex 4.15415 9.09632 2
    endloop
  endfacet
  facet normal 0 0 1
    outer loop
      vertex 8.97398 -4.41221 2
      vertex 2.2435 -1.10305 2
      vertex 8.41253 -5.40641 2
    endloop
  endfacet
  facet normal 0 0 1
    outer loop
      vertex 1.03854 2.27408 2
      vertex 4.15415 9.09632 2
      vertex 3.09017 9.51056 2
    endloop
  endfacet
  facet normal -0 0 1
    outer loop
      vertex 2.10313 -1.3516 2
      vertex 8.41253 -5.40641 2
      vertex 2.2435 -1.10305 2
    endloop
  endfacet
  facet normal 0 0 1
    outer loop
      vertex 8.41253 -5.40641 2
      vertex 2.10313 -1.3516 2
      vertex 7.74142 -6.33012 2
    endloop
  endfacet
  facet normal 0 0 1
    outer loop
      vertex 9.93482 1.13991 2
      vertex 2.4837 0.284978 2
      vertex 2.5 0 2
    endloop
  endfacet
  facet normal 0 0 1
    outer loop
      vertex 9.74012 2.26497 2
      vertex 2.43503 0.566241 2
      vertex 2.4837 0.284978 2
    endloop
  endfacet
  facet normal 0 0 1
    outer loop
      vertex 9.41844 3.36049 2
      vertex 2.35461 0.840123 2
      vertex 2.43503 0.566241 2
    endloop
  endfacet
  facet normal 0 0 1
    outer loop
      vertex 8.97398 4.41221 2
      vertex 2.2435 1.10305 2
      vertex 2.35461 0.840123 2
    endloop
  endfacet
  facet normal 0 0 1
    outer loop
      vertex 8.41253 5.40641 2
      vertex 2.10313 1.3516 2
      vertex 2.2435 1.10305 2
    endloop
  endfacet
  facet normal 0 0 1
    outer loop
      vertex 0.772542 2.37764 2
      vertex 3.09017 9.51056 2
      vertex 1.9859 9.80083 2
    endloop
  endfacet
  facet normal 0 0 1
    outer loop
      vertex 7.74142 6.33012 2
      vertex 1.93535 1.58253 2
      vertex 2.10313 1.3516 2
    endloop
  endfacet
  facet normal 0 0 1
    outer loop
      vertex 6.96938 7.17132 2
      vertex 1.74234 1.79283 2
      vertex 1.93535 1.58253 2
    endloop
  endfacet
  facet normal 0 0 1
    outer loop
      vertex 6.10648 7.91902 2
      vertex 1.52662 1.97976 2
      vertex 1.74234 1.79283 2
    endloop
  endfacet
  facet normal 0 0 1
    outer loop
      vertex 5.16397 8.56349 2
      vertex 1.29099 2.14087 2
      vertex 1.52662 1.97976 2
    endloop
  endfacet
  facet normal 0 0 1
    outer loop
      vertex 4.15415 9.09632 2
      vertex 1.03854 2.27408 2
      vertex 1.29099 2.14087 2
    endloop
  endfacet
  facet normal 0 0 1
    outer loop
      vertex 0.496475 2.45021 2
      vertex 1.9859 9.80083 2
      vertex 0.85575 9.96332 2
    endloop
  endfacet
  facet normal 0 0 1
    outer loop
      vertex 3.09017 9.51056 2
      vertex 0.772542 2.37764 2
      vertex 1.03854 2.27408 2
    endloop
  endfacet
  facet normal 0 0 1
    outer loop
      vertex 1.9859 9.80083 2
      vertex 0.496475 2.45021 2
      vertex 0.772542 2.37764 2
    endloop
  endfacet
  facet normal 0 0 1
    outer loop
      vertex 0.85575 9.96332 2
      vertex 0.213937 2.49083 2
      vertex 0.496475 2.45021 2
    endloop
  endfacet
  facet normal 0 0 1
    outer loop
      vertex 0.85575 9.96332 2
      vertex -0.0713892 2.49898 2
      vertex 0.213937 2.49083 2
    endloop
  endfacet
  facet normal 0 0 1
    outer loop
      vertex -0.28556 9.99592 2
      vertex -0.0713892 2.49898 2
      vertex 0.85575 9.96332 2
    endloop
  endfacet
  facet normal 0 0 1
    outer loop
      vertex -0.28556 9.99592 2
      vertex -0.355786 2.47455 2
      vertex -0.0713892 2.49898 2
    endloop
  endfacet
  facet normal -0 0 1
    outer loop
      vertex -1.42315 9.89821 2
      vertex -0.355786 2.47455 2
      vertex -0.28556 9.99592 2
    endloop
  endfacet
  facet normal 0 0 1
    outer loop
      vertex -0.355786 2.47455 2
      vertex -1.42315 9.89821 2
      vertex -0.635546 2.41787 2
    endloop
  endfacet
  facet normal -0 0 1
    outer loop
      vertex -2.54218 9.67147 2
      vertex -0.635546 2.41787 2
      vertex -1.42315 9.89821 2
    endloop
  endfacet
  facet normal 0 0 1
    outer loop
      vertex -0.635546 2.41787 2
      vertex -2.54218 9.67147 2
      vertex -0.907019 2.32966 2
    endloop
  endfacet
  facet normal -0 0 1
    outer loop
      vertex -3.62808 9.31864 2
      vertex -0.907019 2.32966 2
      vertex -2.54218 9.67147 2
    endloop
  endfacet
  facet normal 0 0 1
    outer loop
      vertex -0.907019 2.32966 2
      vertex -3.62808 9.31864 2
      vertex -1.16667 2.21108 2
    endloop
  endfacet
  facet normal -0 0 1
    outer loop
      vertex -4.66667 8.84433 2
      vertex -1.16667 2.21108 2
      vertex -3.62808 9.31864 2
    endloop
  endfacet
  facet normal 0 0 1
    outer loop
      vertex -1.16667 2.21108 2
      vertex -4.66667 8.84433 2
      vertex -1.41111 2.06368 2
    endloop
  endfacet
  facet normal -0 0 1
    outer loop
      vertex -5.64443 8.25472 2
      vertex -1.41111 2.06368 2
      vertex -4.66667 8.84433 2
    endloop
  endfacet
  facet normal 0 0 1
    outer loop
      vertex -1.41111 2.06368 2
      vertex -5.64443 8.25472 2
      vertex -1.63715 1.88937 2
    endloop
  endfacet
  facet normal -0 0 1
    outer loop
      vertex -6.54861 7.5575 2
      vertex -1.63715 1.88937 2
      vertex -5.64443 8.25472 2
    endloop
  endfacet
  facet normal 0 0 1
    outer loop
      vertex -1.63715 1.88937 2
      vertex -6.54861 7.5575 2
      vertex -1.84185 1.69044 2
    endloop
  endfacet
  facet normal -0 0 1
    outer loop
      vertex -7.36741 6.76175 2
      vertex -1.84185 1.69044 2
      vertex -6.54861 7.5575 2
    endloop
  endfacet
  facet normal -0 0 1
    outer loop
      vertex -8.09017 5.87785 2
      vertex -2.02254 1.46946 2
      vertex -7.36741 6.76175 2
    endloop
  endfacet
  facet normal 0 0 1
    outer loop
      vertex -1.84185 1.69044 2
      vertex -7.36741 6.76175 2
      vertex -2.02254 1.46946 2
    endloop
  endfacet
  facet normal -0 0 1
    outer loop
      vertex 1.93535 -1.58253 2
      vertex 7.74142 -6.33012 2
      vertex 2.10313 -1.3516 2
    endloop
  endfacet
  facet normal 0 0 1
    outer loop
      vertex 7.74142 -6.33012 2
      vertex 1.93535 -1.58253 2
      vertex 6.96938 -7.17132 2
    endloop
  endfacet
  facet normal -0 0 1
    outer loop
      vertex 1.74234 -1.79283 2
      vertex 6.96938 -7.17132 2
      vertex 1.93535 -1.58253 2
    endloop
  endfacet
  facet normal 0 0 1
    outer loop
      vertex 6.96938 -7.17132 2
      vertex 1.74234 -1.79283 2
      vertex 6.10648 -7.91902 2
    endloop
  endfacet
  facet normal -0 0 1
    outer loop
      vertex 1.52662 -1.97976 2
      vertex 6.10648 -7.91902 2
      vertex 1.74234 -1.79283 2
    endloop
  endfacet
  facet normal 0 0 1
    outer loop
      vertex 6.10648 -7.91902 2
      vertex 1.52662 -1.97976 2
      vertex 5.16397 -8.56349 2
    endloop
  endfacet
  facet normal -0 0 1
    outer loop
      vertex 1.29099 -2.14087 2
      vertex 5.16397 -8.56349 2
      vertex 1.52662 -1.97976 2
    endloop
  endfacet
  facet normal 0 0 1
    outer loop
      vertex 5.16397 -8.56349 2
      vertex 1.29099 -2.14087 2
      vertex 4.15415 -9.09632 2
    endloop
  endfacet
  facet normal -0 0 1
    outer loop
      vertex 1.03854 -2.27408 2
      vertex 4.15415 -9.09632 2
      vertex 1.29099 -2.14087 2
    endloop
  endfacet
  facet normal 0 0 1
    outer loop
      vertex 4.15415 -9.09632 2
      vertex 1.03854 -2.27408 2
      vertex 3.09017 -9.51056 2
    endloop
  endfacet
  facet normal -0 0 1
    outer loop
      vertex 0.772542 -2.37764 2
      vertex 3.09017 -9.51056 2
      vertex 1.03854 -2.27408 2
    endloop
  endfacet
  facet normal 0 0 1
    outer loop
      vertex 3.09017 -9.51056 2
      vertex 0.772542 -2.37764 2
      vertex 1.9859 -9.80083 2
    endloop
  endfacet
  facet normal -0 0 1
    outer loop
      vertex 0.496475 -2.45021 2
      vertex 1.9859 -9.80083 2
      vertex 0.772542 -2.37764 2
    endloop
  endfacet
  facet normal 0 0 1
    outer loop
      vertex 1.9859 -9.80083 2
      vertex 0.496475 -2.45021 2
      vertex 0.85575 -9.96332 2
    endloop
  endfacet
  facet normal -0 0 1
    outer loop
      vertex 0.213937 -2.49083 2
      vertex 0.85575 -9.96332 2
      vertex 0.496475 -2.45021 2
    endloop
  endfacet
  facet normal -0 0 1
    outer loop
      vertex -0.0713892 -2.49898 2
      vertex 0.85575 -9.96332 2
      vertex 0.213937 -2.49083 2
    endloop
  endfacet
  facet normal 0 0 1
    outer loop
      vertex -0.0713892 -2.49898 2
      vertex -0.28556 -9.99592 2
      vertex 0.85575 -9.96332 2
    endloop
  endfacet
  facet normal 0 0 1
    outer loop
      vertex -0.355786 -2.47455 2
      vertex -0.28556 -9.99592 2
      vertex -0.0713892 -2.49898 2
    endloop
  endfacet
  facet normal 0 0 1
    outer loop
      vertex -1.42315 -9.89821 2
      vertex -0.355786 -2.47455 2
      vertex -0.635546 -2.41787 2
    endloop
  endfacet
  facet normal 0 0 1
    outer loop
      vertex -2.54218 -9.67147 2
      vertex -0.635546 -2.41787 2
      vertex -0.907019 -2.32966 2
    endloop
  endfacet
  facet normal 0 0 1
    outer loop
      vertex -3.62808 -9.31864 2
      vertex -0.907019 -2.32966 2
      vertex -1.16667 -2.21108 2
    endloop
  endfacet
  facet normal 0 0 1
    outer loop
      vertex -4.66667 -8.84433 2
      vertex -1.16667 -2.21108 2
      vertex -1.41111 -2.06368 2
    endloop
  endfacet
  facet normal 0 0 1
    outer loop
      vertex -0.355786 -2.47455 2
      vertex -1.42315 -9.89821 2
      vertex -0.28556 -9.99592 2
    endloop
  endfacet
  facet normal 0 0 1
    outer loop
      vertex -5.64443 -8.25472 2
      vertex -1.41111 -2.06368 2
      vertex -1.63715 -1.88937 2
    endloop
  endfacet
  facet normal 0 0 1
    outer loop
      vertex -6.54861 -7.5575 2
      vertex -1.63715 -1.88937 2
      vertex -1.84185 -1.69044 2
    endloop
  endfacet
  facet normal 0 0 1
    outer loop
      vertex -7.36741 -6.76175 2
      vertex -1.84185 -1.69044 2
      vertex -2.02254 -1.46946 2
    endloop
  endfacet
  facet normal 0 0 1
    outer loop
      vertex -8.09017 -5.87785 2
      vertex -2.02254 -1.46946 2
      vertex -2.17686 -1.22933 2
    endloop
  endfacet
  facet normal 0 0 1
    outer loop
      vertex -8.70746 -4.91733 2
      vertex -2.17686 -1.22933 2
      vertex -2.30281 -0.973175 2
    endloop
  endfacet
  facet normal 0 0 1
    outer loop
      vertex -9.21124 -3.8927 2
      vertex -2.30281 -0.973175 2
      vertex -2.39873 -0.70433 2
    endloop
  endfacet
  facet normal 0 0 1
    outer loop
      vertex -9.59493 -2.81732 2
      vertex -2.39873 -0.70433 2
      vertex -2.46338 -0.426305 2
    endloop
  endfacet
  facet normal 0 0 1
    outer loop
      vertex -9.85354 -1.70522 2
      vertex -2.46338 -0.426305 2
      vertex -2.49592 -0.142721 2
    endloop
  endfacet
  facet normal 0 0 1
    outer loop
      vertex -0.635546 -2.41787 2
      vertex -2.54218 -9.67147 2
      vertex -1.42315 -9.89821 2
    endloop
  endfacet
  facet normal 0 0 1
    outer loop
      vertex -2.02254 1.46946 2
      vertex -8.09017 5.87785 2
      vertex -2.17686 1.22933 2
    endloop
  endfacet
  facet normal -0 0 1
    outer loop
      vertex -8.70746 4.91733 2
      vertex -2.17686 1.22933 2
      vertex -8.09017 5.87785 2
    endloop
  endfacet
  facet normal 0 0 1
    outer loop
      vertex -0.907019 -2.32966 2
      vertex -3.62808 -9.31864 2
      vertex -2.54218 -9.67147 2
    endloop
  endfacet
  facet normal 0 0 1
    outer loop
      vertex -2.17686 1.22933 2
      vertex -8.70746 4.91733 2
      vertex -2.30281 0.973175 2
    endloop
  endfacet
  facet normal 0 0 1
    outer loop
      vertex -1.16667 -2.21108 2
      vertex -4.66667 -8.84433 2
      vertex -3.62808 -9.31864 2
    endloop
  endfacet
  facet normal -0 0 1
    outer loop
      vertex -9.21124 3.8927 2
      vertex -2.30281 0.973175 2
      vertex -8.70746 4.91733 2
    endloop
  endfacet
  facet normal 0 0 1
    outer loop
      vertex -1.41111 -2.06368 2
      vertex -5.64443 -8.25472 2
      vertex -4.66667 -8.84433 2
    endloop
  endfacet
  facet normal 0 0 1
    outer loop
      vertex -2.30281 0.973175 2
      vertex -9.21124 3.8927 2
      vertex -2.39873 0.70433 2
    endloop
  endfacet
  facet normal 0 0 1
    outer loop
      vertex -1.63715 -1.88937 2
      vertex -6.54861 -7.5575 2
      vertex -5.64443 -8.25472 2
    endloop
  endfacet
  facet normal -0 0 1
    outer loop
      vertex -9.59493 2.81732 2
      vertex -2.39873 0.70433 2
      vertex -9.21124 3.8927 2
    endloop
  endfacet
  facet normal 0 0 1
    outer loop
      vertex -1.84185 -1.69044 2
      vertex -7.36741 -6.76175 2
      vertex -6.54861 -7.5575 2
    endloop
  endfacet
  facet normal 0 0 1
    outer loop
      vertex -2.39873 0.70433 2
      vertex -9.59493 2.81732 2
      vertex -2.46338 0.426305 2
    endloop
  endfacet
  facet normal 0 0 1
    outer loop
      vertex -2.02254 -1.46946 2
      vertex -8.09017 -5.87785 2
      vertex -7.36741 -6.76175 2
    endloop
  endfacet
  facet normal -0 0 1
    outer loop
      vertex -9.85354 1.70522 2
      vertex -2.46338 0.426305 2
      vertex -9.59493 2.81732 2
    endloop
  endfacet
  facet normal 0 0 1
    outer loop
      vertex -2.17686 -1.22933 2
      vertex -8.70746 -4.91733 2
      vertex -8.09017 -5.87785 2
    endloop
  endfacet
  facet normal 0 0 1
    outer loop
      vertex -2.46338 0.426305 2
      vertex -9.85354 1.70522 2
      vertex -2.49592 0.142721 2
    endloop
  endfacet
  facet normal 0 0 1
    outer loop
      vertex -2.30281 -0.973175 2
      vertex -9.21124 -3.8927 2
      vertex -8.70746 -4.91733 2
    endloop
  endfacet
  facet normal -0 0 1
    outer loop
      vertex -9.98369 0.570888 2
      vertex -2.49592 0.142721 2
      vertex -9.85354 1.70522 2
    endloop
  endfacet
  facet normal 0 0 1
    outer loop
      vertex -2.39873 -0.70433 2
      vertex -9.59493 -2.81732 2
      vertex -9.21124 -3.8927 2
    endloop
  endfacet
  facet normal 0 0 1
    outer loop
      vertex -2.49592 0.142721 2
      vertex -9.98369 0.570888 2
      vertex -2.49592 -0.142721 2
    endloop
  endfacet
  facet normal 0 0 1
    outer loop
      vertex -2.46338 -0.426305 2
      vertex -9.85354 -1.70522 2
      vertex -9.59493 -2.81732 2
    endloop
  endfacet
  facet normal 0 0 1
    outer loop
      vertex -9.98369 -0.570888 2
      vertex -2.49592 -0.142721 2
      vertex -9.98369 0.570888 2
    endloop
  endfacet
  facet normal 0 0 1
    outer loop
      vertex -2.49592 -0.142721 2
      vertex -9.98369 -0.570888 2
      vertex -9.85354 -1.70522 2
    endloop
  endfacet
  facet normal -0.610648 0.791902 0
    outer loop
      vertex -5.64443 8.25472 0
      vertex -6.54861 7.5575 2
      vertex -5.64443 8.25472 2
    endloop
  endfacet
  facet normal -0.610648 0.791902 0
    outer loop
      vertex -6.54861 7.5575 2
      vertex -5.64443 8.25472 0
      vertex -6.54861 7.5575 0
    endloop
  endfacet
  facet normal -0.309017 0.951057 0
    outer loop
      vertex -2.54218 9.67147 0
      vertex -3.62808 9.31864 2
      vertex -2.54218 9.67147 2
    endloop
  endfacet
  facet normal -0.309017 0.951057 0
    outer loop
      vertex -3.62808 9.31864 2
      vertex -2.54218 9.67147 0
      vertex -3.62808 9.31864 0
    endloop
  endfacet
  facet normal 0.959493 -0.281733 0
    outer loop
      vertex 9.41844 -3.36049 2
      vertex 9.74012 -2.26497 0
      vertex 9.74012 -2.26497 2
    endloop
  endfacet
  facet normal 0.959493 -0.281733 0
    outer loop
      vertex 9.74012 -2.26497 0
      vertex 9.41844 -3.36049 2
      vertex 9.41844 -3.36049 0
    endloop
  endfacet
  facet normal 0.466667 -0.884433 0
    outer loop
      vertex 4.15415 -9.09632 0
      vertex 5.16397 -8.56349 2
      vertex 4.15415 -9.09632 2
    endloop
  endfacet
  facet normal 0.466667 -0.884433 0
    outer loop
      vertex 5.16397 -8.56349 2
      vertex 4.15415 -9.09632 0
      vertex 5.16397 -8.56349 0
    endloop
  endfacet
  facet normal 0.564443 -0.825472 0
    outer loop
      vertex 5.16397 -8.56349 0
      vertex 6.10648 -7.91902 2
      vertex 5.16397 -8.56349 2
    endloop
  endfacet
  facet normal 0.564443 -0.825472 0
    outer loop
      vertex 6.10648 -7.91902 2
      vertex 5.16397 -8.56349 0
      vertex 6.10648 -7.91902 0
    endloop
  endfacet
  facet normal 0.985354 -0.170522 0
    outer loop
      vertex 9.74012 -2.26497 2
      vertex 9.93482 -1.13991 0
      vertex 9.93482 -1.13991 2
    endloop
  endfacet
  facet normal 0.985354 -0.170522 0
    outer loop
      vertex 9.93482 -1.13991 0
      vertex 9.74012 -2.26497 2
      vertex 9.74012 -2.26497 0
    endloop
  endfacet
  facet normal -0.610648 -0.791902 0
    outer loop
      vertex -6.54861 -7.5575 0
      vertex -5.64443 -8.25472 2
      vertex -6.54861 -7.5575 2
    endloop
  endfacet
  facet normal -0.610648 -0.791902 -0
    outer loop
      vertex -5.64443 -8.25472 2
      vertex -6.54861 -7.5575 0
      vertex -5.64443 -8.25472 0
    endloop
  endfacet
  facet normal -0.841254 -0.54064 0
    outer loop
      vertex -8.09017 -5.87785 0
      vertex -8.70746 -4.91733 2
      vertex -8.70746 -4.91733 0
    endloop
  endfacet
  facet normal -0.841254 -0.54064 0
    outer loop
      vertex -8.70746 -4.91733 2
      vertex -8.09017 -5.87785 0
      vertex -8.09017 -5.87785 2
    endloop
  endfacet
  facet normal 0 0 -1
    outer loop
      vertex 9.93482 -1.13991 0
      vertex 9.93482 1.13991 0
      vertex 10 0 0
    endloop
  endfacet
  facet normal 0 0 -1
    outer loop
      vertex 9.74012 -2.26497 0
      vertex 9.93482 1.13991 0
      vertex 9.93482 -1.13991 0
    endloop
  endfacet
  facet normal 0 0 -1
    outer loop
      vertex 9.74012 -2.26497 0
      vertex 9.74012 2.26497 0
      vertex 9.93482 1.13991 0
    endloop
  endfacet
  facet normal 0 0 -1
    outer loop
      vertex 9.41844 -3.36049 0
      vertex 9.74012 2.26497 0
      vertex 9.74012 -2.26497 0
    endloop
  endfacet
  facet normal 0 0 -1
    outer loop
      vertex 9.41844 -3.36049 0
      vertex 9.41844 3.36049 0
      vertex 9.74012 2.26497 0
    endloop
  endfacet
  facet normal 0 0 -1
    outer loop
      vertex 8.97398 -4.41221 0
      vertex 9.41844 3.36049 0
      vertex 9.41844 -3.36049 0
    endloop
  endfacet
  facet normal 0 0 -1
    outer loop
      vertex 8.97398 -4.41221 0
      vertex 8.97398 4.41221 0
      vertex 9.41844 3.36049 0
    endloop
  endfacet
  facet normal 0 0 -1
    outer loop
      vertex 8.41253 -5.40641 0
      vertex 8.97398 4.41221 0
      vertex 8.97398 -4.41221 0
    endloop
  endfacet
  facet normal 0 0 -1
    outer loop
      vertex 8.41253 -5.40641 0
      vertex 8.41253 5.40641 0
      vertex 8.97398 4.41221 0
    endloop
  endfacet
  facet normal 0 0 -1
    outer loop
      vertex 7.74142 -6.33012 0
      vertex 8.41253 5.40641 0
      vertex 8.41253 -5.40641 0
    endloop
  endfacet
  facet normal 0 0 -1
    outer loop
      vertex 7.74142 -6.33012 0
      vertex 7.74142 6.33012 0
      vertex 8.41253 5.40641 0
    endloop
  endfacet
  facet normal 0 0 -1
    outer loop
      vertex 6.96938 -7.17132 0
      vertex 7.74142 6.33012 0
      vertex 7.74142 -6.33012 0
    endloop
  endfacet
  facet normal 0 0 -1
    outer loop
      vertex 6.96938 -7.17132 0
      vertex 6.96938 7.17132 0
      vertex 7.74142 6.33012 0
    endloop
  endfacet
  facet normal 0 0 -1
    outer loop
      vertex 6.10648 -7.91902 0
      vertex 6.96938 7.17132 0
      vertex 6.96938 -7.17132 0
    endloop
  endfacet
  facet normal 0 0 -1
    outer loop
      vertex 6.10648 -7.91902 0
      vertex 6.10648 7.91902 0
      vertex 6.96938 7.17132 0
    endloop
  endfacet
  facet normal 0 0 -1
    outer loop
      vertex 5.16397 -8.56349 0
      vertex 6.10648 7.91902 0
      vertex 6.10648 -7.91902 0
    endloop
  endfacet
  facet normal 0 0 -1
    outer loop
      vertex 5.16397 -8.56349 0
      vertex 5.16397 8.56349 0
      vertex 6.10648 7.91902 0
    endloop
  endfacet
  facet normal 0 0 -1
    outer loop
      vertex 4.15415 -9.09632 0
      vertex 5.16397 8.56349 0
      vertex 5.16397 -8.56349 0
    endloop
  endfacet
  facet normal 0 0 -1
    outer loop
      vertex 4.15415 -9.09632 0
      vertex 4.15415 9.09632 0
      vertex 5.16397 8.56349 0
    endloop
  endfacet
  facet normal 0 0 -1
    outer loop
      vertex 3.09017 -9.51056 0
      vertex 4.15415 9.09632 0
      vertex 4.15415 -9.09632 0
    endloop
  endfacet
  facet normal 0 0 -1
    outer loop
      vertex 3.09017 -9.51056 0
      vertex 3.09017 9.51056 0
      vertex 4.15415 9.09632 0
    endloop
  endfacet
  facet normal 0 0 -1
    outer loop
      vertex 1.9859 -9.80083 0
      vertex 3.09017 9.51056 0
      vertex 3.09017 -9.51056 0
    endloop
  endfacet
  facet normal 0 0 -1
    outer loop
      vertex 1.9859 -9.80083 0
      vertex 1.9859 9.80083 0
      vertex 3.09017 9.51056 0
    endloop
  endfacet
  facet normal 0 0 -1
    outer loop
      vertex 0.85575 -9.96332 0
      vertex 1.9859 9.80083 0
      vertex 1.9859 -9.80083 0
    endloop
  endfacet
  facet normal 0 0 -1
    outer loop
      vertex 0.85575 -9.96332 0
      vertex 0.85575 9.96332 0
      vertex 1.9859 9.80083 0
    endloop
  endfacet
  facet normal 0 0 -1
    outer loop
      vertex -0.28556 -9.99592 0
      vertex 0.85575 9.96332 0
      vertex 0.85575 -9.96332 0
    endloop
  endfacet
  facet normal 0 0 -1
    outer loop
      vertex -0.28556 -9.99592 0
      vertex -0.28556 9.99592 0
      vertex 0.85575 9.96332 0
    endloop
  endfacet
  facet normal 0 0 -1
    outer loop
      vertex -1.42315 -9.89821 0
      vertex -0.28556 9.99592 0
      vertex -0.28556 -9.99592 0
    endloop
  endfacet
  facet normal 0 0 -1
    outer loop
      vertex -1.42315 -9.89821 0
      vertex -1.42315 9.89821 0
      vertex -0.28556 9.99592 0
    endloop
  endfacet
  facet normal 0 0 -1
    outer loop
      vertex -2.54218 -9.67147 0
      vertex -1.42315 9.89821 0
      vertex -1.42315 -9.89821 0
    endloop
  endfacet
  facet normal 0 0 -1
    outer loop
      vertex -2.54218 -9.67147 0
      vertex -2.54218 9.67147 0
      vertex -1.42315 9.89821 0
    endloop
  endfacet
  facet normal 0 0 -1
    outer loop
      vertex -3.62808 -9.31864 0
      vertex -2.54218 9.67147 0
      vertex -2.54218 -9.67147 0
    endloop
  endfacet
  facet normal 0 0 -1
    outer loop
      vertex -3.62808 -9.31864 0
      vertex -3.62808 9.31864 0
      vertex -2.54218 9.67147 0
    endloop
  endfacet
  facet normal 0 0 -1
    outer loop
      vertex -4.66667 -8.84433 0
      vertex -3.62808 9.31864 0
      vertex -3.62808 -9.31864 0
    endloop
  endfacet
  facet normal 0 0 -1
    outer loop
      vertex -4.66667 -8.84433 0
      vertex -4.66667 8.84433 0
      vertex -3.62808 9.31864 0
    endloop
  endfacet
  facet normal 0 0 -1
    outer loop
      vertex -5.64443 -8.25472 0
      vertex -4.66667 8.84433 0
      vertex -4.66667 -8.84433 0
    endloop
  endfacet
  facet normal 0 0 -1
    outer loop
      vertex -5.64443 -8.25472 0
      vertex -5.64443 8.25472 0
      vertex -4.66667 8.84433 0
    endloop
  endfacet
  facet normal 0 0 -1
    outer loop
      vertex -6.54861 -7.5575 0
      vertex -5.64443 8.25472 0
      vertex -5.64443 -8.25472 0
    endloop
  endfacet
  facet normal 0 0 -1
    outer loop
      vertex -6.54861 -7.5575 0
      vertex -6.54861 7.5575 0
      vertex -5.64443 8.25472 0
    endloop
  endfacet
  facet normal 0 0 -1
    outer loop
      vertex -7.36741 -6.76175 0
      vertex -6.54861 7.5575 0
      vertex -6.54861 -7.5575 0
    endloop
  endfacet
  facet normal 0 0 -1
    outer loop
      vertex -7.36741 -6.76175 0
      vertex -7.36741 6.76175 0
      vertex -6.54861 7.5575 0
    endloop
  endfacet
  facet normal 0 0 -1
    outer loop
      vertex -8.09017 -5.87785 0
      vertex -7.36741 6.76175 0
      vertex -7.36741 -6.76175 0
    endloop
  endfacet
  facet normal 0 0 -1
    outer loop
      vertex -8.09017 -5.87785 0
      vertex -8.09017 5.87785 0
      vertex -7.36741 6.76175 0
    endloop
  endfacet
  facet normal 0 0 -1
    outer loop
      vertex -8.70746 -4.91733 0
      vertex -8.09017 5.87785 0
      vertex -8.09017 -5.87785 0
    endloop
  endfacet
  facet normal 0 0 -1
    outer loop
      vertex -8.70746 -4.91733 0
      vertex -8.70746 4.91733 0
      vertex -8.09017 5.87785 0
    endloop
  endfacet
  facet normal 0 0 -1
    outer loop
      vertex -9.21124 -3.8927 0
      vertex -8.70746 4.91733 0
      vertex -8.70746 -4.91733 0
    endloop
  endfacet
  facet normal 0 0 -1
    outer loop
      vertex -9.21124 -3.8927 0
      vertex -9.21124 3.8927 0
      vertex -8.70746 4.91733 0
    endloop
  endfacet
  facet normal 0 0 -1
    outer loop
      vertex -9.59493 -2.81732 0
      vertex -9.21124 3.8927 0
      vertex -9.21124 -3.8927 0
    endloop
  endfacet
  facet normal 0 0 -1
    outer loop
      vertex -9.59493 -2.81732 0
      vertex -9.59493 2.81732 0
      vertex -9.21124 3.8927 0
    endloop
  endfacet
  facet normal 0 0 -1
    outer loop
      vertex -9.85354 -1.70522 0
      vertex -9.59493 2.81732 0
      vertex -9.59493 -2.81732 0
    endloop
  endfacet
  facet normal 0 0 -1
    outer loop
      vertex -9.85354 -1.70522 0
      vertex -9.85354 1.70522 0
      vertex -9.59493 2.81732 0
    endloop
  endfacet
  facet normal 0 0 -1
    outer loop
      vertex -9.98369 -0.570888 0
      vertex -9.85354 1.70522 0
      vertex -9.85354 -1.70522 0
    endloop
  endfacet
  facet normal 0 0 -1
    outer loop
      vertex -9.85354 1.70522 0
      vertex -9.98369 -0.570888 0
      vertex -9.98369 0.570888 0
    endloop
  endfacet
  facet normal 0.959493 0.281733 0
    outer loop
      vertex 9.74012 2.26497 2
      vertex 9.41844 3.36049 0
      vertex 9.41844 3.36049 2
    endloop
  endfacet
  facet normal 0.959493 0.281733 0
    outer loop
      vertex 9.41844 3.36049 0
      vertex 9.74012 2.26497 2
      vertex 9.74012 2.26497 0
    endloop
  endfacet
  facet normal 0.809017 0.587785 0
    outer loop
      vertex 8.41253 5.40641 2
      vertex 7.74142 6.33012 0
      vertex 7.74142 6.33012 2
    endloop
  endfacet
  facet normal 0.809017 0.587785 0
    outer loop
      vertex 7.74142 6.33012 0
      vertex 8.41253 5.40641 2
      vertex 8.41253 5.40641 0
    endloop
  endfacet
  facet normal 0.736741 0.676175 0
    outer loop
      vertex 7.74142 6.33012 2
      vertex 6.96938 7.17132 0
      vertex 6.96938 7.17132 2
    endloop
  endfacet
  facet normal 0.736741 0.676175 0
    outer loop
      vertex 6.96938 7.17132 0
      vertex 7.74142 6.33012 2
      vertex 7.74142 6.33012 0
    endloop
  endfacet
  facet normal 0.870746 0.491733 0
    outer loop
      vertex 8.97398 4.41221 2
      vertex 8.41253 5.40641 0
      vertex 8.41253 5.40641 2
    endloop
  endfacet
  facet normal 0.870746 0.491733 0
    outer loop
      vertex 8.41253 5.40641 0
      vertex 8.97398 4.41221 2
      vertex 8.97398 4.41221 0
    endloop
  endfacet
  facet normal 0.142315 0.989821 -0
    outer loop
      vertex 1.9859 9.80083 0
      vertex 0.85575 9.96332 2
      vertex 1.9859 9.80083 2
    endloop
  endfacet
  facet normal 0.142315 0.989821 0
    outer loop
      vertex 0.85575 9.96332 2
      vertex 1.9859 9.80083 0
      vertex 0.85575 9.96332 0
    endloop
  endfacet
  facet normal 0.254218 0.967147 -0
    outer loop
      vertex 3.09017 9.51056 0
      vertex 1.9859 9.80083 2
      vertex 3.09017 9.51056 2
    endloop
  endfacet
  facet normal 0.254218 0.967147 0
    outer loop
      vertex 1.9859 9.80083 2
      vertex 3.09017 9.51056 0
      vertex 1.9859 9.80083 0
    endloop
  endfacet
  facet normal 0.0285557 0.999592 -0
    outer loop
      vertex 0.85575 9.96332 0
      vertex -0.28556 9.99592 2
      vertex 0.85575 9.96332 2
    endloop
  endfacet
  facet normal 0.0285557 0.999592 0
    outer loop
      vertex -0.28556 9.99592 2
      vertex 0.85575 9.96332 0
      vertex -0.28556 9.99592 0
    endloop
  endfacet
  facet normal 0.466667 0.884433 -0
    outer loop
      vertex 5.16397 8.56349 0
      vertex 4.15415 9.09632 2
      vertex 5.16397 8.56349 2
    endloop
  endfacet
  facet normal 0.466667 0.884433 0
    outer loop
      vertex 4.15415 9.09632 2
      vertex 5.16397 8.56349 0
      vertex 4.15415 9.09632 0
    endloop
  endfacet
  facet normal -0.897399 0.441221 0
    outer loop
      vertex -9.21124 3.8927 0
      vertex -8.70746 4.91733 2
      vertex -8.70746 4.91733 0
    endloop
  endfacet
  facet normal -0.897399 0.441221 0
    outer loop
      vertex -8.70746 4.91733 2
      vertex -9.21124 3.8927 0
      vertex -9.21124 3.8927 2
    endloop
  endfacet
  facet normal -0.974012 0.226496 0
    outer loop
      vertex -9.85354 1.70522 0
      vertex -9.59493 2.81732 2
      vertex -9.59493 2.81732 0
    endloop
  endfacet
  facet normal -0.974012 0.226496 0
    outer loop
      vertex -9.59493 2.81732 2
      vertex -9.85354 1.70522 0
      vertex -9.85354 1.70522 2
    endloop
  endfacet
  facet normal -0.993482 0.113991 0
    outer loop
      vertex -9.98369 0.570888 0
      vertex -9.85354 1.70522 2
      vertex -9.85354 1.70522 0
    endloop
  endfacet
  facet normal -0.993482 0.113991 0
    outer loop
      vertex -9.85354 1.70522 2
      vertex -9.98369 0.570888 0
      vertex -9.98369 0.570888 2
    endloop
  endfacet
  facet normal -0.696938 0.717132 0
    outer loop
      vertex -6.54861 7.5575 0
      vertex -7.36741 6.76175 2
      vertex -6.54861 7.5575 2
    endloop
  endfacet
  facet normal -0.696938 0.717132 0
    outer loop
      vertex -7.36741 6.76175 2
      vertex -6.54861 7.5575 0
      vertex -7.36741 6.76175 0
    endloop
  endfacet
  facet normal -0.415415 0.909632 0
    outer loop
      vertex -3.62808 9.31864 0
      vertex -4.66667 8.84433 2
      vertex -3.62808 9.31864 2
    endloop
  endfacet
  facet normal -0.415415 0.909632 0
    outer loop
      vertex -4.66667 8.84433 2
      vertex -3.62808 9.31864 0
      vertex -4.66667 8.84433 0
    endloop
  endfacet
  facet normal -0.198591 0.980082 0
    outer loop
      vertex -1.42315 9.89821 0
      vertex -2.54218 9.67147 2
      vertex -1.42315 9.89821 2
    endloop
  endfacet
  facet normal -0.198591 0.980082 0
    outer loop
      vertex -2.54218 9.67147 2
      vertex -1.42315 9.89821 0
      vertex -2.54218 9.67147 0
    endloop
  endfacet
  facet normal 0.998369 -0.0570889 0
    outer loop
      vertex 9.93482 -1.13991 2
      vertex 10 0 0
      vertex 10 0 2
    endloop
  endfacet
  facet normal 0.998369 -0.0570889 0
    outer loop
      vertex 10 0 0
      vertex 9.93482 -1.13991 2
      vertex 9.93482 -1.13991 0
    endloop
  endfacet
  facet normal 0.142315 -0.989821 0
    outer loop
      vertex 0.85575 -9.96332 0
      vertex 1.9859 -9.80083 2
      vertex 0.85575 -9.96332 2
    endloop
  endfacet
  facet normal 0.142315 -0.989821 0
    outer loop
      vertex 1.9859 -9.80083 2
      vertex 0.85575 -9.96332 0
      vertex 1.9859 -9.80083 0
    endloop
  endfacet
  facet normal 0.362808 -0.931864 0
    outer loop
      vertex 3.09017 -9.51056 0
      vertex 4.15415 -9.09632 2
      vertex 3.09017 -9.51056 2
    endloop
  endfacet
  facet normal 0.362808 -0.931864 0
    outer loop
      vertex 4.15415 -9.09632 2
      vertex 3.09017 -9.51056 0
      vertex 4.15415 -9.09632 0
    endloop
  endfacet
  facet normal 0.654861 -0.75575 0
    outer loop
      vertex 6.10648 -7.91902 0
      vertex 6.96938 -7.17132 2
      vertex 6.10648 -7.91902 2
    endloop
  endfacet
  facet normal 0.654861 -0.75575 0
    outer loop
      vertex 6.96938 -7.17132 2
      vertex 6.10648 -7.91902 0
      vertex 6.96938 -7.17132 0
    endloop
  endfacet
  facet normal 0.809017 -0.587785 0
    outer loop
      vertex 7.74142 -6.33012 2
      vertex 8.41253 -5.40641 0
      vertex 8.41253 -5.40641 2
    endloop
  endfacet
  facet normal 0.809017 -0.587785 0
    outer loop
      vertex 8.41253 -5.40641 0
      vertex 7.74142 -6.33012 2
      vertex 7.74142 -6.33012 0
    endloop
  endfacet
  facet normal 0.921124 -0.38927 0
    outer loop
      vertex 8.97398 -4.41221 2
      vertex 9.41844 -3.36049 0
      vertex 9.41844 -3.36049 2
    endloop
  endfacet
  facet normal 0.921124 -0.38927 0
    outer loop
      vertex 9.41844 -3.36049 0
      vertex 8.97398 -4.41221 2
      vertex 8.97398 -4.41221 0
    endloop
  endfacet
  facet normal -0.516397 -0.856349 0
    outer loop
      vertex -5.64443 -8.25472 0
      vertex -4.66667 -8.84433 2
      vertex -5.64443 -8.25472 2
    endloop
  endfacet
  facet normal -0.516397 -0.856349 -0
    outer loop
      vertex -4.66667 -8.84433 2
      vertex -5.64443 -8.25472 0
      vertex -4.66667 -8.84433 0
    endloop
  endfacet
  facet normal -0.309017 -0.951057 0
    outer loop
      vertex -3.62808 -9.31864 0
      vertex -2.54218 -9.67147 2
      vertex -3.62808 -9.31864 2
    endloop
  endfacet
  facet normal -0.309017 -0.951057 -0
    outer loop
      vertex -2.54218 -9.67147 2
      vertex -3.62808 -9.31864 0
      vertex -2.54218 -9.67147 0
    endloop
  endfacet
  facet normal -0.0855743 -0.996332 0
    outer loop
      vertex -1.42315 -9.89821 0
      vertex -0.28556 -9.99592 2
      vertex -1.42315 -9.89821 2
    endloop
  endfacet
  facet normal -0.0855743 -0.996332 -0
    outer loop
      vertex -0.28556 -9.99592 2
      vertex -1.42315 -9.89821 0
      vertex -0.28556 -9.99592 0
    endloop
  endfacet
  facet normal -0.774141 -0.633013 0
    outer loop
      vertex -7.36741 -6.76175 0
      vertex -8.09017 -5.87785 2
      vertex -8.09017 -5.87785 0
    endloop
  endfacet
  facet normal -0.774141 -0.633013 0
    outer loop
      vertex -8.09017 -5.87785 2
      vertex -7.36741 -6.76175 0
      vertex -7.36741 -6.76175 2
    endloop
  endfacet
  facet normal -0.941844 -0.33605 0
    outer loop
      vertex -9.21124 -3.8927 0
      vertex -9.59493 -2.81732 2
      vertex -9.59493 -2.81732 0
    endloop
  endfacet
  facet normal -0.941844 -0.33605 0
    outer loop
      vertex -9.59493 -2.81732 2
      vertex -9.21124 -3.8927 0
      vertex -9.21124 -3.8927 2
    endloop
  endfacet
  facet normal -0.993482 -0.113991 0
    outer loop
      vertex -9.85354 -1.70522 0
      vertex -9.98369 -0.570888 2
      vertex -9.98369 -0.570888 0
    endloop
  endfacet
  facet normal -0.993482 -0.113991 0
    outer loop
      vertex -9.98369 -0.570888 2
      vertex -9.85354 -1.70522 0
      vertex -9.85354 -1.70522 2
    endloop
  endfacet
  facet normal 0.254218 -0.967147 0
    outer loop
      vertex 1.9859 -9.80083 0
      vertex 3.09017 -9.51056 2
      vertex 1.9859 -9.80083 2
    endloop
  endfacet
  facet normal 0.254218 -0.967147 0
    outer loop
      vertex 3.09017 -9.51056 2
      vertex 1.9859 -9.80083 0
      vertex 3.09017 -9.51056 0
    endloop
  endfacet
  facet normal 0.736741 -0.676175 0
    outer loop
      vertex 6.96938 -7.17132 2
      vertex 7.74142 -6.33012 0
      vertex 7.74142 -6.33012 2
    endloop
  endfacet
  facet normal 0.736741 -0.676175 0
    outer loop
      vertex 7.74142 -6.33012 0
      vertex 6.96938 -7.17132 2
      vertex 6.96938 -7.17132 0
    endloop
  endfacet
  facet normal 0.870746 -0.491733 0
    outer loop
      vertex 8.41253 -5.40641 2
      vertex 8.97398 -4.41221 0
      vertex 8.97398 -4.41221 2
    endloop
  endfacet
  facet normal 0.870746 -0.491733 0
    outer loop
      vertex 8.97398 -4.41221 0
      vertex 8.41253 -5.40641 2
      vertex 8.41253 -5.40641 0
    endloop
  endfacet
  facet normal -0.415415 -0.909632 0
    outer loop
      vertex -4.66667 -8.84433 0
      vertex -3.62808 -9.31864 2
      vertex -4.66667 -8.84433 2
    endloop
  endfacet
  facet normal -0.415415 -0.909632 -0
    outer loop
      vertex -3.62808 -9.31864 2
      vertex -4.66667 -8.84433 0
      vertex -3.62808 -9.31864 0
    endloop
  endfacet
  facet normal -0.198591 -0.980082 0
    outer loop
      vertex -2.54218 -9.67147 0
      vertex -1.42315 -9.89821 2
      vertex -2.54218 -9.67147 2
    endloop
  endfacet
  facet normal -0.198591 -0.980082 -0
    outer loop
      vertex -1.42315 -9.89821 2
      vertex -2.54218 -9.67147 0
      vertex -1.42315 -9.89821 0
    endloop
  endfacet
  facet normal -0.974012 -0.226496 0
    outer loop
      vertex -9.59493 -2.81732 0
      vertex -9.85354 -1.70522 2
      vertex -9.85354 -1.70522 0
    endloop
  endfacet
  facet normal -0.974012 -0.226496 0
    outer loop
      vertex -9.85354 -1.70522 2
      vertex -9.59493 -2.81732 0
      vertex -9.59493 -2.81732 2
    endloop
  endfacet
  facet normal 0.959493 0.281731 0
    outer loop
      vertex 2.43503 0.566241 17
      vertex 2.35461 0.840123 2
      vertex 2.35461 0.840123 17
    endloop
  endfacet
  facet normal 0.959493 0.281731 0
    outer loop
      vertex 2.35461 0.840123 2
      vertex 2.43503 0.566241 17
      vertex 2.43503 0.566241 2
    endloop
  endfacet
  facet normal 0.998369 0.0570915 0
    outer loop
      vertex 2.5 0 17
      vertex 2.4837 0.284978 2
      vertex 2.4837 0.284978 17
    endloop
  endfacet
  facet normal 0.998369 0.0570915 0
    outer loop
      vertex 2.4837 0.284978 2
      vertex 2.5 0 17
      vertex 2.5 0 2
    endloop
  endfacet
  facet normal -1 0 0
    outer loop
      vertex -2.49592 -0.142721 2
      vertex -2.49592 0.142721 17
      vertex -2.49592 0.142721 2
    endloop
  endfacet
  facet normal -1 -0 0
    outer loop
      vertex -2.49592 0.142721 17
      vertex -2.49592 -0.142721 2
      vertex -2.49592 -0.142721 17
    endloop
  endfacet
  facet normal -0.0855735 0.996332 0
    outer loop
      vertex -0.0713892 2.49898 2
      vertex -0.355786 2.47455 17
      vertex -0.0713892 2.49898 17
    endloop
  endfacet
  facet normal -0.0855735 0.996332 0
    outer loop
      vertex -0.355786 2.47455 17
      vertex -0.0713892 2.49898 2
      vertex -0.355786 2.47455 2
    endloop
  endfacet
  facet normal 0.654861 0.755749 -0
    outer loop
      vertex 1.74234 1.79283 2
      vertex 1.52662 1.97976 17
      vertex 1.74234 1.79283 17
    endloop
  endfacet
  facet normal 0.654861 0.755749 0
    outer loop
      vertex 1.52662 1.97976 17
      vertex 1.74234 1.79283 2
      vertex 1.52662 1.97976 2
    endloop
  endfacet
  facet normal -0.774141 0.633013 0
    outer loop
      vertex -2.02254 1.46946 2
      vertex -1.84185 1.69044 17
      vertex -1.84185 1.69044 2
    endloop
  endfacet
  facet normal -0.774141 0.633013 0
    outer loop
      vertex -1.84185 1.69044 17
      vertex -2.02254 1.46946 2
      vertex -2.02254 1.46946 17
    endloop
  endfacet
  facet normal -0.516395 0.856351 0
    outer loop
      vertex -1.16667 2.21108 2
      vertex -1.41111 2.06368 17
      vertex -1.16667 2.21108 17
    endloop
  endfacet
  facet normal -0.516395 0.856351 0
    outer loop
      vertex -1.41111 2.06368 17
      vertex -1.16667 2.21108 2
      vertex -1.41111 2.06368 2
    endloop
  endfacet
  facet normal -0.774141 -0.633013 0
    outer loop
      vertex -1.84185 -1.69044 2
      vertex -2.02254 -1.46946 17
      vertex -2.02254 -1.46946 2
    endloop
  endfacet
  facet normal -0.774141 -0.633013 0
    outer loop
      vertex -2.02254 -1.46946 17
      vertex -1.84185 -1.69044 2
      vertex -1.84185 -1.69044 17
    endloop
  endfacet
  facet normal 0.921124 0.389269 0
    outer loop
      vertex 2.35461 0.840123 17
      vertex 2.2435 1.10305 2
      vertex 2.2435 1.10305 17
    endloop
  endfacet
  facet normal 0.921124 0.389269 0
    outer loop
      vertex 2.2435 1.10305 2
      vertex 2.35461 0.840123 17
      vertex 2.35461 0.840123 2
    endloop
  endfacet
  facet normal 0.362808 0.931864 -0
    outer loop
      vertex 1.03854 2.27408 2
      vertex 0.772542 2.37764 17
      vertex 1.03854 2.27408 17
    endloop
  endfacet
  facet normal 0.362808 0.931864 0
    outer loop
      vertex 0.772542 2.37764 17
      vertex 1.03854 2.27408 2
      vertex 0.772542 2.37764 2
    endloop
  endfacet
  facet normal 0.564442 0.825473 -0
    outer loop
      vertex 1.52662 1.97976 2
      vertex 1.29099 2.14087 17
      vertex 1.52662 1.97976 17
    endloop
  endfacet
  facet normal 0.564442 0.825473 0
    outer loop
      vertex 1.29099 2.14087 17
      vertex 1.52662 1.97976 2
      vertex 1.29099 2.14087 2
    endloop
  endfacet
  facet normal -0.941845 0.336049 0
    outer loop
      vertex -2.39873 0.70433 2
      vertex -2.30281 0.973175 17
      vertex -2.30281 0.973175 2
    endloop
  endfacet
  facet normal -0.941845 0.336049 0
    outer loop
      vertex -2.30281 0.973175 17
      vertex -2.39873 0.70433 2
      vertex -2.39873 0.70433 17
    endloop
  endfacet
  facet normal -0.897398 0.441222 0
    outer loop
      vertex -2.30281 0.973175 2
      vertex -2.17686 1.22933 17
      vertex -2.17686 1.22933 2
    endloop
  endfacet
  facet normal -0.897398 0.441222 0
    outer loop
      vertex -2.17686 1.22933 17
      vertex -2.30281 0.973175 2
      vertex -2.30281 0.973175 17
    endloop
  endfacet
  facet normal -0.993482 0.113992 0
    outer loop
      vertex -2.49592 0.142721 2
      vertex -2.46338 0.426305 17
      vertex -2.46338 0.426305 2
    endloop
  endfacet
  facet normal -0.993482 0.113992 0
    outer loop
      vertex -2.46338 0.426305 17
      vertex -2.49592 0.142721 2
      vertex -2.49592 0.142721 17
    endloop
  endfacet
  facet normal -0.610648 0.791902 0
    outer loop
      vertex -1.41111 2.06368 2
      vertex -1.63715 1.88937 17
      vertex -1.41111 2.06368 17
    endloop
  endfacet
  facet normal -0.610648 0.791902 0
    outer loop
      vertex -1.63715 1.88937 17
      vertex -1.41111 2.06368 2
      vertex -1.63715 1.88937 2
    endloop
  endfacet
  facet normal 0.736741 -0.676175 0
    outer loop
      vertex 1.74234 -1.79283 17
      vertex 1.93535 -1.58253 2
      vertex 1.93535 -1.58253 17
    endloop
  endfacet
  facet normal 0.736741 -0.676175 0
    outer loop
      vertex 1.93535 -1.58253 2
      vertex 1.74234 -1.79283 17
      vertex 1.74234 -1.79283 2
    endloop
  endfacet
  facet normal 0.959493 -0.281731 0
    outer loop
      vertex 2.35461 -0.840123 17
      vertex 2.43503 -0.566241 2
      vertex 2.43503 -0.566241 17
    endloop
  endfacet
  facet normal 0.959493 -0.281731 0
    outer loop
      vertex 2.43503 -0.566241 2
      vertex 2.35461 -0.840123 17
      vertex 2.35461 -0.840123 2
    endloop
  endfacet
  facet normal -0.19859 -0.980083 0
    outer loop
      vertex -0.635546 -2.41787 2
      vertex -0.355786 -2.47455 17
      vertex -0.635546 -2.41787 17
    endloop
  endfacet
  facet normal -0.19859 -0.980083 -0
    outer loop
      vertex -0.355786 -2.47455 17
      vertex -0.635546 -2.41787 2
      vertex -0.355786 -2.47455 2
    endloop
  endfacet
  facet normal -0.415415 -0.909632 0
    outer loop
      vertex -1.16667 -2.21108 2
      vertex -0.907019 -2.32966 17
      vertex -1.16667 -2.21108 17
    endloop
  endfacet
  facet normal -0.415415 -0.909632 -0
    outer loop
      vertex -0.907019 -2.32966 17
      vertex -1.16667 -2.21108 2
      vertex -0.907019 -2.32966 2
    endloop
  endfacet
  facet normal -0.974012 -0.226495 0
    outer loop
      vertex -2.39873 -0.70433 2
      vertex -2.46338 -0.426305 17
      vertex -2.46338 -0.426305 2
    endloop
  endfacet
  facet normal -0.974012 -0.226495 0
    outer loop
      vertex -2.46338 -0.426305 17
      vertex -2.39873 -0.70433 2
      vertex -2.39873 -0.70433 17
    endloop
  endfacet
  facet normal 0.870745 0.491734 0
    outer loop
      vertex 2.2435 1.10305 17
      vertex 2.10313 1.3516 2
      vertex 2.10313 1.3516 17
    endloop
  endfacet
  facet normal 0.870745 0.491734 0
    outer loop
      vertex 2.10313 1.3516 2
      vertex 2.2435 1.10305 17
      vertex 2.2435 1.10305 2
    endloop
  endfacet
  facet normal 0.736741 0.676175 0
    outer loop
      vertex 1.93535 1.58253 17
      vertex 1.74234 1.79283 2
      vertex 1.74234 1.79283 17
    endloop
  endfacet
  facet normal 0.736741 0.676175 0
    outer loop
      vertex 1.74234 1.79283 2
      vertex 1.93535 1.58253 17
      vertex 1.93535 1.58253 2
    endloop
  endfacet
  facet normal 0.809017 0.587785 0
    outer loop
      vertex 2.10313 1.3516 17
      vertex 1.93535 1.58253 2
      vertex 1.93535 1.58253 17
    endloop
  endfacet
  facet normal 0.809017 0.587785 0
    outer loop
      vertex 1.93535 1.58253 2
      vertex 2.10313 1.3516 17
      vertex 2.10313 1.3516 2
    endloop
  endfacet
  facet normal 0.142314 0.989822 -0
    outer loop
      vertex 0.496475 2.45021 2
      vertex 0.213937 2.49083 17
      vertex 0.496475 2.45021 17
    endloop
  endfacet
  facet normal 0.142314 0.989822 0
    outer loop
      vertex 0.213937 2.49083 17
      vertex 0.496475 2.45021 2
      vertex 0.213937 2.49083 2
    endloop
  endfacet
  facet normal 0.0285559 0.999592 -0
    outer loop
      vertex 0.213937 2.49083 2
      vertex -0.0713892 2.49898 17
      vertex 0.213937 2.49083 17
    endloop
  endfacet
  facet normal 0.0285559 0.999592 0
    outer loop
      vertex -0.0713892 2.49898 17
      vertex 0.213937 2.49083 2
      vertex -0.0713892 2.49898 2
    endloop
  endfacet
  facet normal 0.466668 0.884433 -0
    outer loop
      vertex 1.29099 2.14087 2
      vertex 1.03854 2.27408 17
      vertex 1.29099 2.14087 17
    endloop
  endfacet
  facet normal 0.466668 0.884433 0
    outer loop
      vertex 1.03854 2.27408 17
      vertex 1.29099 2.14087 2
      vertex 1.03854 2.27408 2
    endloop
  endfacet
  facet normal -0.841253 0.540641 0
    outer loop
      vertex -2.17686 1.22933 2
      vertex -2.02254 1.46946 17
      vertex -2.02254 1.46946 2
    endloop
  endfacet
  facet normal -0.841253 0.540641 0
    outer loop
      vertex -2.02254 1.46946 17
      vertex -2.17686 1.22933 2
      vertex -2.17686 1.22933 17
    endloop
  endfacet
  facet normal -0.974012 0.226495 0
    outer loop
      vertex -2.46338 0.426305 2
      vertex -2.39873 0.70433 17
      vertex -2.39873 0.70433 2
    endloop
  endfacet
  facet normal -0.974012 0.226495 0
    outer loop
      vertex -2.39873 0.70433 17
      vertex -2.46338 0.426305 2
      vertex -2.46338 0.426305 17
    endloop
  endfacet
  facet normal 0 0 -1
    outer loop
      vertex 2.5 0 17
      vertex 3.5 0 17
      vertex 3.47719 -0.39897 17
    endloop
  endfacet
  facet normal 0 0 -1
    outer loop
      vertex 2.4837 -0.284978 17
      vertex 3.47719 -0.39897 17
      vertex 3.40904 -0.792738 17
    endloop
  endfacet
  facet normal 0 0 -1
    outer loop
      vertex 3.5 0 17
      vertex 2.5 0 17
      vertex 3.47719 0.39897 17
    endloop
  endfacet
  facet normal 0 0 -1
    outer loop
      vertex 2.43503 -0.566241 17
      vertex 3.40904 -0.792738 17
      vertex 3.29645 -1.17617 17
    endloop
  endfacet
  facet normal 0 0 -1
    outer loop
      vertex 2.4837 0.284978 17
      vertex 3.47719 0.39897 17
      vertex 2.5 0 17
    endloop
  endfacet
  facet normal 0 0 -1
    outer loop
      vertex 2.35461 -0.840123 17
      vertex 3.29645 -1.17617 17
      vertex 3.14089 -1.54427 17
    endloop
  endfacet
  facet normal -0 0 -1
    outer loop
      vertex 3.47719 0.39897 17
      vertex 2.4837 0.284978 17
      vertex 3.40904 0.792738 17
    endloop
  endfacet
  facet normal 0 0 -1
    outer loop
      vertex 2.2435 -1.10305 17
      vertex 3.14089 -1.54427 17
      vertex 2.94439 -1.89224 17
    endloop
  endfacet
  facet normal 0 0 -1
    outer loop
      vertex 2.43503 0.566241 17
      vertex 3.40904 0.792738 17
      vertex 2.4837 0.284978 17
    endloop
  endfacet
  facet normal 0 0 -1
    outer loop
      vertex 2.10313 -1.3516 17
      vertex 2.94439 -1.89224 17
      vertex 2.7095 -2.21554 17
    endloop
  endfacet
  facet normal -0 0 -1
    outer loop
      vertex 3.40904 0.792738 17
      vertex 2.43503 0.566241 17
      vertex 3.29645 1.17617 17
    endloop
  endfacet
  facet normal 0 0 -1
    outer loop
      vertex 2.35461 0.840123 17
      vertex 3.29645 1.17617 17
      vertex 2.43503 0.566241 17
    endloop
  endfacet
  facet normal 0 0 -1
    outer loop
      vertex 3.47719 -0.39897 17
      vertex 2.4837 -0.284978 17
      vertex 2.5 0 17
    endloop
  endfacet
  facet normal 0 0 -1
    outer loop
      vertex 1.93535 -1.58253 17
      vertex 2.7095 -2.21554 17
      vertex 2.43928 -2.50996 17
    endloop
  endfacet
  facet normal 0 0 -1
    outer loop
      vertex 3.40904 -0.792738 17
      vertex 2.43503 -0.566241 17
      vertex 2.4837 -0.284978 17
    endloop
  endfacet
  facet normal 0 0 -1
    outer loop
      vertex 3.29645 -1.17617 17
      vertex 2.35461 -0.840123 17
      vertex 2.43503 -0.566241 17
    endloop
  endfacet
  facet normal 0 0 -1
    outer loop
      vertex 3.14089 -1.54427 17
      vertex 2.2435 -1.10305 17
      vertex 2.35461 -0.840123 17
    endloop
  endfacet
  facet normal 0 0 -1
    outer loop
      vertex 1.74234 -1.79283 17
      vertex 2.43928 -2.50996 17
      vertex 2.13727 -2.77166 17
    endloop
  endfacet
  facet normal 0 0 -1
    outer loop
      vertex 2.94439 -1.89224 17
      vertex 2.10313 -1.3516 17
      vertex 2.2435 -1.10305 17
    endloop
  endfacet
  facet normal 0 0 -1
    outer loop
      vertex 2.7095 -2.21554 17
      vertex 1.93535 -1.58253 17
      vertex 2.10313 -1.3516 17
    endloop
  endfacet
  facet normal 0 0 -1
    outer loop
      vertex 1.52662 -1.97976 17
      vertex 2.13727 -2.77166 17
      vertex 1.80739 -2.99722 17
    endloop
  endfacet
  facet normal 0 0 -1
    outer loop
      vertex 2.43928 -2.50996 17
      vertex 1.74234 -1.79283 17
      vertex 1.93535 -1.58253 17
    endloop
  endfacet
  facet normal 0 0 -1
    outer loop
      vertex 2.13727 -2.77166 17
      vertex 1.52662 -1.97976 17
      vertex 1.74234 -1.79283 17
    endloop
  endfacet
  facet normal 0 0 -1
    outer loop
      vertex 1.29099 -2.14087 17
      vertex 1.80739 -2.99722 17
      vertex 1.45395 -3.18371 17
    endloop
  endfacet
  facet normal 0 0 -1
    outer loop
      vertex 1.80739 -2.99722 17
      vertex 1.29099 -2.14087 17
      vertex 1.52662 -1.97976 17
    endloop
  endfacet
  facet normal 0 0 -1
    outer loop
      vertex 1.03854 -2.27408 17
      vertex 1.45395 -3.18371 17
      vertex 1.08156 -3.3287 17
    endloop
  endfacet
  facet normal 0 0 -1
    outer loop
      vertex 1.45395 -3.18371 17
      vertex 1.03854 -2.27408 17
      vertex 1.29099 -2.14087 17
    endloop
  endfacet
  facet normal 0 0 -1
    outer loop
      vertex 1.08156 -3.3287 17
      vertex 0.772542 -2.37764 17
      vertex 1.03854 -2.27408 17
    endloop
  endfacet
  facet normal 0 0 -1
    outer loop
      vertex 0.695066 -3.43029 17
      vertex 0.772542 -2.37764 17
      vertex 1.08156 -3.3287 17
    endloop
  endfacet
  facet normal 0 0 -1
    outer loop
      vertex 0.695066 -3.43029 17
      vertex 0.496475 -2.45021 17
      vertex 0.772542 -2.37764 17
    endloop
  endfacet
  facet normal 0 0 -1
    outer loop
      vertex 0.299512 -3.48716 17
      vertex 0.496475 -2.45021 17
      vertex 0.695066 -3.43029 17
    endloop
  endfacet
  facet normal 0 0 -1
    outer loop
      vertex 0.299512 -3.48716 17
      vertex 0.213937 -2.49083 17
      vertex 0.496475 -2.45021 17
    endloop
  endfacet
  facet normal 0 0 -1
    outer loop
      vertex 0.299512 -3.48716 17
      vertex -0.0713892 -2.49898 17
      vertex 0.213937 -2.49083 17
    endloop
  endfacet
  facet normal 0 0 -1
    outer loop
      vertex -0.099946 -3.49857 17
      vertex -0.0713892 -2.49898 17
      vertex 0.299512 -3.48716 17
    endloop
  endfacet
  facet normal 0 0 -1
    outer loop
      vertex -0.099946 -3.49857 17
      vertex -0.355786 -2.47455 17
      vertex -0.0713892 -2.49898 17
    endloop
  endfacet
  facet normal 0 0 -1
    outer loop
      vertex -0.498101 -3.46437 17
      vertex -0.355786 -2.47455 17
      vertex -0.099946 -3.49857 17
    endloop
  endfacet
  facet normal 0 0 -1
    outer loop
      vertex -0.498101 -3.46437 17
      vertex -0.635546 -2.41787 17
      vertex -0.355786 -2.47455 17
    endloop
  endfacet
  facet normal 0 0 -1
    outer loop
      vertex -0.889764 -3.38501 17
      vertex -0.635546 -2.41787 17
      vertex -0.498101 -3.46437 17
    endloop
  endfacet
  facet normal 0 0 -1
    outer loop
      vertex -0.889764 -3.38501 17
      vertex -0.907019 -2.32966 17
      vertex -0.635546 -2.41787 17
    endloop
  endfacet
  facet normal 0 0 -1
    outer loop
      vertex -1.26983 -3.26152 17
      vertex -0.907019 -2.32966 17
      vertex -0.889764 -3.38501 17
    endloop
  endfacet
  facet normal -0 0 -1
    outer loop
      vertex -0.907019 -2.32966 17
      vertex -1.26983 -3.26152 17
      vertex -1.16667 -2.21108 17
    endloop
  endfacet
  facet normal 0 0 -1
    outer loop
      vertex -1.63334 -3.09552 17
      vertex -1.16667 -2.21108 17
      vertex -1.26983 -3.26152 17
    endloop
  endfacet
  facet normal -0 0 -1
    outer loop
      vertex -1.16667 -2.21108 17
      vertex -1.63334 -3.09552 17
      vertex -1.41111 -2.06368 17
    endloop
  endfacet
  facet normal 0 0 -1
    outer loop
      vertex -1.97555 -2.88915 17
      vertex -1.41111 -2.06368 17
      vertex -1.63334 -3.09552 17
    endloop
  endfacet
  facet normal -0 0 -1
    outer loop
      vertex -1.41111 -2.06368 17
      vertex -1.97555 -2.88915 17
      vertex -1.63715 -1.88937 17
    endloop
  endfacet
  facet normal 0 0 -1
    outer loop
      vertex -2.29201 -2.64512 17
      vertex -1.63715 -1.88937 17
      vertex -1.97555 -2.88915 17
    endloop
  endfacet
  facet normal -0 0 -1
    outer loop
      vertex -1.63715 -1.88937 17
      vertex -2.29201 -2.64512 17
      vertex -1.84185 -1.69044 17
    endloop
  endfacet
  facet normal 0 0 -1
    outer loop
      vertex -2.57859 -2.36661 17
      vertex -1.84185 -1.69044 17
      vertex -2.29201 -2.64512 17
    endloop
  endfacet
  facet normal -0 0 -1
    outer loop
      vertex -1.84185 -1.69044 17
      vertex -2.57859 -2.36661 17
      vertex -2.02254 -1.46946 17
    endloop
  endfacet
  facet normal 0 0 -1
    outer loop
      vertex -2.83156 -2.05725 17
      vertex -2.02254 -1.46946 17
      vertex -2.57859 -2.36661 17
    endloop
  endfacet
  facet normal -0 0 -1
    outer loop
      vertex -2.02254 -1.46946 17
      vertex -2.83156 -2.05725 17
      vertex -2.17686 -1.22933 17
    endloop
  endfacet
  facet normal 0 0 -1
    outer loop
      vertex -3.04761 -1.72106 17
      vertex -2.17686 -1.22933 17
      vertex -2.83156 -2.05725 17
    endloop
  endfacet
  facet normal -0 0 -1
    outer loop
      vertex -2.17686 -1.22933 17
      vertex -3.04761 -1.72106 17
      vertex -2.30281 -0.973175 17
    endloop
  endfacet
  facet normal -0 0 -1
    outer loop
      vertex -2.30281 -0.973175 17
      vertex -3.22393 -1.36244 17
      vertex -2.39873 -0.70433 17
    endloop
  endfacet
  facet normal 0 0 -1
    outer loop
      vertex -3.22393 -1.36244 17
      vertex -2.30281 -0.973175 17
      vertex -3.04761 -1.72106 17
    endloop
  endfacet
  facet normal -0 0 -1
    outer loop
      vertex 3.29645 1.17617 17
      vertex 2.35461 0.840123 17
      vertex 3.14089 1.54427 17
    endloop
  endfacet
  facet normal 0 0 -1
    outer loop
      vertex 2.2435 1.10305 17
      vertex 3.14089 1.54427 17
      vertex 2.35461 0.840123 17
    endloop
  endfacet
  facet normal -0 0 -1
    outer loop
      vertex 3.14089 1.54427 17
      vertex 2.2435 1.10305 17
      vertex 2.94439 1.89224 17
    endloop
  endfacet
  facet normal 0 0 -1
    outer loop
      vertex 2.10313 1.3516 17
      vertex 2.94439 1.89224 17
      vertex 2.2435 1.10305 17
    endloop
  endfacet
  facet normal -0 0 -1
    outer loop
      vertex 2.94439 1.89224 17
      vertex 2.10313 1.3516 17
      vertex 2.7095 2.21554 17
    endloop
  endfacet
  facet normal 0 0 -1
    outer loop
      vertex 1.93535 1.58253 17
      vertex 2.7095 2.21554 17
      vertex 2.10313 1.3516 17
    endloop
  endfacet
  facet normal -0 0 -1
    outer loop
      vertex 2.7095 2.21554 17
      vertex 1.93535 1.58253 17
      vertex 2.43928 2.50996 17
    endloop
  endfacet
  facet normal 0 0 -1
    outer loop
      vertex 1.74234 1.79283 17
      vertex 2.43928 2.50996 17
      vertex 1.93535 1.58253 17
    endloop
  endfacet
  facet normal -0 0 -1
    outer loop
      vertex 2.43928 2.50996 17
      vertex 1.74234 1.79283 17
      vertex 2.13727 2.77166 17
    endloop
  endfacet
  facet normal 0 0 -1
    outer loop
      vertex 1.52662 1.97976 17
      vertex 2.13727 2.77166 17
      vertex 1.74234 1.79283 17
    endloop
  endfacet
  facet normal -0 0 -1
    outer loop
      vertex 2.13727 2.77166 17
      vertex 1.52662 1.97976 17
      vertex 1.80739 2.99722 17
    endloop
  endfacet
  facet normal 0 0 -1
    outer loop
      vertex 1.29099 2.14087 17
      vertex 1.80739 2.99722 17
      vertex 1.52662 1.97976 17
    endloop
  endfacet
  facet normal -0 0 -1
    outer loop
      vertex 1.80739 2.99722 17
      vertex 1.29099 2.14087 17
      vertex 1.45395 3.18371 17
    endloop
  endfacet
  facet normal 0 0 -1
    outer loop
      vertex 1.03854 2.27408 17
      vertex 1.45395 3.18371 17
      vertex 1.29099 2.14087 17
    endloop
  endfacet
  facet normal -0 0 -1
    outer loop
      vertex 1.45395 3.18371 17
      vertex 1.03854 2.27408 17
      vertex 1.08156 3.3287 17
    endloop
  endfacet
  facet normal 0 0 -1
    outer loop
      vertex 0.772542 2.37764 17
      vertex 1.08156 3.3287 17
      vertex 1.03854 2.27408 17
    endloop
  endfacet
  facet normal 0 0 -1
    outer loop
      vertex 0.772542 2.37764 17
      vertex 0.695066 3.43029 17
      vertex 1.08156 3.3287 17
    endloop
  endfacet
  facet normal 0 0 -1
    outer loop
      vertex 0.496475 2.45021 17
      vertex 0.695066 3.43029 17
      vertex 0.772542 2.37764 17
    endloop
  endfacet
  facet normal 0 0 -1
    outer loop
      vertex 0.496475 2.45021 17
      vertex 0.299512 3.48716 17
      vertex 0.695066 3.43029 17
    endloop
  endfacet
  facet normal 0 0 -1
    outer loop
      vertex 0.213937 2.49083 17
      vertex 0.299512 3.48716 17
      vertex 0.496475 2.45021 17
    endloop
  endfacet
  facet normal 0 0 -1
    outer loop
      vertex -0.0713892 2.49898 17
      vertex 0.299512 3.48716 17
      vertex 0.213937 2.49083 17
    endloop
  endfacet
  facet normal 0 0 -1
    outer loop
      vertex -0.0713892 2.49898 17
      vertex -0.099946 3.49857 17
      vertex 0.299512 3.48716 17
    endloop
  endfacet
  facet normal 0 0 -1
    outer loop
      vertex -0.355786 2.47455 17
      vertex -0.099946 3.49857 17
      vertex -0.0713892 2.49898 17
    endloop
  endfacet
  facet normal 0 0 -1
    outer loop
      vertex -0.355786 2.47455 17
      vertex -0.498101 3.46437 17
      vertex -0.099946 3.49857 17
    endloop
  endfacet
  facet normal 0 0 -1
    outer loop
      vertex -0.635546 2.41787 17
      vertex -0.498101 3.46437 17
      vertex -0.355786 2.47455 17
    endloop
  endfacet
  facet normal 0 0 -1
    outer loop
      vertex -0.635546 2.41787 17
      vertex -0.889764 3.38501 17
      vertex -0.498101 3.46437 17
    endloop
  endfacet
  facet normal 0 0 -1
    outer loop
      vertex -0.907019 2.32966 17
      vertex -0.889764 3.38501 17
      vertex -0.635546 2.41787 17
    endloop
  endfacet
  facet normal 0 0 -1
    outer loop
      vertex -1.26983 3.26152 17
      vertex -0.907019 2.32966 17
      vertex -1.16667 2.21108 17
    endloop
  endfacet
  facet normal 0 0 -1
    outer loop
      vertex -0.907019 2.32966 17
      vertex -1.26983 3.26152 17
      vertex -0.889764 3.38501 17
    endloop
  endfacet
  facet normal 0 0 -1
    outer loop
      vertex -1.63334 3.09552 17
      vertex -1.16667 2.21108 17
      vertex -1.41111 2.06368 17
    endloop
  endfacet
  facet normal 0 0 -1
    outer loop
      vertex -1.16667 2.21108 17
      vertex -1.63334 3.09552 17
      vertex -1.26983 3.26152 17
    endloop
  endfacet
  facet normal 0 0 -1
    outer loop
      vertex -1.97555 2.88915 17
      vertex -1.41111 2.06368 17
      vertex -1.63715 1.88937 17
    endloop
  endfacet
  facet normal 0 0 -1
    outer loop
      vertex -2.29201 2.64512 17
      vertex -1.63715 1.88937 17
      vertex -1.84185 1.69044 17
    endloop
  endfacet
  facet normal 0 0 -1
    outer loop
      vertex -1.41111 2.06368 17
      vertex -1.97555 2.88915 17
      vertex -1.63334 3.09552 17
    endloop
  endfacet
  facet normal 0 0 -1
    outer loop
      vertex -2.57859 2.36661 17
      vertex -1.84185 1.69044 17
      vertex -2.02254 1.46946 17
    endloop
  endfacet
  facet normal 0 0 -1
    outer loop
      vertex -2.83156 2.05725 17
      vertex -2.02254 1.46946 17
      vertex -2.17686 1.22933 17
    endloop
  endfacet
  facet normal 0 0 -1
    outer loop
      vertex -1.63715 1.88937 17
      vertex -2.29201 2.64512 17
      vertex -1.97555 2.88915 17
    endloop
  endfacet
  facet normal 0 0 -1
    outer loop
      vertex -3.04761 1.72106 17
      vertex -2.17686 1.22933 17
      vertex -2.30281 0.973175 17
    endloop
  endfacet
  facet normal 0 0 -1
    outer loop
      vertex -3.22393 1.36244 17
      vertex -2.30281 0.973175 17
      vertex -2.39873 0.70433 17
    endloop
  endfacet
  facet normal 0 0 -1
    outer loop
      vertex -3.35822 0.986063 17
      vertex -2.39873 0.70433 17
      vertex -2.46338 0.426305 17
    endloop
  endfacet
  facet normal 0 0 -1
    outer loop
      vertex -3.44874 0.596828 17
      vertex -2.46338 0.426305 17
      vertex -2.49592 0.142721 17
    endloop
  endfacet
  facet normal 0 0 -1
    outer loop
      vertex -1.84185 1.69044 17
      vertex -2.57859 2.36661 17
      vertex -2.29201 2.64512 17
    endloop
  endfacet
  facet normal 0 0 -1
    outer loop
      vertex -3.35822 -0.986063 17
      vertex -2.39873 -0.70433 17
      vertex -3.22393 -1.36244 17
    endloop
  endfacet
  facet normal -0 0 -1
    outer loop
      vertex -2.39873 -0.70433 17
      vertex -3.35822 -0.986063 17
      vertex -2.46338 -0.426305 17
    endloop
  endfacet
  facet normal 0 0 -1
    outer loop
      vertex -2.02254 1.46946 17
      vertex -2.83156 2.05725 17
      vertex -2.57859 2.36661 17
    endloop
  endfacet
  facet normal 0 0 -1
    outer loop
      vertex -3.44874 -0.596828 17
      vertex -2.46338 -0.426305 17
      vertex -3.35822 -0.986063 17
    endloop
  endfacet
  facet normal 0 0 -1
    outer loop
      vertex -2.17686 1.22933 17
      vertex -3.04761 1.72106 17
      vertex -2.83156 2.05725 17
    endloop
  endfacet
  facet normal -0 0 -1
    outer loop
      vertex -2.46338 -0.426305 17
      vertex -3.44874 -0.596828 17
      vertex -2.49592 -0.142721 17
    endloop
  endfacet
  facet normal 0 0 -1
    outer loop
      vertex -2.30281 0.973175 17
      vertex -3.22393 1.36244 17
      vertex -3.04761 1.72106 17
    endloop
  endfacet
  facet normal 0 0 -1
    outer loop
      vertex -3.49429 -0.19981 17
      vertex -2.49592 -0.142721 17
      vertex -3.44874 -0.596828 17
    endloop
  endfacet
  facet normal 0 0 -1
    outer loop
      vertex -2.39873 0.70433 17
      vertex -3.35822 0.986063 17
      vertex -3.22393 1.36244 17
    endloop
  endfacet
  facet normal -0 0 -1
    outer loop
      vertex -2.49592 -0.142721 17
      vertex -3.49429 -0.19981 17
      vertex -2.49592 0.142721 17
    endloop
  endfacet
  facet normal 0 0 -1
    outer loop
      vertex -2.46338 0.426305 17
      vertex -3.44874 0.596828 17
      vertex -3.35822 0.986063 17
    endloop
  endfacet
  facet normal 0 0 -1
    outer loop
      vertex -3.49429 0.19981 17
      vertex -2.49592 0.142721 17
      vertex -3.49429 -0.19981 17
    endloop
  endfacet
  facet normal 0 0 -1
    outer loop
      vertex -2.49592 0.142721 17
      vertex -3.49429 0.19981 17
      vertex -3.44874 0.596828 17
    endloop
  endfacet
  facet normal -0.69694 0.71713 0
    outer loop
      vertex -1.63715 1.88937 2
      vertex -1.84185 1.69044 17
      vertex -1.63715 1.88937 17
    endloop
  endfacet
  facet normal -0.69694 0.71713 0
    outer loop
      vertex -1.84185 1.69044 17
      vertex -1.63715 1.88937 2
      vertex -1.84185 1.69044 2
    endloop
  endfacet
  facet normal -0.19859 0.980083 0
    outer loop
      vertex -0.355786 2.47455 2
      vertex -0.635546 2.41787 17
      vertex -0.355786 2.47455 17
    endloop
  endfacet
  facet normal -0.19859 0.980083 0
    outer loop
      vertex -0.635546 2.41787 17
      vertex -0.355786 2.47455 2
      vertex -0.635546 2.41787 2
    endloop
  endfacet
  facet normal -0.309018 0.951056 0
    outer loop
      vertex -0.635546 2.41787 2
      vertex -0.907019 2.32966 17
      vertex -0.635546 2.41787 17
    endloop
  endfacet
  facet normal -0.309018 0.951056 0
    outer loop
      vertex -0.907019 2.32966 17
      vertex -0.635546 2.41787 2
      vertex -0.907019 2.32966 2
    endloop
  endfacet
  facet normal 0.362808 -0.931864 0
    outer loop
      vertex 0.772542 -2.37764 2
      vertex 1.03854 -2.27408 17
      vertex 0.772542 -2.37764 17
    endloop
  endfacet
  facet normal 0.362808 -0.931864 0
    outer loop
      vertex 1.03854 -2.27408 17
      vertex 0.772542 -2.37764 2
      vertex 1.03854 -2.27408 2
    endloop
  endfacet
  facet normal 0.142314 -0.989822 0
    outer loop
      vertex 0.213937 -2.49083 2
      vertex 0.496475 -2.45021 17
      vertex 0.213937 -2.49083 17
    endloop
  endfacet
  facet normal 0.142314 -0.989822 0
    outer loop
      vertex 0.496475 -2.45021 17
      vertex 0.213937 -2.49083 2
      vertex 0.496475 -2.45021 2
    endloop
  endfacet
  facet normal 0.254218 -0.967147 0
    outer loop
      vertex 0.496475 -2.45021 2
      vertex 0.772542 -2.37764 17
      vertex 0.496475 -2.45021 17
    endloop
  endfacet
  facet normal 0.254218 -0.967147 0
    outer loop
      vertex 0.772542 -2.37764 17
      vertex 0.496475 -2.45021 2
      vertex 0.772542 -2.37764 2
    endloop
  endfacet
  facet normal 0.466668 -0.884433 0
    outer loop
      vertex 1.03854 -2.27408 2
      vertex 1.29099 -2.14087 17
      vertex 1.03854 -2.27408 17
    endloop
  endfacet
  facet normal 0.466668 -0.884433 0
    outer loop
      vertex 1.29099 -2.14087 17
      vertex 1.03854 -2.27408 2
      vertex 1.29099 -2.14087 2
    endloop
  endfacet
  facet normal 0.654861 -0.755749 0
    outer loop
      vertex 1.52662 -1.97976 2
      vertex 1.74234 -1.79283 17
      vertex 1.52662 -1.97976 17
    endloop
  endfacet
  facet normal 0.654861 -0.755749 0
    outer loop
      vertex 1.74234 -1.79283 17
      vertex 1.52662 -1.97976 2
      vertex 1.74234 -1.79283 2
    endloop
  endfacet
  facet normal 0.564442 -0.825473 0
    outer loop
      vertex 1.29099 -2.14087 2
      vertex 1.52662 -1.97976 17
      vertex 1.29099 -2.14087 17
    endloop
  endfacet
  facet normal 0.564442 -0.825473 0
    outer loop
      vertex 1.52662 -1.97976 17
      vertex 1.29099 -2.14087 2
      vertex 1.52662 -1.97976 2
    endloop
  endfacet
  facet normal 0.921124 -0.389269 0
    outer loop
      vertex 2.2435 -1.10305 17
      vertex 2.35461 -0.840123 2
      vertex 2.35461 -0.840123 17
    endloop
  endfacet
  facet normal 0.921124 -0.389269 0
    outer loop
      vertex 2.35461 -0.840123 2
      vertex 2.2435 -1.10305 17
      vertex 2.2435 -1.10305 2
    endloop
  endfacet
  facet normal 0.809017 -0.587785 0
    outer loop
      vertex 1.93535 -1.58253 17
      vertex 2.10313 -1.3516 2
      vertex 2.10313 -1.3516 17
    endloop
  endfacet
  facet normal 0.809017 -0.587785 0
    outer loop
      vertex 2.10313 -1.3516 2
      vertex 1.93535 -1.58253 17
      vertex 1.93535 -1.58253 2
    endloop
  endfacet
  facet normal 0.870745 -0.491734 0
    outer loop
      vertex 2.10313 -1.3516 17
      vertex 2.2435 -1.10305 2
      vertex 2.2435 -1.10305 17
    endloop
  endfacet
  facet normal 0.870745 -0.491734 0
    outer loop
      vertex 2.2435 -1.10305 2
      vertex 2.10313 -1.3516 17
      vertex 2.10313 -1.3516 2
    endloop
  endfacet
  facet normal -0.0855735 -0.996332 0
    outer loop
      vertex -0.355786 -2.47455 2
      vertex -0.0713892 -2.49898 17
      vertex -0.355786 -2.47455 17
    endloop
  endfacet
  facet normal -0.0855735 -0.996332 -0
    outer loop
      vertex -0.0713892 -2.49898 17
      vertex -0.355786 -2.47455 2
      vertex -0.0713892 -2.49898 2
    endloop
  endfacet
  facet normal -0.610648 -0.791902 0
    outer loop
      vertex -1.63715 -1.88937 2
      vertex -1.41111 -2.06368 17
      vertex -1.63715 -1.88937 17
    endloop
  endfacet
  facet normal -0.610648 -0.791902 -0
    outer loop
      vertex -1.41111 -2.06368 17
      vertex -1.63715 -1.88937 2
      vertex -1.41111 -2.06368 2
    endloop
  endfacet
  facet normal 0.0285559 -0.999592 0
    outer loop
      vertex -0.0713892 -2.49898 2
      vertex 0.213937 -2.49083 17
      vertex -0.0713892 -2.49898 17
    endloop
  endfacet
  facet normal 0.0285559 -0.999592 0
    outer loop
      vertex 0.213937 -2.49083 17
      vertex -0.0713892 -2.49898 2
      vertex 0.213937 -2.49083 2
    endloop
  endfacet
  facet normal -0.516395 -0.856351 0
    outer loop
      vertex -1.41111 -2.06368 2
      vertex -1.16667 -2.21108 17
      vertex -1.41111 -2.06368 17
    endloop
  endfacet
  facet normal -0.516395 -0.856351 -0
    outer loop
      vertex -1.16667 -2.21108 17
      vertex -1.41111 -2.06368 2
      vertex -1.16667 -2.21108 2
    endloop
  endfacet
  facet normal -0.69694 -0.71713 0
    outer loop
      vertex -1.84185 -1.69044 2
      vertex -1.63715 -1.88937 17
      vertex -1.84185 -1.69044 17
    endloop
  endfacet
  facet normal -0.69694 -0.71713 -0
    outer loop
      vertex -1.63715 -1.88937 17
      vertex -1.84185 -1.69044 2
      vertex -1.63715 -1.88937 2
    endloop
  endfacet
  facet normal -0.897398 -0.441222 0
    outer loop
      vertex -2.17686 -1.22933 2
      vertex -2.30281 -0.973175 17
      vertex -2.30281 -0.973175 2
    endloop
  endfacet
  facet normal -0.897398 -0.441222 0
    outer loop
      vertex -2.30281 -0.973175 17
      vertex -2.17686 -1.22933 2
      vertex -2.17686 -1.22933 17
    endloop
  endfacet
  facet normal -0.941845 -0.336049 0
    outer loop
      vertex -2.30281 -0.973175 2
      vertex -2.39873 -0.70433 17
      vertex -2.39873 -0.70433 2
    endloop
  endfacet
  facet normal -0.941845 -0.336049 0
    outer loop
      vertex -2.39873 -0.70433 17
      vertex -2.30281 -0.973175 2
      vertex -2.30281 -0.973175 17
    endloop
  endfacet
  facet normal -0.993482 -0.113992 0
    outer loop
      vertex -2.46338 -0.426305 2
      vertex -2.49592 -0.142721 17
      vertex -2.49592 -0.142721 2
    endloop
  endfacet
  facet normal -0.993482 -0.113992 0
    outer loop
      vertex -2.49592 -0.142721 17
      vertex -2.46338 -0.426305 2
      vertex -2.46338 -0.426305 17
    endloop
  endfacet
  facet normal 0.985354 0.170522 0
    outer loop
      vertex 2.4837 0.284978 17
      vertex 2.43503 0.566241 2
      vertex 2.43503 0.566241 17
    endloop
  endfacet
  facet normal 0.985354 0.170522 0
    outer loop
      vertex 2.43503 0.566241 2
      vertex 2.4837 0.284978 17
      vertex 2.4837 0.284978 2
    endloop
  endfacet
  facet normal 0.254218 0.967147 -0
    outer loop
      vertex 0.772542 2.37764 2
      vertex 0.496475 2.45021 17
      vertex 0.772542 2.37764 17
    endloop
  endfacet
  facet normal 0.254218 0.967147 0
    outer loop
      vertex 0.496475 2.45021 17
      vertex 0.772542 2.37764 2
      vertex 0.496475 2.45021 2
    endloop
  endfacet
  facet normal -0.415415 0.909632 0
    outer loop
      vertex -0.907019 2.32966 2
      vertex -1.16667 2.21108 17
      vertex -0.907019 2.32966 17
    endloop
  endfacet
  facet normal -0.415415 0.909632 0
    outer loop
      vertex -1.16667 2.21108 17
      vertex -0.907019 2.32966 2
      vertex -1.16667 2.21108 2
    endloop
  endfacet
  facet normal 0.985354 -0.170522 0
    outer loop
      vertex 2.43503 -0.566241 17
      vertex 2.4837 -0.284978 2
      vertex 2.4837 -0.284978 17
    endloop
  endfacet
  facet normal 0.985354 -0.170522 0
    outer loop
      vertex 2.4837 -0.284978 2
      vertex 2.43503 -0.566241 17
      vertex 2.43503 -0.566241 2
    endloop
  endfacet
  facet normal 0.998369 -0.0570915 0
    outer loop
      vertex 2.4837 -0.284978 17
      vertex 2.5 0 2
      vertex 2.5 0 17
    endloop
  endfacet
  facet normal 0.998369 -0.0570915 0
    outer loop
      vertex 2.5 0 2
      vertex 2.4837 -0.284978 17
      vertex 2.4837 -0.284978 2
    endloop
  endfacet
  facet normal -0.309018 -0.951056 0
    outer loop
      vertex -0.907019 -2.32966 2
      vertex -0.635546 -2.41787 17
      vertex -0.907019 -2.32966 17
    endloop
  endfacet
  facet normal -0.309018 -0.951056 -0
    outer loop
      vertex -0.635546 -2.41787 17
      vertex -0.907019 -2.32966 2
      vertex -0.635546 -2.41787 2
    endloop
  endfacet
  facet normal -0.841253 -0.540641 0
    outer loop
      vertex -2.02254 -1.46946 2
      vertex -2.17686 -1.22933 17
      vertex -2.17686 -1.22933 2
    endloop
  endfacet
  facet normal -0.841253 -0.540641 0
    outer loop
      vertex -2.17686 -1.22933 17
      vertex -2.02254 -1.46946 2
      vertex -2.02254 -1.46946 17
    endloop
  endfacet
  facet normal 0.818334 0.0467958 0.572834
    outer loop
      vertex 3.47719 0.39897 17
      vertex 0 0 22
      vertex 3.5 0 17
    endloop
  endfacet
  facet normal -0.735572 -0.361656 0.572834
    outer loop
      vertex 0 0 22
      vertex -3.22393 -1.36244 17
      vertex -3.04761 -1.72106 17
    endloop
  endfacet
  facet normal -0.162779 0.803346 0.572834
    outer loop
      vertex -0.498101 3.46437 17
      vertex -0.889764 3.38501 17
      vertex 0 0 22
    endloop
  endfacet
  facet normal 0.208375 -0.792743 0.572834
    outer loop
      vertex 1.08156 -3.3287 17
      vertex 0 0 22
      vertex 0.695066 -3.43029 17
    endloop
  endfacet
  facet normal -0.634541 0.518863 0.572834
    outer loop
      vertex -2.57859 2.36661 17
      vertex -2.83156 2.05725 17
      vertex 0 0 22
    endloop
  endfacet
  facet normal 0.462658 0.676616 0.572834
    outer loop
      vertex 1.80739 2.99722 17
      vertex 0 0 22
      vertex 2.13727 2.77166 17
    endloop
  endfacet
  facet normal -0.340503 -0.7456 0.572834
    outer loop
      vertex 0 0 22
      vertex -1.63334 -3.09552 17
      vertex -1.26983 -3.26152 17
    endloop
  endfacet
  facet normal 0.713725 -0.40306 0.572834
    outer loop
      vertex 3.14089 -1.54427 17
      vertex 0 0 22
      vertex 2.94439 -1.89224 17
    endloop
  endfacet
  facet normal -0.50053 0.6491 0.572834
    outer loop
      vertex -1.97555 2.88915 17
      vertex -2.29201 2.64512 17
      vertex 0 0 22
    endloop
  endfacet
  facet normal -0.798369 0.185654 0.572834
    outer loop
      vertex -3.35822 0.986063 17
      vertex -3.44874 0.596828 17
      vertex 0 0 22
    endloop
  endfacet
  facet normal 0.116652 0.811328 0.572834
    outer loop
      vertex 0.299512 3.48716 17
      vertex 0 0 22
      vertex 0.695066 3.43029 17
    endloop
  endfacet
  facet normal 0.663129 0.48179 0.572834
    outer loop
      vertex 2.7095 2.21554 17
      vertex 0 0 22
      vertex 2.94439 1.89224 17
    endloop
  endfacet
  facet normal -0.571261 0.587811 0.572834
    outer loop
      vertex -2.29201 2.64512 17
      vertex -2.57859 2.36661 17
      vertex 0 0 22
    endloop
  endfacet
  facet normal 0.0234067 0.819337 0.572834
    outer loop
      vertex 0.299512 3.48716 17
      vertex -0.099946 3.49857 17
      vertex 0 0 22
    endloop
  endfacet
  facet normal 0.603886 0.55424 0.572834
    outer loop
      vertex 2.43928 2.50996 17
      vertex 0 0 22
      vertex 2.7095 2.21554 17
    endloop
  endfacet
  facet normal 0.807666 0.139771 0.572834
    outer loop
      vertex 3.40904 0.792738 17
      vertex 0 0 22
      vertex 3.47719 0.39897 17
    endloop
  endfacet
  facet normal -0.798369 -0.185654 0.572834
    outer loop
      vertex 0 0 22
      vertex -3.44874 -0.596828 17
      vertex -3.35822 -0.986063 17
    endloop
  endfacet
  facet normal -0.689551 -0.443148 0.572834
    outer loop
      vertex 0 0 22
      vertex -3.04761 -1.72106 17
      vertex -2.83156 -2.05725 17
    endloop
  endfacet
  facet normal -0.423276 -0.701925 0.572834
    outer loop
      vertex 0 0 22
      vertex -1.97555 -2.88915 17
      vertex -1.63334 -3.09552 17
    endloop
  endfacet
  facet normal -0.253293 -0.779554 0.572834
    outer loop
      vertex 0 0 22
      vertex -1.26983 -3.26152 17
      vertex -0.889764 -3.38501 17
    endloop
  endfacet
  facet normal 0.0234067 -0.819337 0.572834
    outer loop
      vertex 0 0 22
      vertex -0.099946 -3.49857 17
      vertex 0.299512 -3.48716 17
    endloop
  endfacet
  facet normal 0.603886 -0.55424 0.572834
    outer loop
      vertex 2.7095 -2.21554 17
      vertex 0 0 22
      vertex 2.43928 -2.50996 17
    endloop
  endfacet
  facet normal -0.0701438 0.816665 0.572834
    outer loop
      vertex -0.099946 3.49857 17
      vertex -0.498101 3.46437 17
      vertex 0 0 22
    endloop
  endfacet
  facet normal -0.340503 0.7456 0.572834
    outer loop
      vertex -1.26983 3.26152 17
      vertex -1.63334 3.09552 17
      vertex 0 0 22
    endloop
  endfacet
  facet normal -0.253293 0.779554 0.572834
    outer loop
      vertex -0.889764 3.38501 17
      vertex -1.26983 3.26152 17
      vertex 0 0 22
    endloop
  endfacet
  facet normal -0.423276 0.701925 0.572834
    outer loop
      vertex -1.63334 3.09552 17
      vertex -1.97555 2.88915 17
      vertex 0 0 22
    endloop
  endfacet
  facet normal -0.735572 0.361656 0.572834
    outer loop
      vertex -3.04761 1.72106 17
      vertex -3.22393 1.36244 17
      vertex 0 0 22
    endloop
  endfacet
  facet normal -0.689551 0.443148 0.572834
    outer loop
      vertex -2.83156 2.05725 17
      vertex -3.04761 1.72106 17
      vertex 0 0 22
    endloop
  endfacet
  facet normal -0.772003 0.27545 0.572834
    outer loop
      vertex -3.22393 1.36244 17
      vertex -3.35822 0.986063 17
      vertex 0 0 22
    endloop
  endfacet
  facet normal -0.819671 0 0.572834
    outer loop
      vertex -3.49429 0.19981 17
      vertex -3.49429 -0.19981 17
      vertex 0 0 22
    endloop
  endfacet
  facet normal -0.814329 0.0934349 0.572834
    outer loop
      vertex -3.44874 0.596828 17
      vertex -3.49429 0.19981 17
      vertex 0 0 22
    endloop
  endfacet
  facet normal 0.536769 0.619467 0.572834
    outer loop
      vertex 2.13727 2.77166 17
      vertex 0 0 22
      vertex 2.43928 2.50996 17
    endloop
  endfacet
  facet normal 0.297384 0.763822 0.572834
    outer loop
      vertex 1.08156 3.3287 17
      vertex 0 0 22
      vertex 1.45395 3.18371 17
    endloop
  endfacet
  facet normal 0.382514 0.724945 0.572834
    outer loop
      vertex 1.45395 3.18371 17
      vertex 0 0 22
      vertex 1.80739 2.99722 17
    endloop
  endfacet
  facet normal 0.208375 0.792743 0.572834
    outer loop
      vertex 0.695066 3.43029 17
      vertex 0 0 22
      vertex 1.08156 3.3287 17
    endloop
  endfacet
  facet normal 0.713725 0.40306 0.572834
    outer loop
      vertex 2.94439 1.89224 17
      vertex 0 0 22
      vertex 3.14089 1.54427 17
    endloop
  endfacet
  facet normal 0.755019 0.319073 0.572834
    outer loop
      vertex 3.14089 1.54427 17
      vertex 0 0 22
      vertex 3.29645 1.17617 17
    endloop
  endfacet
  facet normal 0.786469 0.230929 0.572834
    outer loop
      vertex 3.29645 1.17617 17
      vertex 0 0 22
      vertex 3.40904 0.792738 17
    endloop
  endfacet
  facet normal -0.772003 -0.27545 0.572834
    outer loop
      vertex 0 0 22
      vertex -3.35822 -0.986063 17
      vertex -3.22393 -1.36244 17
    endloop
  endfacet
  facet normal -0.814329 -0.0934349 0.572834
    outer loop
      vertex 0 0 22
      vertex -3.49429 -0.19981 17
      vertex -3.44874 -0.596828 17
    endloop
  endfacet
  facet normal -0.571261 -0.587811 0.572834
    outer loop
      vertex 0 0 22
      vertex -2.57859 -2.36661 17
      vertex -2.29201 -2.64512 17
    endloop
  endfacet
  facet normal -0.634541 -0.518863 0.572834
    outer loop
      vertex 0 0 22
      vertex -2.83156 -2.05725 17
      vertex -2.57859 -2.36661 17
    endloop
  endfacet
  facet normal -0.50053 -0.6491 0.572834
    outer loop
      vertex 0 0 22
      vertex -2.29201 -2.64512 17
      vertex -1.97555 -2.88915 17
    endloop
  endfacet
  facet normal -0.0701438 -0.816665 0.572834
    outer loop
      vertex 0 0 22
      vertex -0.498101 -3.46437 17
      vertex -0.099946 -3.49857 17
    endloop
  endfacet
  facet normal -0.162779 -0.803346 0.572834
    outer loop
      vertex 0 0 22
      vertex -0.889764 -3.38501 17
      vertex -0.498101 -3.46437 17
    endloop
  endfacet
  facet normal 0.116652 -0.811328 0.572834
    outer loop
      vertex 0.695066 -3.43029 17
      vertex 0 0 22
      vertex 0.299512 -3.48716 17
    endloop
  endfacet
  facet normal 0.536769 -0.619467 0.572834
    outer loop
      vertex 2.43928 -2.50996 17
      vertex 0 0 22
      vertex 2.13727 -2.77166 17
    endloop
  endfacet
  facet normal 0.462658 -0.676616 0.572834
    outer loop
      vertex 2.13727 -2.77166 17
      vertex 0 0 22
      vertex 1.80739 -2.99722 17
    endloop
  endfacet
  facet normal 0.382514 -0.724945 0.572834
    outer loop
      vertex 1.80739 -2.99722 17
      vertex 0 0 22
      vertex 1.45395 -3.18371 17
    endloop
  endfacet
  facet normal 0.297384 -0.763822 0.572834
    outer loop
      vertex 1.45395 -3.18371 17
      vertex 0 0 22
      vertex 1.08156 -3.3287 17
    endloop
  endfacet
  facet normal 0.663129 -0.48179 0.572834
    outer loop
      vertex 2.94439 -1.89224 17
      vertex 0 0 22
      vertex 2.7095 -2.21554 17
    endloop
  endfacet
  facet normal 0.818334 -0.0467958 0.572834
    outer loop
      vertex 3.5 0 17
      vertex 0 0 22
      vertex 3.47719 -0.39897 17
    endloop
  endfacet
  facet normal 0.807666 -0.139771 0.572834
    outer loop
      vertex 3.47719 -0.39897 17
      vertex 0 0 22
      vertex 3.40904 -0.792738 17
    endloop
  endfacet
  facet normal 0.786469 -0.230929 0.572834
    outer loop
      vertex 3.40904 -0.792738 17
      vertex 0 0 22
      vertex 3.29645 -1.17617 17
    endloop
  endfacet
  facet normal 0.755019 -0.319073 0.572834
    outer loop
      vertex 3.29645 -1.17617 17
      vertex 0 0 22
      vertex 3.14089 -1.54427 17
    endloop
  endfacet
endsolid OpenSCAD_Model
