solid E227
facet normal -0.9512084126472473 -0.3085491955280304 0
  outer loop
    vertex 96.71399688720703 -22.91829109191895 1.600000023841858
    vertex 97 -23.79999351501465 0
    vertex 97 -23.79999351501465 1.600000023841858
  endloop
endfacet
facet normal -0.9512084126472473 -0.3085491955280304 0
  outer loop
    vertex 97 -23.79999351501465 0
    vertex 96.71399688720703 -22.91829109191895 1.600000023841858
    vertex 96.71399688720703 -22.91829109191895 0
  endloop
endfacet
facet normal 0.4537014067173004 -0.8911537528038025 0
  outer loop
    vertex 94 -26.23879241943359 1.600000023841858
    vertex 93.73660278320313 -26.37289237976074 0
    vertex 94 -26.23879241943359 0
  endloop
endfacet
facet normal 0.4537014067173004 -0.8911537528038025 0
  outer loop
    vertex 93.73660278320313 -26.37289237976074 0
    vertex 94 -26.23879241943359 1.600000023841858
    vertex 93.73660278320313 -26.37289237976074 1.600000023841858
  endloop
endfacet
facet normal 0.5877796411514282 -0.8090210556983948 0
  outer loop
    vertex 95.0364990234375 -22.37339210510254 1.600000023841858
    vertex 94.2864990234375 -22.91829109191895 0
    vertex 95.0364990234375 -22.37339210510254 0
  endloop
endfacet
facet normal 0.5877796411514282 -0.8090210556983948 0
  outer loop
    vertex 94.2864990234375 -22.91829109191895 0
    vertex 95.0364990234375 -22.37339210510254 1.600000023841858
    vertex 94.2864990234375 -22.91829109191895 1.600000023841858
  endloop
endfacet
facet normal -0.4542446732521057 -0.8908769488334656 0
  outer loop
    vertex 97.26300048828125 -26.37289237976074 1.600000023841858
    vertex 97 -26.23879241943359 0
    vertex 97.26300048828125 -26.37289237976074 0
  endloop
endfacet
facet normal -0.4542446732521057 -0.8908769488334656 0
  outer loop
    vertex 97 -26.23879241943359 0
    vertex 97.26300048828125 -26.37289237976074 1.600000023841858
    vertex 97 -26.23879241943359 1.600000023841858
  endloop
endfacet
facet normal 0.951050877571106 0.3090343475341797 0
  outer loop
    vertex 94 -33.79999542236328 0
    vertex 94.2864990234375 -34.68169403076172 1.600000023841858
    vertex 94.2864990234375 -34.68169403076172 0
  endloop
endfacet
facet normal 0.951050877571106 0.3090343475341797 0
  outer loop
    vertex 94.2864990234375 -34.68169403076172 1.600000023841858
    vertex 94 -33.79999542236328 0
    vertex 94 -33.79999542236328 1.600000023841858
  endloop
endfacet
facet normal -0.5875253677368164 -0.8092057704925537 0
  outer loop
    vertex 96.71399688720703 -22.91829109191895 1.600000023841858
    vertex 95.9635009765625 -22.37339210510254 0
    vertex 96.71399688720703 -22.91829109191895 0
  endloop
endfacet
facet normal -0.5875253677368164 -0.8092057704925537 0
  outer loop
    vertex 95.9635009765625 -22.37339210510254 0
    vertex 96.71399688720703 -22.91829109191895 1.600000023841858
    vertex 95.9635009765625 -22.37339210510254 1.600000023841858
  endloop
endfacet
facet normal 0.9510512948036194 -0.3090331256389618 0
  outer loop
    vertex 94.2864990234375 -22.91829109191895 0
    vertex 94 -23.79999351501465 1.600000023841858
    vertex 94 -23.79999351501465 0
  endloop
endfacet
facet normal 0.9510512948036194 -0.3090331256389618 0
  outer loop
    vertex 94 -23.79999351501465 1.600000023841858
    vertex 94.2864990234375 -22.91829109191895 0
    vertex 94.2864990234375 -22.91829109191895 1.600000023841858
  endloop
endfacet
facet normal 1 0 0
  outer loop
    vertex 94 -23.79999351501465 0
    vertex 94 -26.23879241943359 1.600000023841858
    vertex 94 -26.23879241943359 0
  endloop
endfacet
facet normal 1 0 0
  outer loop
    vertex 94 -26.23879241943359 1.600000023841858
    vertex 94 -23.79999351501465 0
    vertex 94 -23.79999351501465 1.600000023841858
  endloop
endfacet
facet normal -1 0 0
  outer loop
    vertex 97 -31.36119270324707 1.600000023841858
    vertex 97 -33.79999542236328 0
    vertex 97 -33.79999542236328 1.600000023841858
  endloop
endfacet
facet normal -1 0 0
  outer loop
    vertex 97 -33.79999542236328 0
    vertex 97 -31.36119270324707 1.600000023841858
    vertex 97 -31.36119270324707 0
  endloop
endfacet
facet normal 0.7071047425270081 0.7071087956428528 0
  outer loop
    vertex 93.07289886474609 -30.56339263916016 1.600000023841858
    vertex 93.73660278320313 -31.22709274291992 0
    vertex 93.07289886474609 -30.56339263916016 0
  endloop
endfacet
facet normal 0.7071047425270081 0.7071087956428528 0
  outer loop
    vertex 93.73660278320313 -31.22709274291992 0
    vertex 93.07289886474609 -30.56339263916016 1.600000023841858
    vertex 93.73660278320313 -31.22709274291992 1.600000023841858
  endloop
endfacet
facet normal 0.4537014067173004 0.8911537528038025 0
  outer loop
    vertex 93.73660278320313 -31.22709274291992 1.600000023841858
    vertex 94 -31.36119270324707 0
    vertex 93.73660278320313 -31.22709274291992 0
  endloop
endfacet
facet normal 0.4537014067173004 0.8911537528038025 0
  outer loop
    vertex 94 -31.36119270324707 0
    vertex 93.73660278320313 -31.22709274291992 1.600000023841858
    vertex 94 -31.36119270324707 1.600000023841858
  endloop
endfacet
facet normal 0 1 0
  outer loop
    vertex 95.0364990234375 -35.22659301757813 1.600000023841858
    vertex 95.9635009765625 -35.22659301757813 0
    vertex 95.0364990234375 -35.22659301757813 0
  endloop
endfacet
facet normal 0 1 0
  outer loop
    vertex 95.9635009765625 -35.22659301757813 0
    vertex 95.0364990234375 -35.22659301757813 1.600000023841858
    vertex 95.9635009765625 -35.22659301757813 1.600000023841858
  endloop
endfacet
facet normal -0.7069462537765503 -0.7072672843933105 0
  outer loop
    vertex 97.927001953125 -27.03659248352051 1.600000023841858
    vertex 97.26300048828125 -26.37289237976074 0
    vertex 97.927001953125 -27.03659248352051 0
  endloop
endfacet
facet normal -0.7069462537765503 -0.7072672843933105 0
  outer loop
    vertex 97.26300048828125 -26.37289237976074 0
    vertex 97.927001953125 -27.03659248352051 1.600000023841858
    vertex 97.26300048828125 -26.37289237976074 1.600000023841858
  endloop
endfacet
facet normal 0.8910127282142639 -0.4539783298969269 -2.314843230738568e-19
  outer loop
    vertex 93.07289886474609 -27.03659248352051 0
    vertex 92.64679718017578 -27.87289237976074 1.600000023841858
    vertex 92.64679718017578 -27.87289237976074 1.762479025122656e-16
  endloop
endfacet
facet normal 0.8910127282142639 -0.4539783298969269 -2.314843230738568e-19
  outer loop
    vertex 92.64679718017578 -27.87289237976074 1.600000023841858
    vertex 93.07289886474609 -27.03659248352051 0
    vertex 93.07289886474609 -27.03659248352051 1.600000023841858
  endloop
endfacet
facet normal 0.7071047425270081 -0.7071087956428528 0
  outer loop
    vertex 93.73660278320313 -26.37289237976074 1.600000023841858
    vertex 93.07289886474609 -27.03659248352051 0
    vertex 93.73660278320313 -26.37289237976074 0
  endloop
endfacet
facet normal 0.7071047425270081 -0.7071087956428528 0
  outer loop
    vertex 93.07289886474609 -27.03659248352051 0
    vertex 93.73660278320313 -26.37289237976074 1.600000023841858
    vertex 93.07289886474609 -27.03659248352051 1.600000023841858
  endloop
endfacet
facet normal 0 -1 0
  outer loop
    vertex 95.9635009765625 -22.37339210510254 1.600000023841858
    vertex 95.0364990234375 -22.37339210510254 0
    vertex 95.9635009765625 -22.37339210510254 0
  endloop
endfacet
facet normal 0 -1 0
  outer loop
    vertex 95.0364990234375 -22.37339210510254 0
    vertex 95.9635009765625 -22.37339210510254 1.600000023841858
    vertex 95.0364990234375 -22.37339210510254 1.600000023841858
  endloop
endfacet
facet normal -0.7069462537765503 0.7072672843933105 0
  outer loop
    vertex 97.26300048828125 -31.22709274291992 1.600000023841858
    vertex 97.927001953125 -30.56339263916016 0
    vertex 97.26300048828125 -31.22709274291992 0
  endloop
endfacet
facet normal -0.7069462537765503 0.7072672843933105 0
  outer loop
    vertex 97.927001953125 -30.56339263916016 0
    vertex 97.26300048828125 -31.22709274291992 1.600000023841858
    vertex 97.927001953125 -30.56339263916016 1.600000023841858
  endloop
endfacet
facet normal -0.4542446732521057 0.8908769488334656 0
  outer loop
    vertex 97 -31.36119270324707 1.600000023841858
    vertex 97.26300048828125 -31.22709274291992 0
    vertex 97 -31.36119270324707 0
  endloop
endfacet
facet normal -0.4542446732521057 0.8908769488334656 0
  outer loop
    vertex 97.26300048828125 -31.22709274291992 0
    vertex 97 -31.36119270324707 1.600000023841858
    vertex 97.26300048828125 -31.22709274291992 1.600000023841858
  endloop
endfacet
facet normal -0.8910587430000305 -0.4538879692554474 0
  outer loop
    vertex 97.927001953125 -27.03659248352051 1.600000023841858
    vertex 98.35299682617188 -27.87289237976074 0
    vertex 98.35299682617188 -27.87289237976074 1.600000023841858
  endloop
endfacet
facet normal -0.8910587430000305 -0.4538879692554474 0
  outer loop
    vertex 98.35299682617188 -27.87289237976074 0
    vertex 97.927001953125 -27.03659248352051 1.600000023841858
    vertex 97.927001953125 -27.03659248352051 0
  endloop
endfacet
facet normal 0.9876950979232788 0.1563919484615326 -2.473654256928084e-18
  outer loop
    vertex 92.5 -28.79999351501465 1.762479025122656e-16
    vertex 92.64679718017578 -29.72709274291992 1.600000023841858
    vertex 92.64679718017578 -29.72709274291992 3.524958050245313e-16
  endloop
endfacet
facet normal 0.9876950979232788 0.1563919484615326 -2.473654256928084e-18
  outer loop
    vertex 92.64679718017578 -29.72709274291992 1.600000023841858
    vertex 92.5 -28.79999351501465 1.762479025122656e-16
    vertex 92.5 -28.79999351501465 1.600000023841858
  endloop
endfacet
facet normal -0.9876611828804016 -0.1566057056188583 0
  outer loop
    vertex 98.35299682617188 -27.87289237976074 1.600000023841858
    vertex 98.5 -28.79999351501465 0
    vertex 98.5 -28.79999351501465 1.600000023841858
  endloop
endfacet
facet normal -0.9876611828804016 -0.1566057056188583 0
  outer loop
    vertex 98.5 -28.79999351501465 0
    vertex 98.35299682617188 -27.87289237976074 1.600000023841858
    vertex 98.35299682617188 -27.87289237976074 0
  endloop
endfacet
facet normal 0.8910127282142639 0.4539783298969269 -4.629686461477137e-19
  outer loop
    vertex 92.64679718017578 -29.72709274291992 3.524958050245313e-16
    vertex 93.07289886474609 -30.56339263916016 1.600000023841858
    vertex 93.07289886474609 -30.56339263916016 0
  endloop
endfacet
facet normal 0.8910127282142639 0.4539783298969269 -4.629686461477137e-19
  outer loop
    vertex 93.07289886474609 -30.56339263916016 1.600000023841858
    vertex 92.64679718017578 -29.72709274291992 3.524958050245313e-16
    vertex 92.64679718017578 -29.72709274291992 1.600000023841858
  endloop
endfacet
facet normal -1 0 0
  outer loop
    vertex 97 -23.79999351501465 1.600000023841858
    vertex 97 -26.23879241943359 0
    vertex 97 -26.23879241943359 1.600000023841858
  endloop
endfacet
facet normal -1 0 0
  outer loop
    vertex 97 -26.23879241943359 0
    vertex 97 -23.79999351501465 1.600000023841858
    vertex 97 -23.79999351501465 0
  endloop
endfacet
facet normal 1 0 0
  outer loop
    vertex 94 -31.36119270324707 0
    vertex 94 -33.79999542236328 1.600000023841858
    vertex 94 -33.79999542236328 0
  endloop
endfacet
facet normal 1 0 0
  outer loop
    vertex 94 -33.79999542236328 1.600000023841858
    vertex 94 -31.36119270324707 0
    vertex 94 -31.36119270324707 1.600000023841858
  endloop
endfacet
facet normal -0.9512079954147339 0.3085503876209259 0
  outer loop
    vertex 97 -33.79999542236328 1.600000023841858
    vertex 96.71399688720703 -34.68169403076172 0
    vertex 96.71399688720703 -34.68169403076172 1.600000023841858
  endloop
endfacet
facet normal -0.9512079954147339 0.3085503876209259 0
  outer loop
    vertex 96.71399688720703 -34.68169403076172 0
    vertex 97 -33.79999542236328 1.600000023841858
    vertex 97 -33.79999542236328 0
  endloop
endfacet
facet normal -0.8910587430000305 0.4538879692554474 0
  outer loop
    vertex 98.35299682617188 -29.72709274291992 1.600000023841858
    vertex 97.927001953125 -30.56339263916016 0
    vertex 97.927001953125 -30.56339263916016 1.600000023841858
  endloop
endfacet
facet normal -0.8910587430000305 0.4538879692554474 0
  outer loop
    vertex 97.927001953125 -30.56339263916016 0
    vertex 98.35299682617188 -29.72709274291992 1.600000023841858
    vertex 98.35299682617188 -29.72709274291992 0
  endloop
endfacet
facet normal 0.5877810120582581 0.8090201020240784 0
  outer loop
    vertex 94.2864990234375 -34.68169403076172 1.600000023841858
    vertex 95.0364990234375 -35.22659301757813 0
    vertex 94.2864990234375 -34.68169403076172 0
  endloop
endfacet
facet normal 0.5877810120582581 0.8090201020240784 0
  outer loop
    vertex 95.0364990234375 -35.22659301757813 0
    vertex 94.2864990234375 -34.68169403076172 1.600000023841858
    vertex 95.0364990234375 -35.22659301757813 1.600000023841858
  endloop
endfacet
facet normal -0.9876611232757568 0.1566060185432434 0
  outer loop
    vertex 98.5 -28.79999351501465 1.600000023841858
    vertex 98.35299682617188 -29.72709274291992 0
    vertex 98.35299682617188 -29.72709274291992 1.600000023841858
  endloop
endfacet
facet normal -0.9876611232757568 0.1566060185432434 0
  outer loop
    vertex 98.35299682617188 -29.72709274291992 0
    vertex 98.5 -28.79999351501465 1.600000023841858
    vertex 98.5 -28.79999351501465 0
  endloop
endfacet
facet normal -0.5875267386436462 0.8092047572135925 0
  outer loop
    vertex 95.9635009765625 -35.22659301757813 1.600000023841858
    vertex 96.71399688720703 -34.68169403076172 0
    vertex 95.9635009765625 -35.22659301757813 0
  endloop
endfacet
facet normal -0.5875267386436462 0.8092047572135925 0
  outer loop
    vertex 96.71399688720703 -34.68169403076172 0
    vertex 95.9635009765625 -35.22659301757813 1.600000023841858
    vertex 96.71399688720703 -34.68169403076172 1.600000023841858
  endloop
endfacet
facet normal 0.9876950979232788 -0.1563916355371475 -7.670273201686127e-31
  outer loop
    vertex 92.64679718017578 -27.87289237976074 1.762479025122656e-16
    vertex 92.5 -28.79999351501465 1.600000023841858
    vertex 92.5 -28.79999351501465 1.762479025122656e-16
  endloop
endfacet
facet normal 0.9876950979232788 -0.1563916355371475 -7.670273201686127e-31
  outer loop
    vertex 92.5 -28.79999351501465 1.600000023841858
    vertex 92.64679718017578 -27.87289237976074 1.762479025122656e-16
    vertex 92.64679718017578 -27.87289237976074 1.600000023841858
  endloop
endfacet
facet normal -0 -1 -0
  outer loop
    vertex 22.60000038146973 -4.79999828338623 1.600000023841858
    vertex 9.600000381469727 -4.79999828338623 -8.459899108830514e-15
    vertex 22.60000038146973 -4.79999828338623 -8.459899108830514e-15
  endloop
endfacet
facet normal -0 -1 -0
  outer loop
    vertex 9.600000381469727 -4.79999828338623 -8.459899108830514e-15
    vertex 22.60000038146973 -4.79999828338623 1.600000023841858
    vertex 9.600000381469727 -4.79999828338623 1.600000023841858
  endloop
endfacet
facet normal 0 1 0
  outer loop
    vertex 9.600000381469727 -52.79999923706055 1.600000023841858
    vertex 22.60000038146973 -52.79999923706055 -8.459899108830514e-15
    vertex 9.600000381469727 -52.79999923706055 -8.459899108830514e-15
  endloop
endfacet
facet normal 0 1 0
  outer loop
    vertex 22.60000038146973 -52.79999923706055 -8.459899108830514e-15
    vertex 9.600000381469727 -52.79999923706055 1.600000023841858
    vertex 22.60000038146973 -52.79999923706055 1.600000023841858
  endloop
endfacet
facet normal 1 6.40901457665107e-17 0
  outer loop
    vertex 9.600000381469727 -4.79999828338623 -8.459899108830514e-15
    vertex 9.600000381469727 -52.79999923706055 1.600000023841858
    vertex 9.600000381469727 -52.79999923706055 -8.459899108830514e-15
  endloop
endfacet
facet normal 1 6.40901457665107e-17 0
  outer loop
    vertex 9.600000381469727 -52.79999923706055 1.600000023841858
    vertex 9.600000381469727 -4.79999828338623 -8.459899108830514e-15
    vertex 9.600000381469727 -4.79999828338623 1.600000023841858
  endloop
endfacet
facet normal -1 0 0
  outer loop
    vertex 22.60000038146973 -4.79999828338623 1.600000023841858
    vertex 22.60000038146973 -52.79999923706055 -8.459899108830514e-15
    vertex 22.60000038146973 -52.79999923706055 1.600000023841858
  endloop
endfacet
facet normal -1 0 0
  outer loop
    vertex 22.60000038146973 -52.79999923706055 -8.459899108830514e-15
    vertex 22.60000038146973 -4.79999828338623 1.600000023841858
    vertex 22.60000038146973 -4.79999828338623 -8.459899108830514e-15
  endloop
endfacet
facet normal -0 -1 -0
  outer loop
    vertex 73.443359375 -3 5.980000019073486
    vertex 17.443359375 -3 4.380000114440918
    vertex 73.443359375 -3 4.380000114440918
  endloop
endfacet
facet normal -0 -1 -0
  outer loop
    vertex 17.443359375 -3 4.380000114440918
    vertex 73.443359375 -3 5.980000019073486
    vertex 17.443359375 -3 5.980000019073486
  endloop
endfacet
facet normal 0.7071067690849304 -0.7071067690849304 -3.829339339841146e-16
  outer loop
    vertex 74.84336090087891 -1.599998474121094 4.380000114440918
    vertex 73.443359375 -3 5.980000019073486
    vertex 73.443359375 -3 4.380000114440918
  endloop
endfacet
facet normal 0.7071067690849304 -0.7071067690849304 -3.829339339841146e-16
  outer loop
    vertex 73.443359375 -3 5.980000019073486
    vertex 74.84336090087891 -1.599998474121094 4.380000114440918
    vertex 76.443359375 -7.105427357601002e-15 5.980000019073486
  endloop
endfacet
facet normal 0.7071067690849304 -0.7071067690849304 -3.829339339841146e-16
  outer loop
    vertex 76.443359375 -7.105427357601002e-15 5.980000019073486
    vertex 74.84336090087891 -1.599998474121094 4.380000114440918
    vertex 76.443359375 -7.105427357601002e-15 4.380000114440918
  endloop
endfacet
facet normal 0 0 1
  outer loop
    vertex 17.443359375 -3 5.980000019073486
    vertex 76.443359375 -7.105427357601002e-15 5.980000019073486
    vertex 14.44335842132568 -7.105427357601002e-15 5.980000019073486
  endloop
endfacet
facet normal 0 0 1
  outer loop
    vertex 76.443359375 -7.105427357601002e-15 5.980000019073486
    vertex 17.443359375 -3 5.980000019073486
    vertex 73.443359375 -3 5.980000019073486
  endloop
endfacet
facet normal -0.7071067690849304 -0.7071067690849304 1.254671788285169e-15
  outer loop
    vertex 14.44335842132568 -7.105427357601002e-15 5.980000019073486
    vertex 17.443359375 -3 4.380000114440918
    vertex 17.443359375 -3 5.980000019073486
  endloop
endfacet
facet normal -0.7071067690849304 -0.7071067690849304 1.254671788285169e-15
  outer loop
    vertex 17.443359375 -3 4.380000114440918
    vertex 14.44335842132568 -7.105427357601002e-15 5.980000019073486
    vertex 16.04335784912109 -1.599998474121094 4.380000114440918
  endloop
endfacet
facet normal -0.7071067690849304 -0.7071067690849304 1.254671788285169e-15
  outer loop
    vertex 16.04335784912109 -1.599998474121094 4.380000114440918
    vertex 14.44335842132568 -7.105427357601002e-15 5.980000019073486
    vertex 14.44335842132568 -7.105427357601002e-15 4.380000114440918
  endloop
endfacet
facet normal 0 0 1
  outer loop
    vertex 76.443359375 -57.59999847412109 5.980000019073486
    vertex 17.443359375 -54.59999847412109 5.980000019073486
    vertex 14.44335842132568 -57.59999847412109 5.980000019073486
  endloop
endfacet
facet normal 0 0 1
  outer loop
    vertex 17.443359375 -54.59999847412109 5.980000019073486
    vertex 76.443359375 -57.59999847412109 5.980000019073486
    vertex 73.443359375 -54.59999847412109 5.980000019073486
  endloop
endfacet
facet normal -0.7071067690849304 0.7071067690849304 -3.604084162408665e-17
  outer loop
    vertex 14.44335842132568 -57.59999847412109 5.980000019073486
    vertex 16.04335784912109 -56 4.380000114440918
    vertex 14.44335842132568 -57.59999847412109 4.380000114440918
  endloop
endfacet
facet normal -0.7071067690849304 0.7071067690849304 -3.604084162408665e-17
  outer loop
    vertex 16.04335784912109 -56 4.380000114440918
    vertex 14.44335842132568 -57.59999847412109 5.980000019073486
    vertex 17.443359375 -54.59999847412109 4.380000114440918
  endloop
endfacet
facet normal -0.7071067690849304 0.7071067690849304 -3.604084162408665e-17
  outer loop
    vertex 17.443359375 -54.59999847412109 4.380000114440918
    vertex 14.44335842132568 -57.59999847412109 5.980000019073486
    vertex 17.443359375 -54.59999847412109 5.980000019073486
  endloop
endfacet
facet normal 0.7071067690849304 0.7071067690849304 7.163117289330835e-16
  outer loop
    vertex 74.84336090087891 -56 4.380000114440918
    vertex 76.443359375 -57.59999847412109 5.980000019073486
    vertex 76.443359375 -57.59999847412109 4.380000114440918
  endloop
endfacet
facet normal 0.7071067690849304 0.7071067690849304 7.163117289330835e-16
  outer loop
    vertex 76.443359375 -57.59999847412109 5.980000019073486
    vertex 74.84336090087891 -56 4.380000114440918
    vertex 73.443359375 -54.59999847412109 5.980000019073486
  endloop
endfacet
facet normal 0.7071067690849304 0.7071067690849304 7.163117289330835e-16
  outer loop
    vertex 73.443359375 -54.59999847412109 5.980000019073486
    vertex 74.84336090087891 -56 4.380000114440918
    vertex 73.443359375 -54.59999847412109 4.380000114440918
  endloop
endfacet
facet normal 0 1 0
  outer loop
    vertex 17.443359375 -54.59999847412109 5.980000019073486
    vertex 73.443359375 -54.59999847412109 4.380000114440918
    vertex 17.443359375 -54.59999847412109 4.380000114440918
  endloop
endfacet
facet normal 0 1 0
  outer loop
    vertex 73.443359375 -54.59999847412109 4.380000114440918
    vertex 17.443359375 -54.59999847412109 5.980000019073486
    vertex 73.443359375 -54.59999847412109 5.980000019073486
  endloop
endfacet
facet normal 0 1 0
  outer loop
    vertex 35 -42.09999847412109 1.899999976158142
    vertex 64.09999847412109 -42.09999847412109 1.600000023841858
    vertex 35 -42.09999847412109 1.600000023841858
  endloop
endfacet
facet normal 0 1 0
  outer loop
    vertex 64.09999847412109 -42.09999847412109 1.600000023841858
    vertex 35 -42.09999847412109 1.899999976158142
    vertex 64.09999847412109 -42.09999847412109 1.899999976158142
  endloop
endfacet
facet normal -1 0 0
  outer loop
    vertex 79.09999847412109 -8 1.600000023841858
    vertex 79.09999847412109 -11.19999694824219 0
    vertex 79.09999847412109 -11.19999694824219 1.600000023841858
  endloop
endfacet
facet normal -1 0 0
  outer loop
    vertex 79.09999847412109 -11.19999694824219 0
    vertex 79.09999847412109 -8 1.600000023841858
    vertex 79.09999847412109 -8 0
  endloop
endfacet
facet normal 6.0251339509995e-17 -1.837205198171717e-16 1
  outer loop
    vertex 76.443359375 -57.59999847412109 4.380000114440918
    vertex 88.09999847412109 -56 4.380000114440918
    vertex 74.84336090087891 -56 4.380000114440918
  endloop
endfacet
facet normal 6.0251339509995e-17 -1.837205198171717e-16 1
  outer loop
    vertex 88.09999847412109 -56 4.380000114440918
    vertex 76.443359375 -57.59999847412109 4.380000114440918
    vertex 89.59999847412109 -57.59999847412109 4.380000114440918
  endloop
endfacet
facet normal 6.0251339509995e-17 -1.837205198171717e-16 1
  outer loop
    vertex 88.09999847412109 -56 4.380000114440918
    vertex 89.59999847412109 -57.59999847412109 4.380000114440918
    vertex 88.09999847412109 -1.599998474121094 4.380000114440918
  endloop
endfacet
facet normal 6.0251339509995e-17 -1.837205198171717e-16 1
  outer loop
    vertex 88.09999847412109 -1.599998474121094 4.380000114440918
    vertex 76.443359375 -7.105427357601002e-15 4.380000114440918
    vertex 74.84336090087891 -1.599998474121094 4.380000114440918
  endloop
endfacet
facet normal 6.0251339509995e-17 -1.837205198171717e-16 1
  outer loop
    vertex 76.443359375 -7.105427357601002e-15 4.380000114440918
    vertex 88.09999847412109 -1.599998474121094 4.380000114440918
    vertex 89.59999847412109 -7.105427357601002e-15 4.380000114440918
  endloop
endfacet
facet normal 6.0251339509995e-17 -1.837205198171717e-16 1
  outer loop
    vertex 89.59999847412109 -7.105427357601002e-15 4.380000114440918
    vertex 88.09999847412109 -1.599998474121094 4.380000114440918
    vertex 89.59999847412109 -57.59999847412109 4.380000114440918
  endloop
endfacet
facet normal 1 -1.762479157471554e-15 0
  outer loop
    vertex 30 -46.39999771118164 0
    vertex 30 -49.59999847412109 1.600000023841858
    vertex 30 -49.59999847412109 0
  endloop
endfacet
facet normal 1 -1.762479157471554e-15 0
  outer loop
    vertex 30 -49.59999847412109 1.600000023841858
    vertex 30 -46.39999771118164 0
    vertex 30 -46.39999771118164 1.600000023841858
  endloop
endfacet
facet normal 1 -1.762480745658331e-15 0
  outer loop
    vertex 30 -8 0
    vertex 30 -11.19999694824219 1.600000023841858
    vertex 30 -11.19999694824219 0
  endloop
endfacet
facet normal 1 -1.762480745658331e-15 0
  outer loop
    vertex 30 -11.19999694824219 1.600000023841858
    vertex 30 -8 0
    vertex 30 -8 1.600000023841858
  endloop
endfacet
facet normal 0 0 -1
  outer loop
    vertex 97.26300048828125 -31.22709274291992 0
    vertex 97 -33.79999542236328 0
    vertex 97 -31.36119270324707 0
  endloop
endfacet
facet normal 0 0 -1
  outer loop
    vertex 1.552914261817932 -34.59555435180664 0
    vertex 8.812395125613282e-17 -57.59999847412109 0
    vertex -1.014058209453073e-15 -34.79999923706055 0
  endloop
endfacet
facet normal 0 0 -1
  outer loop
    vertex 8.812395125613282e-17 -57.59999847412109 0
    vertex 1.552914261817932 -34.59555435180664 0
    vertex 9.600000381469727 -52.79999923706055 -8.459899108830514e-15
  endloop
endfacet
facet normal 0 0 -1
  outer loop
    vertex 8.812395125613282e-17 -57.59999847412109 0
    vertex 9.600000381469727 -52.79999923706055 -8.459899108830514e-15
    vertex 89.59999847412109 -57.59999847412109 0
  endloop
endfacet
facet normal 0 0 -1
  outer loop
    vertex 9.600000381469727 -52.79999923706055 -8.459899108830514e-15
    vertex 1.552914261817932 -34.59555435180664 0
    vertex 1.600000023841858 -34.5760498046875 0
  endloop
endfacet
facet normal 0 0 -1
  outer loop
    vertex 9.600000381469727 -52.79999923706055 -8.459899108830514e-15
    vertex 1.600000023841858 -34.5760498046875 0
    vertex 3 -33.99615097045898 0
  endloop
endfacet
facet normal 0 0 -1
  outer loop
    vertex 9.600000381469727 -52.79999923706055 -8.459899108830514e-15
    vertex 3 -33.99615097045898 0
    vertex 4.242640495300293 -33.04264068603516 0
  endloop
endfacet
facet normal 0 0 -1
  outer loop
    vertex 9.600000381469727 -52.79999923706055 -8.459899108830514e-15
    vertex 4.242640495300293 -33.04264068603516 0
    vertex 5.196152210235596 -31.79999923706055 0
  endloop
endfacet
facet normal 0 0 -1
  outer loop
    vertex 9.600000381469727 -52.79999923706055 -8.459899108830514e-15
    vertex 5.196152210235596 -31.79999923706055 0
    vertex 5.795555114746094 -30.35291290283203 0
  endloop
endfacet
facet normal 0 0 -1
  outer loop
    vertex 9.600000381469727 -52.79999923706055 -8.459899108830514e-15
    vertex 5.795555114746094 -30.35291290283203 0
    vertex 6 -28.79999923706055 0
  endloop
endfacet
facet normal 0 0 -1
  outer loop
    vertex 9.600000381469727 -52.79999923706055 -8.459899108830514e-15
    vertex 6 -28.79999923706055 0
    vertex 9.600000381469727 -4.79999828338623 -8.459899108830514e-15
  endloop
endfacet
facet normal 0 0 -1
  outer loop
    vertex 89.59999847412109 -57.59999847412109 0
    vertex 9.600000381469727 -52.79999923706055 -8.459899108830514e-15
    vertex 22.60000038146973 -52.79999923706055 -8.459899108830514e-15
  endloop
endfacet
facet normal 0 0 -1
  outer loop
    vertex 89.59999847412109 -57.59999847412109 0
    vertex 22.60000038146973 -52.79999923706055 -8.459899108830514e-15
    vertex 30 -49.59999847412109 0
  endloop
endfacet
facet normal 0 0 -1
  outer loop
    vertex 30 -49.59999847412109 0
    vertex 22.60000038146973 -52.79999923706055 -8.459899108830514e-15
    vertex 30 -11.19999694824219 0
  endloop
endfacet
facet normal 0 0 -1
  outer loop
    vertex 89.59999847412109 -57.59999847412109 0
    vertex 30 -49.59999847412109 0
    vertex 79.09999847412109 -49.59999847412109 0
  endloop
endfacet
facet normal 0 0 -1
  outer loop
    vertex 89.59999847412109 -57.59999847412109 0
    vertex 79.09999847412109 -49.59999847412109 0
    vertex 89.59999847412109 -7.105427357601002e-15 0
  endloop
endfacet
facet normal 0 0 -1
  outer loop
    vertex 89.59999847412109 -57.59999847412109 0
    vertex 89.59999847412109 -7.105427357601002e-15 0
    vertex 92.5 -28.79999351501465 1.762479025122656e-16
  endloop
endfacet
facet normal 0 0 -1
  outer loop
    vertex 92.5 -28.79999351501465 1.762479025122656e-16
    vertex 89.59999847412109 -7.105427357601002e-15 0
    vertex 92.64679718017578 -27.87289237976074 1.762479025122656e-16
  endloop
endfacet
facet normal 0 0 -1
  outer loop
    vertex 92.64679718017578 -27.87289237976074 1.762479025122656e-16
    vertex 89.59999847412109 -7.105427357601002e-15 0
    vertex 94.2864990234375 -22.91829109191895 0
  endloop
endfacet
facet normal 0 0 -1
  outer loop
    vertex 94.2864990234375 -22.91829109191895 0
    vertex 89.59999847412109 -7.105427357601002e-15 0
    vertex 100.0999984741211 -9.583999633789063 0
  endloop
endfacet
facet normal 0 0 -1
  outer loop
    vertex 92.64679718017578 -27.87289237976074 1.762479025122656e-16
    vertex 94.2864990234375 -22.91829109191895 0
    vertex 94 -23.79999351501465 0
  endloop
endfacet
facet normal 0 0 -1
  outer loop
    vertex 92.64679718017578 -27.87289237976074 1.762479025122656e-16
    vertex 94 -23.79999351501465 0
    vertex 93.07289886474609 -27.03659248352051 0
  endloop
endfacet
facet normal 0 0 -1
  outer loop
    vertex 93.07289886474609 -27.03659248352051 0
    vertex 94 -23.79999351501465 0
    vertex 93.73660278320313 -26.37289237976074 0
  endloop
endfacet
facet normal 0 0 -1
  outer loop
    vertex 94.2864990234375 -22.91829109191895 0
    vertex 100.0999984741211 -9.583999633789063 0
    vertex 95.0364990234375 -22.37339210510254 0
  endloop
endfacet
facet normal 0 0 -1
  outer loop
    vertex 95.0364990234375 -22.37339210510254 0
    vertex 100.0999984741211 -9.583999633789063 0
    vertex 95.9635009765625 -22.37339210510254 0
  endloop
endfacet
facet normal 0 0 -1
  outer loop
    vertex 95.9635009765625 -22.37339210510254 0
    vertex 100.0999984741211 -9.583999633789063 0
    vertex 96.71399688720703 -22.91829109191895 0
  endloop
endfacet
facet normal 0 0 -1
  outer loop
    vertex 96.71399688720703 -22.91829109191895 0
    vertex 100.0999984741211 -9.583999633789063 0
    vertex 97 -23.79999351501465 0
  endloop
endfacet
facet normal 0 0 -1
  outer loop
    vertex 97 -23.79999351501465 0
    vertex 100.0999984741211 -9.583999633789063 0
    vertex 97 -26.23879241943359 0
  endloop
endfacet
facet normal 0 0 -1
  outer loop
    vertex 97 -26.23879241943359 0
    vertex 100.0999984741211 -9.583999633789063 0
    vertex 97.26300048828125 -26.37289237976074 0
  endloop
endfacet
facet normal 0 0 -1
  outer loop
    vertex 97.26300048828125 -26.37289237976074 0
    vertex 100.0999984741211 -9.583999633789063 0
    vertex 97.927001953125 -27.03659248352051 0
  endloop
endfacet
facet normal 0 0 -1
  outer loop
    vertex 97.927001953125 -27.03659248352051 0
    vertex 100.0999984741211 -9.583999633789063 0
    vertex 98.35299682617188 -27.87289237976074 0
  endloop
endfacet
facet normal 0 0 -1
  outer loop
    vertex 98.35299682617188 -27.87289237976074 0
    vertex 100.0999984741211 -9.583999633789063 0
    vertex 98.5 -28.79999351501465 0
  endloop
endfacet
facet normal 0 0 -1
  outer loop
    vertex 89.59999847412109 -57.59999847412109 0
    vertex 94.2864990234375 -34.68169403076172 0
    vertex 100.0999984741211 -48.01598739624023 0
  endloop
endfacet
facet normal 0 0 -1
  outer loop
    vertex 94.2864990234375 -34.68169403076172 0
    vertex 89.59999847412109 -57.59999847412109 0
    vertex 92.64679718017578 -29.72709274291992 3.524958050245313e-16
  endloop
endfacet
facet normal 0 0 -1
  outer loop
    vertex 92.64679718017578 -29.72709274291992 3.524958050245313e-16
    vertex 89.59999847412109 -57.59999847412109 0
    vertex 92.5 -28.79999351501465 1.762479025122656e-16
  endloop
endfacet
facet normal 0 0 -1
  outer loop
    vertex 94.2864990234375 -34.68169403076172 0
    vertex 92.64679718017578 -29.72709274291992 3.524958050245313e-16
    vertex 94 -33.79999542236328 0
  endloop
endfacet
facet normal 0 0 -1
  outer loop
    vertex 94 -33.79999542236328 0
    vertex 92.64679718017578 -29.72709274291992 3.524958050245313e-16
    vertex 93.07289886474609 -30.56339263916016 0
  endloop
endfacet
facet normal 0 0 -1
  outer loop
    vertex 94 -33.79999542236328 0
    vertex 93.07289886474609 -30.56339263916016 0
    vertex 93.73660278320313 -31.22709274291992 0
  endloop
endfacet
facet normal 0 0 -1
  outer loop
    vertex 94 -33.79999542236328 0
    vertex 93.73660278320313 -31.22709274291992 0
    vertex 94 -31.36119270324707 0
  endloop
endfacet
facet normal 0 0 -1
  outer loop
    vertex 100.0999984741211 -48.01598739624023 0
    vertex 94.2864990234375 -34.68169403076172 0
    vertex 95.0364990234375 -35.22659301757813 0
  endloop
endfacet
facet normal 0 0 -1
  outer loop
    vertex 100.0999984741211 -48.01598739624023 0
    vertex 95.0364990234375 -35.22659301757813 0
    vertex 95.9635009765625 -35.22659301757813 0
  endloop
endfacet
facet normal 0 0 -1
  outer loop
    vertex 100.0999984741211 -48.01598739624023 0
    vertex 95.9635009765625 -35.22659301757813 0
    vertex 96.71399688720703 -34.68169403076172 0
  endloop
endfacet
facet normal 0 0 -1
  outer loop
    vertex 100.0999984741211 -48.01598739624023 0
    vertex 96.71399688720703 -34.68169403076172 0
    vertex 97 -33.79999542236328 0
  endloop
endfacet
facet normal 0 0 -1
  outer loop
    vertex 100.0999984741211 -48.01598739624023 0
    vertex 97 -33.79999542236328 0
    vertex 97.26300048828125 -31.22709274291992 0
  endloop
endfacet
facet normal 0 0 -1
  outer loop
    vertex 100.0999984741211 -48.01598739624023 0
    vertex 97.26300048828125 -31.22709274291992 0
    vertex 97.927001953125 -30.56339263916016 0
  endloop
endfacet
facet normal 0 0 -1
  outer loop
    vertex 100.0999984741211 -48.01598739624023 0
    vertex 97.927001953125 -30.56339263916016 0
    vertex 98.35299682617188 -29.72709274291992 0
  endloop
endfacet
facet normal 0 0 -1
  outer loop
    vertex 100.0999984741211 -48.01598739624023 0
    vertex 98.35299682617188 -29.72709274291992 0
    vertex 98.5 -28.79999351501465 0
  endloop
endfacet
facet normal 0 0 -1
  outer loop
    vertex 100.0999984741211 -48.01598739624023 0
    vertex 98.5 -28.79999351501465 0
    vertex 100.0999984741211 -9.583999633789063 0
  endloop
endfacet
facet normal 0 0 -1
  outer loop
    vertex 94 -26.23879241943359 0
    vertex 93.73660278320313 -26.37289237976074 0
    vertex 94 -23.79999351501465 0
  endloop
endfacet
facet normal 0 0 -1
  outer loop
    vertex 8.812395125613282e-17 -7.105427357601002e-15 0
    vertex 9.600000381469727 -4.79999828338623 -8.459899108830514e-15
    vertex 4.555180136491281e-16 -22.79999923706055 0
  endloop
endfacet
facet normal 0 0 -1
  outer loop
    vertex 9.600000381469727 -4.79999828338623 -8.459899108830514e-15
    vertex 8.812395125613282e-17 -7.105427357601002e-15 0
    vertex 89.59999847412109 -7.105427357601002e-15 0
  endloop
endfacet
facet normal 0 0 -1
  outer loop
    vertex 4.555180136491281e-16 -22.79999923706055 0
    vertex 9.600000381469727 -4.79999828338623 -8.459899108830514e-15
    vertex 1.552914261817932 -23.00444412231445 0
  endloop
endfacet
facet normal 0 0 -1
  outer loop
    vertex 1.552914261817932 -23.00444412231445 0
    vertex 9.600000381469727 -4.79999828338623 -8.459899108830514e-15
    vertex 1.600000023841858 -23.02394866943359 0
  endloop
endfacet
facet normal 0 0 -1
  outer loop
    vertex 1.600000023841858 -23.02394866943359 0
    vertex 9.600000381469727 -4.79999828338623 -8.459899108830514e-15
    vertex 3 -23.60384750366211 0
  endloop
endfacet
facet normal 0 0 -1
  outer loop
    vertex 3 -23.60384750366211 0
    vertex 9.600000381469727 -4.79999828338623 -8.459899108830514e-15
    vertex 4.242640495300293 -24.55735778808594 0
  endloop
endfacet
facet normal 0 0 -1
  outer loop
    vertex 4.242640495300293 -24.55735778808594 0
    vertex 9.600000381469727 -4.79999828338623 -8.459899108830514e-15
    vertex 5.196152210235596 -25.79999923706055 0
  endloop
endfacet
facet normal 0 0 -1
  outer loop
    vertex 5.196152210235596 -25.79999923706055 0
    vertex 9.600000381469727 -4.79999828338623 -8.459899108830514e-15
    vertex 5.795555114746094 -27.24708557128906 0
  endloop
endfacet
facet normal 0 0 -1
  outer loop
    vertex 5.795555114746094 -27.24708557128906 0
    vertex 9.600000381469727 -4.79999828338623 -8.459899108830514e-15
    vertex 6 -28.79999923706055 0
  endloop
endfacet
facet normal 0 0 -1
  outer loop
    vertex 9.600000381469727 -4.79999828338623 -8.459899108830514e-15
    vertex 89.59999847412109 -7.105427357601002e-15 0
    vertex 22.60000038146973 -4.79999828338623 -8.459899108830514e-15
  endloop
endfacet
facet normal 0 0 -1
  outer loop
    vertex 22.60000038146973 -4.79999828338623 -8.459899108830514e-15
    vertex 89.59999847412109 -7.105427357601002e-15 0
    vertex 30 -8 0
  endloop
endfacet
facet normal 0 0 -1
  outer loop
    vertex 22.60000038146973 -4.79999828338623 -8.459899108830514e-15
    vertex 30 -8 0
    vertex 22.60000038146973 -52.79999923706055 -8.459899108830514e-15
  endloop
endfacet
facet normal 0 0 -1
  outer loop
    vertex 22.60000038146973 -52.79999923706055 -8.459899108830514e-15
    vertex 30 -8 0
    vertex 30 -11.19999694824219 0
  endloop
endfacet
facet normal 0 0 -1
  outer loop
    vertex 30 -8 0
    vertex 89.59999847412109 -7.105427357601002e-15 0
    vertex 79.09999847412109 -8 0
  endloop
endfacet
facet normal 0 0 -1
  outer loop
    vertex 79.09999847412109 -8 0
    vertex 89.59999847412109 -7.105427357601002e-15 0
    vertex 79.09999847412109 -11.19999694824219 0
  endloop
endfacet
facet normal 0 0 -1
  outer loop
    vertex 79.09999847412109 -11.19999694824219 0
    vertex 89.59999847412109 -7.105427357601002e-15 0
    vertex 79.09999847412109 -46.39999771118164 0
  endloop
endfacet
facet normal 0 0 -1
  outer loop
    vertex 79.09999847412109 -46.39999771118164 0
    vertex 89.59999847412109 -7.105427357601002e-15 0
    vertex 79.09999847412109 -49.59999847412109 0
  endloop
endfacet
facet normal 0 0 -1
  outer loop
    vertex 30 -11.19999694824219 0
    vertex 30 -46.39999771118164 0
    vertex 30 -49.59999847412109 0
  endloop
endfacet
facet normal 0 0 -1
  outer loop
    vertex 30 -46.39999771118164 0
    vertex 30 -11.19999694824219 0
    vertex 79.09999847412109 -11.19999694824219 0
  endloop
endfacet
facet normal 0 0 -1
  outer loop
    vertex 30 -46.39999771118164 0
    vertex 79.09999847412109 -11.19999694824219 0
    vertex 79.09999847412109 -46.39999771118164 0
  endloop
endfacet
facet normal -1 0 0
  outer loop
    vertex 79.09999847412109 -46.39999771118164 1.600000023841858
    vertex 79.09999847412109 -49.59999847412109 0
    vertex 79.09999847412109 -49.59999847412109 1.600000023841858
  endloop
endfacet
facet normal -1 0 0
  outer loop
    vertex 79.09999847412109 -49.59999847412109 0
    vertex 79.09999847412109 -46.39999771118164 1.600000023841858
    vertex 79.09999847412109 -46.39999771118164 0
  endloop
endfacet
facet normal 1 0 0
  outer loop
    vertex 100.0999984741211 -9.583999633789063 0
    vertex 100.0999984741211 -48.01598739624023 1.600000023841858
    vertex 100.0999984741211 -48.01598739624023 0
  endloop
endfacet
facet normal 1 0 0
  outer loop
    vertex 100.0999984741211 -48.01598739624023 1.600000023841858
    vertex 100.0999984741211 -9.583999633789063 0
    vertex 100.0999984741211 -9.583999633789063 1.600000023841858
  endloop
endfacet
facet normal 0 1 0
  outer loop
    vertex 30 -49.59999847412109 1.600000023841858
    vertex 79.09999847412109 -49.59999847412109 0
    vertex 30 -49.59999847412109 0
  endloop
endfacet
facet normal 0 1 0
  outer loop
    vertex 79.09999847412109 -49.59999847412109 0
    vertex 30 -49.59999847412109 1.600000023841858
    vertex 79.09999847412109 -49.59999847412109 1.600000023841858
  endloop
endfacet
facet normal 0 -1 0
  outer loop
    vertex 79.09999847412109 -8 1.600000023841858
    vertex 30 -8 0
    vertex 79.09999847412109 -8 0
  endloop
endfacet
facet normal 0 -1 0
  outer loop
    vertex 30 -8 0
    vertex 79.09999847412109 -8 1.600000023841858
    vertex 30 -8 1.600000023841858
  endloop
endfacet
facet normal 0 1 0
  outer loop
    vertex 30 -11.19999694824219 1.600000023841858
    vertex 79.09999847412109 -11.19999694824219 0
    vertex 30 -11.19999694824219 0
  endloop
endfacet
facet normal 0 1 0
  outer loop
    vertex 79.09999847412109 -11.19999694824219 0
    vertex 30 -11.19999694824219 1.600000023841858
    vertex 79.09999847412109 -11.19999694824219 1.600000023841858
  endloop
endfacet
facet normal 0 -1 0
  outer loop
    vertex 79.09999847412109 -46.39999771118164 1.600000023841858
    vertex 30 -46.39999771118164 0
    vertex 79.09999847412109 -46.39999771118164 0
  endloop
endfacet
facet normal 0 -1 0
  outer loop
    vertex 30 -46.39999771118164 0
    vertex 79.09999847412109 -46.39999771118164 1.600000023841858
    vertex 30 -46.39999771118164 1.600000023841858
  endloop
endfacet
facet normal 1 0 0
  outer loop
    vertex 64.09999847412109 -17.69999694824219 1.600000023841858
    vertex 64.09999847412109 -18.19999694824219 1.899999976158142
    vertex 64.09999847412109 -18.19999694824219 1.600000023841858
  endloop
endfacet
facet normal 1 0 0
  outer loop
    vertex 64.09999847412109 -18.19999694824219 1.899999976158142
    vertex 64.09999847412109 -17.69999694824219 1.600000023841858
    vertex 64.09999847412109 -17.69999694824219 1.899999976158142
  endloop
endfacet
facet normal -1 0 0
  outer loop
    vertex 35 -42.09999847412109 1.899999976158142
    vertex 35 -42.59999847412109 1.600000023841858
    vertex 35 -42.59999847412109 1.899999976158142
  endloop
endfacet
facet normal -1 0 0
  outer loop
    vertex 35 -42.59999847412109 1.600000023841858
    vertex 35 -42.09999847412109 1.899999976158142
    vertex 35 -42.09999847412109 1.600000023841858
  endloop
endfacet
facet normal 0 0 1
  outer loop
    vertex 64.09999847412109 -42.59999847412109 1.899999976158142
    vertex 35 -42.09999847412109 1.899999976158142
    vertex 35 -42.59999847412109 1.899999976158142
  endloop
endfacet
facet normal 0 0 1
  outer loop
    vertex 35 -42.09999847412109 1.899999976158142
    vertex 64.09999847412109 -42.59999847412109 1.899999976158142
    vertex 64.09999847412109 -42.09999847412109 1.899999976158142
  endloop
endfacet
facet normal 0 -1 0
  outer loop
    vertex 64.09999847412109 -42.59999847412109 1.899999976158142
    vertex 35 -42.59999847412109 1.600000023841858
    vertex 64.09999847412109 -42.59999847412109 1.600000023841858
  endloop
endfacet
facet normal 0 -1 0
  outer loop
    vertex 35 -42.59999847412109 1.600000023841858
    vertex 64.09999847412109 -42.59999847412109 1.899999976158142
    vertex 35 -42.59999847412109 1.899999976158142
  endloop
endfacet
facet normal 0 1 0
  outer loop
    vertex 35 -17.69999694824219 1.899999976158142
    vertex 64.09999847412109 -17.69999694824219 1.600000023841858
    vertex 35 -17.69999694824219 1.600000023841858
  endloop
endfacet
facet normal 0 1 0
  outer loop
    vertex 64.09999847412109 -17.69999694824219 1.600000023841858
    vertex 35 -17.69999694824219 1.899999976158142
    vertex 64.09999847412109 -17.69999694824219 1.899999976158142
  endloop
endfacet
facet normal 0 -1 0
  outer loop
    vertex 64.09999847412109 -18.19999694824219 1.899999976158142
    vertex 35 -18.19999694824219 1.600000023841858
    vertex 64.09999847412109 -18.19999694824219 1.600000023841858
  endloop
endfacet
facet normal 0 -1 0
  outer loop
    vertex 35 -18.19999694824219 1.600000023841858
    vertex 64.09999847412109 -18.19999694824219 1.899999976158142
    vertex 35 -18.19999694824219 1.899999976158142
  endloop
endfacet
facet normal 1 0 0
  outer loop
    vertex 64.09999847412109 -42.09999847412109 1.600000023841858
    vertex 64.09999847412109 -42.59999847412109 1.899999976158142
    vertex 64.09999847412109 -42.59999847412109 1.600000023841858
  endloop
endfacet
facet normal 1 0 0
  outer loop
    vertex 64.09999847412109 -42.59999847412109 1.899999976158142
    vertex 64.09999847412109 -42.09999847412109 1.600000023841858
    vertex 64.09999847412109 -42.09999847412109 1.899999976158142
  endloop
endfacet
facet normal 0 0 -1
  outer loop
    vertex 17.443359375 -54.59999847412109 4.380000114440918
    vertex 74.84336090087891 -56 4.380000114440918
    vertex 16.04335784912109 -56 4.380000114440918
  endloop
endfacet
facet normal 0 0 -1
  outer loop
    vertex 74.84336090087891 -56 4.380000114440918
    vertex 17.443359375 -54.59999847412109 4.380000114440918
    vertex 73.443359375 -54.59999847412109 4.380000114440918
  endloop
endfacet
facet normal -1 0 0
  outer loop
    vertex 35 -17.69999694824219 1.899999976158142
    vertex 35 -18.19999694824219 1.600000023841858
    vertex 35 -18.19999694824219 1.899999976158142
  endloop
endfacet
facet normal -1 0 0
  outer loop
    vertex 35 -18.19999694824219 1.600000023841858
    vertex 35 -17.69999694824219 1.899999976158142
    vertex 35 -17.69999694824219 1.600000023841858
  endloop
endfacet
facet normal 0 0 -1
  outer loop
    vertex 74.84336090087891 -1.599998474121094 4.380000114440918
    vertex 17.443359375 -3 4.380000114440918
    vertex 16.04335784912109 -1.599998474121094 4.380000114440918
  endloop
endfacet
facet normal 0 0 -1
  outer loop
    vertex 17.443359375 -3 4.380000114440918
    vertex 74.84336090087891 -1.599998474121094 4.380000114440918
    vertex 73.443359375 -3 4.380000114440918
  endloop
endfacet
facet normal 0 0 1
  outer loop
    vertex 64.09999847412109 -18.19999694824219 1.899999976158142
    vertex 35 -17.69999694824219 1.899999976158142
    vertex 35 -18.19999694824219 1.899999976158142
  endloop
endfacet
facet normal 0 0 1
  outer loop
    vertex 35 -17.69999694824219 1.899999976158142
    vertex 64.09999847412109 -18.19999694824219 1.899999976158142
    vertex 64.09999847412109 -17.69999694824219 1.899999976158142
  endloop
endfacet
facet normal -3.192469452948142e-18 -1.894521138385557e-16 1
  outer loop
    vertex 8.812395125613282e-17 -7.105427357601002e-15 4.380000114440918
    vertex 1.600000023841858 -1.599998474121094 4.380000114440918
    vertex 14.44335842132568 -7.105427357601002e-15 4.380000114440918
  endloop
endfacet
facet normal -3.192469452948142e-18 -1.894521138385557e-16 1
  outer loop
    vertex 1.600000023841858 -1.599998474121094 4.380000114440918
    vertex 8.812395125613282e-17 -7.105427357601002e-15 4.380000114440918
    vertex 2.718209725264631e-16 -22.79999923706055 4.380000114440918
  endloop
endfacet
facet normal -3.192469452948142e-18 -1.894521138385557e-16 1
  outer loop
    vertex 1.600000023841858 -1.599998474121094 4.380000114440918
    vertex 2.718209725264631e-16 -22.79999923706055 4.380000114440918
    vertex 1.552914261817932 -23.00444412231445 4.380000114440918
  endloop
endfacet
facet normal -3.192469452948142e-18 -1.894521138385557e-16 1
  outer loop
    vertex 1.600000023841858 -1.599998474121094 4.380000114440918
    vertex 1.552914261817932 -23.00444412231445 4.380000114440918
    vertex 1.600000023841858 -23.02394866943359 4.380000114440918
  endloop
endfacet
facet normal -3.192469452948142e-18 -1.894521138385557e-16 1
  outer loop
    vertex 14.44335842132568 -7.105427357601002e-15 4.380000114440918
    vertex 1.600000023841858 -1.599998474121094 4.380000114440918
    vertex 16.04335784912109 -1.599998474121094 4.380000114440918
  endloop
endfacet
facet normal 4.853619556136574e-18 -1.98409751953566e-16 1
  outer loop
    vertex 1.600000023841858 -34.5760498046875 4.380000114440918
    vertex 1.552914261817932 -34.59555435180664 4.380000114440918
    vertex 1.600000023841858 -56 4.380000114440918
  endloop
endfacet
facet normal 4.853619556136574e-18 -1.98409751953566e-16 1
  outer loop
    vertex 8.812395125613282e-17 -57.59999847412109 4.380000114440918
    vertex 1.552914261817932 -34.59555435180664 4.380000114440918
    vertex -4.629670860850784e-16 -34.79999923706055 4.380000114440918
  endloop
endfacet
facet normal 4.853619556136574e-18 -1.98409751953566e-16 1
  outer loop
    vertex 1.552914261817932 -34.59555435180664 4.380000114440918
    vertex 8.812395125613282e-17 -57.59999847412109 4.380000114440918
    vertex 1 -57.59999847412109 4.380000114440918
  endloop
endfacet
facet normal 4.853619556136574e-18 -1.98409751953566e-16 1
  outer loop
    vertex 1.552914261817932 -34.59555435180664 4.380000114440918
    vertex 1 -57.59999847412109 4.380000114440918
    vertex 1.600000023841858 -56 4.380000114440918
  endloop
endfacet
facet normal 4.853619556136574e-18 -1.98409751953566e-16 1
  outer loop
    vertex 1.600000023841858 -56 4.380000114440918
    vertex 1 -57.59999847412109 4.380000114440918
    vertex 14.44335842132568 -57.59999847412109 4.380000114440918
  endloop
endfacet
facet normal 4.853619556136574e-18 -1.98409751953566e-16 1
  outer loop
    vertex 1.600000023841858 -56 4.380000114440918
    vertex 14.44335842132568 -57.59999847412109 4.380000114440918
    vertex 16.04335784912109 -56 4.380000114440918
  endloop
endfacet
facet normal 0 0 1
  outer loop
    vertex 1.600000023841858 -56 1.600000023841858
    vertex 9.600000381469727 -52.79999923706055 1.600000023841858
    vertex 1.600000023841858 -34.5760498046875 1.600000023841858
  endloop
endfacet
facet normal 0 0 1
  outer loop
    vertex 9.600000381469727 -52.79999923706055 1.600000023841858
    vertex 1.600000023841858 -56 1.600000023841858
    vertex 88.09999847412109 -56 1.600000023841858
  endloop
endfacet
facet normal 0 0 1
  outer loop
    vertex 1.600000023841858 -34.5760498046875 1.600000023841858
    vertex 9.600000381469727 -52.79999923706055 1.600000023841858
    vertex 3 -33.99615097045898 1.600000023841858
  endloop
endfacet
facet normal 0 0 1
  outer loop
    vertex 3 -33.99615097045898 1.600000023841858
    vertex 9.600000381469727 -52.79999923706055 1.600000023841858
    vertex 4.242640495300293 -33.04264068603516 1.600000023841858
  endloop
endfacet
facet normal 0 0 1
  outer loop
    vertex 4.242640495300293 -33.04264068603516 1.600000023841858
    vertex 9.600000381469727 -52.79999923706055 1.600000023841858
    vertex 5.196152210235596 -31.79999923706055 1.600000023841858
  endloop
endfacet
facet normal 0 0 1
  outer loop
    vertex 5.196152210235596 -31.79999923706055 1.600000023841858
    vertex 9.600000381469727 -52.79999923706055 1.600000023841858
    vertex 5.795555114746094 -30.35291290283203 1.600000023841858
  endloop
endfacet
facet normal 0 0 1
  outer loop
    vertex 5.795555114746094 -30.35291290283203 1.600000023841858
    vertex 9.600000381469727 -52.79999923706055 1.600000023841858
    vertex 6 -28.79999923706055 1.600000023841858
  endloop
endfacet
facet normal 0 0 1
  outer loop
    vertex 6 -28.79999923706055 1.600000023841858
    vertex 9.600000381469727 -52.79999923706055 1.600000023841858
    vertex 9.600000381469727 -4.79999828338623 1.600000023841858
  endloop
endfacet
facet normal 0 0 1
  outer loop
    vertex 9.600000381469727 -52.79999923706055 1.600000023841858
    vertex 88.09999847412109 -56 1.600000023841858
    vertex 22.60000038146973 -52.79999923706055 1.600000023841858
  endloop
endfacet
facet normal 0 0 1
  outer loop
    vertex 22.60000038146973 -52.79999923706055 1.600000023841858
    vertex 88.09999847412109 -56 1.600000023841858
    vertex 30 -49.59999847412109 1.600000023841858
  endloop
endfacet
facet normal 0 0 1
  outer loop
    vertex 22.60000038146973 -52.79999923706055 1.600000023841858
    vertex 30 -49.59999847412109 1.600000023841858
    vertex 22.60000038146973 -4.79999828338623 1.600000023841858
  endloop
endfacet
facet normal 0 0 1
  outer loop
    vertex 30 -49.59999847412109 1.600000023841858
    vertex 88.09999847412109 -56 1.600000023841858
    vertex 79.09999847412109 -49.59999847412109 1.600000023841858
  endloop
endfacet
facet normal 0 0 1
  outer loop
    vertex 79.09999847412109 -49.59999847412109 1.600000023841858
    vertex 88.09999847412109 -56 1.600000023841858
    vertex 79.09999847412109 -46.39999771118164 1.600000023841858
  endloop
endfacet
facet normal 0 0 1
  outer loop
    vertex 79.09999847412109 -46.39999771118164 1.600000023841858
    vertex 88.09999847412109 -56 1.600000023841858
    vertex 79.09999847412109 -11.19999694824219 1.600000023841858
  endloop
endfacet
facet normal 0 0 1
  outer loop
    vertex 79.09999847412109 -11.19999694824219 1.600000023841858
    vertex 88.09999847412109 -56 1.600000023841858
    vertex 79.09999847412109 -8 1.600000023841858
  endloop
endfacet
facet normal 0 0 1
  outer loop
    vertex 3 -23.60384750366211 1.600000023841858
    vertex 1.600000023841858 -21.01499938964844 1.600000023841858
    vertex 1.600000023841858 -23.02394866943359 1.600000023841858
  endloop
endfacet
facet normal 0 0 1
  outer loop
    vertex 1.600000023841858 -21.01499938964844 1.600000023841858
    vertex 3 -23.60384750366211 1.600000023841858
    vertex 1.600000023841858 -1.599998474121094 1.600000023841858
  endloop
endfacet
facet normal 0 0 1
  outer loop
    vertex 1.600000023841858 -1.599998474121094 1.600000023841858
    vertex 3 -23.60384750366211 1.600000023841858
    vertex 9.600000381469727 -4.79999828338623 1.600000023841858
  endloop
endfacet
facet normal 0 0 1
  outer loop
    vertex 1.600000023841858 -1.599998474121094 1.600000023841858
    vertex 9.600000381469727 -4.79999828338623 1.600000023841858
    vertex 88.09999847412109 -1.599998474121094 1.600000023841858
  endloop
endfacet
facet normal 0 0 1
  outer loop
    vertex 9.600000381469727 -4.79999828338623 1.600000023841858
    vertex 3 -23.60384750366211 1.600000023841858
    vertex 4.242640495300293 -24.55735778808594 1.600000023841858
  endloop
endfacet
facet normal 0 0 1
  outer loop
    vertex 9.600000381469727 -4.79999828338623 1.600000023841858
    vertex 4.242640495300293 -24.55735778808594 1.600000023841858
    vertex 5.196152210235596 -25.79999923706055 1.600000023841858
  endloop
endfacet
facet normal 0 0 1
  outer loop
    vertex 9.600000381469727 -4.79999828338623 1.600000023841858
    vertex 5.196152210235596 -25.79999923706055 1.600000023841858
    vertex 5.795555114746094 -27.24708557128906 1.600000023841858
  endloop
endfacet
facet normal 0 0 1
  outer loop
    vertex 9.600000381469727 -4.79999828338623 1.600000023841858
    vertex 5.795555114746094 -27.24708557128906 1.600000023841858
    vertex 6 -28.79999923706055 1.600000023841858
  endloop
endfacet
facet normal 0 0 1
  outer loop
    vertex 88.09999847412109 -1.599998474121094 1.600000023841858
    vertex 9.600000381469727 -4.79999828338623 1.600000023841858
    vertex 22.60000038146973 -4.79999828338623 1.600000023841858
  endloop
endfacet
facet normal 0 0 1
  outer loop
    vertex 88.09999847412109 -1.599998474121094 1.600000023841858
    vertex 22.60000038146973 -4.79999828338623 1.600000023841858
    vertex 30 -8 1.600000023841858
  endloop
endfacet
facet normal 0 0 1
  outer loop
    vertex 30 -8 1.600000023841858
    vertex 22.60000038146973 -4.79999828338623 1.600000023841858
    vertex 30 -11.19999694824219 1.600000023841858
  endloop
endfacet
facet normal 0 0 1
  outer loop
    vertex 30 -11.19999694824219 1.600000023841858
    vertex 22.60000038146973 -4.79999828338623 1.600000023841858
    vertex 30 -49.59999847412109 1.600000023841858
  endloop
endfacet
facet normal 0 0 1
  outer loop
    vertex 88.09999847412109 -1.599998474121094 1.600000023841858
    vertex 30 -8 1.600000023841858
    vertex 79.09999847412109 -8 1.600000023841858
  endloop
endfacet
facet normal 0 0 1
  outer loop
    vertex 88.09999847412109 -1.599998474121094 1.600000023841858
    vertex 79.09999847412109 -8 1.600000023841858
    vertex 88.09999847412109 -56 1.600000023841858
  endloop
endfacet
facet normal 0 0 1
  outer loop
    vertex 30 -46.39999771118164 1.600000023841858
    vertex 30 -11.19999694824219 1.600000023841858
    vertex 30 -49.59999847412109 1.600000023841858
  endloop
endfacet
facet normal 0 0 1
  outer loop
    vertex 30 -11.19999694824219 1.600000023841858
    vertex 30 -46.39999771118164 1.600000023841858
    vertex 79.09999847412109 -11.19999694824219 1.600000023841858
  endloop
endfacet
facet normal 0 0 1
  outer loop
    vertex 79.09999847412109 -11.19999694824219 1.600000023841858
    vertex 30 -46.39999771118164 1.600000023841858
    vertex 79.09999847412109 -46.39999771118164 1.600000023841858
  endloop
endfacet
facet normal -1 -1.20853304338039e-17 -2.096997813156246e-17
  outer loop
    vertex 8.812395125613282e-17 -7.105427357601002e-15 4.380000114440918
    vertex 4.555180136491281e-16 -22.79999923706055 0
    vertex 2.718209725264631e-16 -22.79999923706055 4.380000114440918
  endloop
endfacet
facet normal -1 -1.20853304338039e-17 -2.096997813156246e-17
  outer loop
    vertex 4.555180136491281e-16 -22.79999923706055 0
    vertex 8.812395125613282e-17 -7.105427357601002e-15 4.380000114440918
    vertex 8.812395125613282e-17 -7.105427357601002e-15 0
  endloop
endfacet
facet normal 0 1 0
  outer loop
    vertex 14.44335842132568 -7.105427357601002e-15 5.980000019073486
    vertex 76.443359375 -7.105427357601002e-15 4.380000114440918
    vertex 14.44335842132568 -7.105427357601002e-15 4.380000114440918
  endloop
endfacet
facet normal 0 1 0
  outer loop
    vertex 76.443359375 -7.105427357601002e-15 4.380000114440918
    vertex 14.44335842132568 -7.105427357601002e-15 5.980000019073486
    vertex 76.443359375 -7.105427357601002e-15 5.980000019073486
  endloop
endfacet
facet normal 0 1 0
  outer loop
    vertex 8.812395125613282e-17 -7.105427357601002e-15 4.380000114440918
    vertex 89.59999847412109 -7.105427357601002e-15 0
    vertex 8.812395125613282e-17 -7.105427357601002e-15 0
  endloop
endfacet
facet normal 0 1 0
  outer loop
    vertex 89.59999847412109 -7.105427357601002e-15 0
    vertex 8.812395125613282e-17 -7.105427357601002e-15 4.380000114440918
    vertex 89.59999847412109 -7.105427357601002e-15 1.600000023841858
  endloop
endfacet
facet normal 0 1 0
  outer loop
    vertex 89.59999847412109 -7.105427357601002e-15 1.600000023841858
    vertex 8.812395125613282e-17 -7.105427357601002e-15 4.380000114440918
    vertex 89.59999847412109 -7.105427357601002e-15 4.380000114440918
  endloop
endfacet
facet normal 0 1 0
  outer loop
    vertex 89.59999847412109 -7.105427357601002e-15 4.380000114440918
    vertex 8.812395125613282e-17 -7.105427357601002e-15 4.380000114440918
    vertex 14.44335842132568 -7.105427357601002e-15 4.380000114440918
  endloop
endfacet
facet normal 0 1 0
  outer loop
    vertex 89.59999847412109 -7.105427357601002e-15 4.380000114440918
    vertex 14.44335842132568 -7.105427357601002e-15 4.380000114440918
    vertex 76.443359375 -7.105427357601002e-15 4.380000114440918
  endloop
endfacet
facet normal 0.6741563081741333 -0.7385886907577515 0
  outer loop
    vertex 100.0999984741211 -48.01598739624023 1.600000023841858
    vertex 89.59999847412109 -57.59999847412109 0
    vertex 100.0999984741211 -48.01598739624023 0
  endloop
endfacet
facet normal 0.6741563081741333 -0.7385886907577515 0
  outer loop
    vertex 89.59999847412109 -57.59999847412109 0
    vertex 100.0999984741211 -48.01598739624023 1.600000023841858
    vertex 89.59999847412109 -57.59999847412109 1.600000023841858
  endloop
endfacet
facet normal 0 -1 0
  outer loop
    vertex 76.443359375 -57.59999847412109 5.980000019073486
    vertex 14.44335842132568 -57.59999847412109 4.380000114440918
    vertex 76.443359375 -57.59999847412109 4.380000114440918
  endloop
endfacet
facet normal 0 -1 0
  outer loop
    vertex 14.44335842132568 -57.59999847412109 4.380000114440918
    vertex 76.443359375 -57.59999847412109 5.980000019073486
    vertex 14.44335842132568 -57.59999847412109 5.980000019073486
  endloop
endfacet
facet normal 0 -1 0
  outer loop
    vertex 89.59999847412109 -57.59999847412109 1.600000023841858
    vertex 8.812395125613282e-17 -57.59999847412109 0
    vertex 89.59999847412109 -57.59999847412109 0
  endloop
endfacet
facet normal 0 -1 0
  outer loop
    vertex 8.812395125613282e-17 -57.59999847412109 0
    vertex 89.59999847412109 -57.59999847412109 1.600000023841858
    vertex 8.812395125613282e-17 -57.59999847412109 4.380000114440918
  endloop
endfacet
facet normal 0 -1 0
  outer loop
    vertex 8.812395125613282e-17 -57.59999847412109 4.380000114440918
    vertex 89.59999847412109 -57.59999847412109 1.600000023841858
    vertex 89.59999847412109 -57.59999847412109 4.380000114440918
  endloop
endfacet
facet normal 0 -1 0
  outer loop
    vertex 8.812395125613282e-17 -57.59999847412109 4.380000114440918
    vertex 89.59999847412109 -57.59999847412109 4.380000114440918
    vertex 76.443359375 -57.59999847412109 4.380000114440918
  endloop
endfacet
facet normal 0 -1 0
  outer loop
    vertex 8.812395125613282e-17 -57.59999847412109 4.380000114440918
    vertex 76.443359375 -57.59999847412109 4.380000114440918
    vertex 14.44335842132568 -57.59999847412109 4.380000114440918
  endloop
endfacet
facet normal 0 -1 0
  outer loop
    vertex 8.812395125613282e-17 -57.59999847412109 4.380000114440918
    vertex 14.44335842132568 -57.59999847412109 4.380000114440918
    vertex 1 -57.59999847412109 4.380000114440918
  endloop
endfacet
facet normal -0.9914448857307434 0.1305261850357056 0
  outer loop
    vertex 6 -28.79999923706055 1.600000023841858
    vertex 5.795555114746094 -30.35291290283203 0
    vertex 5.795555114746094 -30.35291290283203 1.600000023841858
  endloop
endfacet
facet normal -0.9914448857307434 0.1305261850357056 0
  outer loop
    vertex 5.795555114746094 -30.35291290283203 0
    vertex 6 -28.79999923706055 1.600000023841858
    vertex 6 -28.79999923706055 0
  endloop
endfacet
facet normal -0.9238795042037964 0.3826834261417389 0
  outer loop
    vertex 5.795555114746094 -30.35291290283203 1.600000023841858
    vertex 5.196152210235596 -31.79999923706055 0
    vertex 5.196152210235596 -31.79999923706055 1.600000023841858
  endloop
endfacet
facet normal -0.9238795042037964 0.3826834261417389 0
  outer loop
    vertex 5.196152210235596 -31.79999923706055 0
    vertex 5.795555114746094 -30.35291290283203 1.600000023841858
    vertex 5.795555114746094 -30.35291290283203 0
  endloop
endfacet
facet normal -0.3826834261417389 -0.9238795042037964 0
  outer loop
    vertex 3 -23.60384750366211 1.600000023841858
    vertex 1.600000023841858 -23.02394866943359 0
    vertex 3 -23.60384750366211 0
  endloop
endfacet
facet normal -0.3826834261417389 -0.9238795042037964 0
  outer loop
    vertex 1.600000023841858 -23.02394866943359 0
    vertex 3 -23.60384750366211 1.600000023841858
    vertex 1.600000023841858 -23.02394866943359 1.600000023841858
  endloop
endfacet
facet normal -0.7933533191680908 -0.6087614297866821 0
  outer loop
    vertex 4.242640495300293 -24.55735778808594 1.600000023841858
    vertex 5.196152210235596 -25.79999923706055 0
    vertex 5.196152210235596 -25.79999923706055 1.600000023841858
  endloop
endfacet
facet normal -0.7933533191680908 -0.6087614297866821 0
  outer loop
    vertex 5.196152210235596 -25.79999923706055 0
    vertex 4.242640495300293 -24.55735778808594 1.600000023841858
    vertex 4.242640495300293 -24.55735778808594 0
  endloop
endfacet
facet normal -0.7933533191680908 0.6087614297866821 0
  outer loop
    vertex 5.196152210235596 -31.79999923706055 1.600000023841858
    vertex 4.242640495300293 -33.04264068603516 0
    vertex 4.242640495300293 -33.04264068603516 1.600000023841858
  endloop
endfacet
facet normal -0.7933533191680908 0.6087614297866821 0
  outer loop
    vertex 4.242640495300293 -33.04264068603516 0
    vertex 5.196152210235596 -31.79999923706055 1.600000023841858
    vertex 5.196152210235596 -31.79999923706055 0
  endloop
endfacet
facet normal -0.9914448857307434 -0.1305261850357056 0
  outer loop
    vertex 5.795555114746094 -27.24708557128906 1.600000023841858
    vertex 6 -28.79999923706055 0
    vertex 6 -28.79999923706055 1.600000023841858
  endloop
endfacet
facet normal -0.9914448857307434 -0.1305261850357056 0
  outer loop
    vertex 6 -28.79999923706055 0
    vertex 5.795555114746094 -27.24708557128906 1.600000023841858
    vertex 5.795555114746094 -27.24708557128906 0
  endloop
endfacet
facet normal -0.6087614297866821 0.7933533191680908 0
  outer loop
    vertex 3 -33.99615097045898 1.600000023841858
    vertex 4.242640495300293 -33.04264068603516 0
    vertex 3 -33.99615097045898 0
  endloop
endfacet
facet normal -0.6087614297866821 0.7933533191680908 0
  outer loop
    vertex 4.242640495300293 -33.04264068603516 0
    vertex 3 -33.99615097045898 1.600000023841858
    vertex 4.242640495300293 -33.04264068603516 1.600000023841858
  endloop
endfacet
facet normal -1 -3.62559913014117e-17 6.290993770340984e-17
  outer loop
    vertex -4.629670860850784e-16 -34.79999923706055 4.380000114440918
    vertex 8.812395125613282e-17 -57.59999847412109 0
    vertex 8.812395125613282e-17 -57.59999847412109 4.380000114440918
  endloop
endfacet
facet normal -1 -3.62559913014117e-17 6.290993770340984e-17
  outer loop
    vertex 8.812395125613282e-17 -57.59999847412109 0
    vertex -4.629670860850784e-16 -34.79999923706055 4.380000114440918
    vertex -1.014058209453073e-15 -34.79999923706055 0
  endloop
endfacet
facet normal -0.1305261850357056 0.9914448857307434 9.710636343048903e-18
  outer loop
    vertex -4.629670860850784e-16 -34.79999923706055 4.380000114440918
    vertex 1.552914261817932 -34.59555435180664 0
    vertex -1.014058209453073e-15 -34.79999923706055 0
  endloop
endfacet
facet normal -0.1305261850357056 0.9914448857307434 9.710636343048903e-18
  outer loop
    vertex 1.552914261817932 -34.59555435180664 0
    vertex -4.629670860850784e-16 -34.79999923706055 4.380000114440918
    vertex 1.552914261817932 -34.59555435180664 4.380000114440918
  endloop
endfacet
facet normal -0.6087614297866821 -0.7933533191680908 0
  outer loop
    vertex 4.242640495300293 -24.55735778808594 1.600000023841858
    vertex 3 -23.60384750366211 0
    vertex 4.242640495300293 -24.55735778808594 0
  endloop
endfacet
facet normal -0.6087614297866821 -0.7933533191680908 0
  outer loop
    vertex 3 -23.60384750366211 0
    vertex 4.242640495300293 -24.55735778808594 1.600000023841858
    vertex 3 -23.60384750366211 1.600000023841858
  endloop
endfacet
facet normal -0.1305261850357056 -0.9914448857307434 -1.903650093877233e-18
  outer loop
    vertex 1.552914261817932 -23.00444412231445 4.380000114440918
    vertex 4.555180136491281e-16 -22.79999923706055 0
    vertex 1.552914261817932 -23.00444412231445 0
  endloop
endfacet
facet normal -0.1305261850357056 -0.9914448857307434 -1.903650093877233e-18
  outer loop
    vertex 4.555180136491281e-16 -22.79999923706055 0
    vertex 1.552914261817932 -23.00444412231445 4.380000114440918
    vertex 2.718209725264631e-16 -22.79999923706055 4.380000114440918
  endloop
endfacet
facet normal 0.6741559505462646 0.7385890483856201 0
  outer loop
    vertex 89.59999847412109 -7.105427357601002e-15 1.600000023841858
    vertex 100.0999984741211 -9.583999633789063 0
    vertex 89.59999847412109 -7.105427357601002e-15 0
  endloop
endfacet
facet normal 0.6741559505462646 0.7385890483856201 0
  outer loop
    vertex 100.0999984741211 -9.583999633789063 0
    vertex 89.59999847412109 -7.105427357601002e-15 1.600000023841858
    vertex 100.0999984741211 -9.583999633789063 1.600000023841858
  endloop
endfacet
facet normal -0.9238795042037964 -0.3826834261417389 0
  outer loop
    vertex 5.196152210235596 -25.79999923706055 1.600000023841858
    vertex 5.795555114746094 -27.24708557128906 0
    vertex 5.795555114746094 -27.24708557128906 1.600000023841858
  endloop
endfacet
facet normal -0.9238795042037964 -0.3826834261417389 0
  outer loop
    vertex 5.795555114746094 -27.24708557128906 0
    vertex 5.196152210235596 -25.79999923706055 1.600000023841858
    vertex 5.196152210235596 -25.79999923706055 0
  endloop
endfacet
facet normal -0.3826834261417389 -0.9238795042037964 -6.404511405396331e-16
  outer loop
    vertex 1.600000023841858 -23.02394866943359 1.600000023841858
    vertex 1.552914261817932 -23.00444412231445 0
    vertex 1.600000023841858 -23.02394866943359 0
  endloop
endfacet
facet normal -0.3826834261417389 -0.9238795042037964 -6.404511405396331e-16
  outer loop
    vertex 1.552914261817932 -23.00444412231445 0
    vertex 1.600000023841858 -23.02394866943359 1.600000023841858
    vertex 1.552914261817932 -23.00444412231445 4.380000114440918
  endloop
endfacet
facet normal -0.3826834261417389 -0.9238795042037964 -6.404511405396331e-16
  outer loop
    vertex 1.552914261817932 -23.00444412231445 4.380000114440918
    vertex 1.600000023841858 -23.02394866943359 1.600000023841858
    vertex 1.600000023841858 -23.02394866943359 4.380000114440918
  endloop
endfacet
facet normal -0.3826834261417389 0.9238795042037964 0
  outer loop
    vertex 1.600000023841858 -34.5760498046875 1.600000023841858
    vertex 3 -33.99615097045898 0
    vertex 1.600000023841858 -34.5760498046875 0
  endloop
endfacet
facet normal -0.3826834261417389 0.9238795042037964 0
  outer loop
    vertex 3 -33.99615097045898 0
    vertex 1.600000023841858 -34.5760498046875 1.600000023841858
    vertex 3 -33.99615097045898 1.600000023841858
  endloop
endfacet
facet normal -0.3826834261417389 0.9238795042037964 0
  outer loop
    vertex 1.552914261817932 -34.59555435180664 4.380000114440918
    vertex 1.600000023841858 -34.5760498046875 0
    vertex 1.552914261817932 -34.59555435180664 0
  endloop
endfacet
facet normal -0.3826834261417389 0.9238795042037964 0
  outer loop
    vertex 1.600000023841858 -34.5760498046875 0
    vertex 1.552914261817932 -34.59555435180664 4.380000114440918
    vertex 1.600000023841858 -34.5760498046875 1.600000023841858
  endloop
endfacet
facet normal -0.3826834261417389 0.9238795042037964 0
  outer loop
    vertex 1.600000023841858 -34.5760498046875 1.600000023841858
    vertex 1.552914261817932 -34.59555435180664 4.380000114440918
    vertex 1.600000023841858 -34.5760498046875 4.380000114440918
  endloop
endfacet
facet normal 0 0 1
  outer loop
    vertex 97.26300048828125 -26.37289237976074 1.600000023841858
    vertex 97 -23.79999351501465 1.600000023841858
    vertex 97 -26.23879241943359 1.600000023841858
  endloop
endfacet
facet normal 0 0 1
  outer loop
    vertex 89.59999847412109 -57.59999847412109 1.600000023841858
    vertex 92.5 -28.79999351501465 1.600000023841858
    vertex 89.59999847412109 -7.105427357601002e-15 1.600000023841858
  endloop
endfacet
facet normal 0 0 1
  outer loop
    vertex 92.5 -28.79999351501465 1.600000023841858
    vertex 89.59999847412109 -57.59999847412109 1.600000023841858
    vertex 92.64679718017578 -29.72709274291992 1.600000023841858
  endloop
endfacet
facet normal 0 0 1
  outer loop
    vertex 92.64679718017578 -29.72709274291992 1.600000023841858
    vertex 89.59999847412109 -57.59999847412109 1.600000023841858
    vertex 94.2864990234375 -34.68169403076172 1.600000023841858
  endloop
endfacet
facet normal 0 0 1
  outer loop
    vertex 94.2864990234375 -34.68169403076172 1.600000023841858
    vertex 89.59999847412109 -57.59999847412109 1.600000023841858
    vertex 100.0999984741211 -48.01598739624023 1.600000023841858
  endloop
endfacet
facet normal 0 0 1
  outer loop
    vertex 92.64679718017578 -29.72709274291992 1.600000023841858
    vertex 94.2864990234375 -34.68169403076172 1.600000023841858
    vertex 94 -33.79999542236328 1.600000023841858
  endloop
endfacet
facet normal 0 0 1
  outer loop
    vertex 92.64679718017578 -29.72709274291992 1.600000023841858
    vertex 94 -33.79999542236328 1.600000023841858
    vertex 93.07289886474609 -30.56339263916016 1.600000023841858
  endloop
endfacet
facet normal 0 0 1
  outer loop
    vertex 93.07289886474609 -30.56339263916016 1.600000023841858
    vertex 94 -33.79999542236328 1.600000023841858
    vertex 93.73660278320313 -31.22709274291992 1.600000023841858
  endloop
endfacet
facet normal 0 0 1
  outer loop
    vertex 94.2864990234375 -34.68169403076172 1.600000023841858
    vertex 100.0999984741211 -48.01598739624023 1.600000023841858
    vertex 95.0364990234375 -35.22659301757813 1.600000023841858
  endloop
endfacet
facet normal 0 0 1
  outer loop
    vertex 95.0364990234375 -35.22659301757813 1.600000023841858
    vertex 100.0999984741211 -48.01598739624023 1.600000023841858
    vertex 95.9635009765625 -35.22659301757813 1.600000023841858
  endloop
endfacet
facet normal 0 0 1
  outer loop
    vertex 95.9635009765625 -35.22659301757813 1.600000023841858
    vertex 100.0999984741211 -48.01598739624023 1.600000023841858
    vertex 96.71399688720703 -34.68169403076172 1.600000023841858
  endloop
endfacet
facet normal 0 0 1
  outer loop
    vertex 96.71399688720703 -34.68169403076172 1.600000023841858
    vertex 100.0999984741211 -48.01598739624023 1.600000023841858
    vertex 97 -33.79999542236328 1.600000023841858
  endloop
endfacet
facet normal 0 0 1
  outer loop
    vertex 97 -33.79999542236328 1.600000023841858
    vertex 100.0999984741211 -48.01598739624023 1.600000023841858
    vertex 97 -31.36119270324707 1.600000023841858
  endloop
endfacet
facet normal 0 0 1
  outer loop
    vertex 97 -31.36119270324707 1.600000023841858
    vertex 100.0999984741211 -48.01598739624023 1.600000023841858
    vertex 97.26300048828125 -31.22709274291992 1.600000023841858
  endloop
endfacet
facet normal 0 0 1
  outer loop
    vertex 97.26300048828125 -31.22709274291992 1.600000023841858
    vertex 100.0999984741211 -48.01598739624023 1.600000023841858
    vertex 97.927001953125 -30.56339263916016 1.600000023841858
  endloop
endfacet
facet normal 0 0 1
  outer loop
    vertex 97.927001953125 -30.56339263916016 1.600000023841858
    vertex 100.0999984741211 -48.01598739624023 1.600000023841858
    vertex 98.35299682617188 -29.72709274291992 1.600000023841858
  endloop
endfacet
facet normal 0 0 1
  outer loop
    vertex 98.35299682617188 -29.72709274291992 1.600000023841858
    vertex 100.0999984741211 -48.01598739624023 1.600000023841858
    vertex 98.5 -28.79999351501465 1.600000023841858
  endloop
endfacet
facet normal 0 0 1
  outer loop
    vertex 89.59999847412109 -7.105427357601002e-15 1.600000023841858
    vertex 94.2864990234375 -22.91829109191895 1.600000023841858
    vertex 100.0999984741211 -9.583999633789063 1.600000023841858
  endloop
endfacet
facet normal 0 0 1
  outer loop
    vertex 94.2864990234375 -22.91829109191895 1.600000023841858
    vertex 89.59999847412109 -7.105427357601002e-15 1.600000023841858
    vertex 92.64679718017578 -27.87289237976074 1.600000023841858
  endloop
endfacet
facet normal 0 0 1
  outer loop
    vertex 92.64679718017578 -27.87289237976074 1.600000023841858
    vertex 89.59999847412109 -7.105427357601002e-15 1.600000023841858
    vertex 92.5 -28.79999351501465 1.600000023841858
  endloop
endfacet
facet normal 0 0 1
  outer loop
    vertex 94.2864990234375 -22.91829109191895 1.600000023841858
    vertex 92.64679718017578 -27.87289237976074 1.600000023841858
    vertex 94 -23.79999351501465 1.600000023841858
  endloop
endfacet
facet normal 0 0 1
  outer loop
    vertex 94 -23.79999351501465 1.600000023841858
    vertex 92.64679718017578 -27.87289237976074 1.600000023841858
    vertex 93.07289886474609 -27.03659248352051 1.600000023841858
  endloop
endfacet
facet normal 0 0 1
  outer loop
    vertex 94 -23.79999351501465 1.600000023841858
    vertex 93.07289886474609 -27.03659248352051 1.600000023841858
    vertex 93.73660278320313 -26.37289237976074 1.600000023841858
  endloop
endfacet
facet normal 0 0 1
  outer loop
    vertex 94 -23.79999351501465 1.600000023841858
    vertex 93.73660278320313 -26.37289237976074 1.600000023841858
    vertex 94 -26.23879241943359 1.600000023841858
  endloop
endfacet
facet normal 0 0 1
  outer loop
    vertex 100.0999984741211 -9.583999633789063 1.600000023841858
    vertex 94.2864990234375 -22.91829109191895 1.600000023841858
    vertex 95.0364990234375 -22.37339210510254 1.600000023841858
  endloop
endfacet
facet normal 0 0 1
  outer loop
    vertex 100.0999984741211 -9.583999633789063 1.600000023841858
    vertex 95.0364990234375 -22.37339210510254 1.600000023841858
    vertex 95.9635009765625 -22.37339210510254 1.600000023841858
  endloop
endfacet
facet normal 0 0 1
  outer loop
    vertex 100.0999984741211 -9.583999633789063 1.600000023841858
    vertex 95.9635009765625 -22.37339210510254 1.600000023841858
    vertex 96.71399688720703 -22.91829109191895 1.600000023841858
  endloop
endfacet
facet normal 0 0 1
  outer loop
    vertex 100.0999984741211 -9.583999633789063 1.600000023841858
    vertex 96.71399688720703 -22.91829109191895 1.600000023841858
    vertex 97 -23.79999351501465 1.600000023841858
  endloop
endfacet
facet normal 0 0 1
  outer loop
    vertex 100.0999984741211 -9.583999633789063 1.600000023841858
    vertex 97 -23.79999351501465 1.600000023841858
    vertex 97.26300048828125 -26.37289237976074 1.600000023841858
  endloop
endfacet
facet normal 0 0 1
  outer loop
    vertex 100.0999984741211 -9.583999633789063 1.600000023841858
    vertex 97.26300048828125 -26.37289237976074 1.600000023841858
    vertex 97.927001953125 -27.03659248352051 1.600000023841858
  endloop
endfacet
facet normal 0 0 1
  outer loop
    vertex 100.0999984741211 -9.583999633789063 1.600000023841858
    vertex 97.927001953125 -27.03659248352051 1.600000023841858
    vertex 98.35299682617188 -27.87289237976074 1.600000023841858
  endloop
endfacet
facet normal 0 0 1
  outer loop
    vertex 100.0999984741211 -9.583999633789063 1.600000023841858
    vertex 98.35299682617188 -27.87289237976074 1.600000023841858
    vertex 98.5 -28.79999351501465 1.600000023841858
  endloop
endfacet
facet normal 0 0 1
  outer loop
    vertex 100.0999984741211 -9.583999633789063 1.600000023841858
    vertex 98.5 -28.79999351501465 1.600000023841858
    vertex 100.0999984741211 -48.01598739624023 1.600000023841858
  endloop
endfacet
facet normal 0 0 1
  outer loop
    vertex 94 -31.36119270324707 1.600000023841858
    vertex 93.73660278320313 -31.22709274291992 1.600000023841858
    vertex 94 -33.79999542236328 1.600000023841858
  endloop
endfacet
facet normal 1 0 0
  outer loop
    vertex 1.600000023841858 -21.01499938964844 1.600000023841858
    vertex 1.600000023841858 -23.02394866943359 4.380000114440918
    vertex 1.600000023841858 -23.02394866943359 1.600000023841858
  endloop
endfacet
facet normal 1 0 0
  outer loop
    vertex 1.600000023841858 -23.02394866943359 4.380000114440918
    vertex 1.600000023841858 -21.01499938964844 1.600000023841858
    vertex 1.600000023841858 -1.599998474121094 4.380000114440918
  endloop
endfacet
facet normal 1 0 0
  outer loop
    vertex 1.600000023841858 -1.599998474121094 4.380000114440918
    vertex 1.600000023841858 -21.01499938964844 1.600000023841858
    vertex 1.600000023841858 -1.599998474121094 1.600000023841858
  endloop
endfacet
facet normal 0 -1 0
  outer loop
    vertex 88.09999847412109 -1.599998474121094 4.380000114440918
    vertex 1.600000023841858 -1.599998474121094 1.600000023841858
    vertex 88.09999847412109 -1.599998474121094 1.600000023841858
  endloop
endfacet
facet normal 0 -1 0
  outer loop
    vertex 1.600000023841858 -1.599998474121094 1.600000023841858
    vertex 88.09999847412109 -1.599998474121094 4.380000114440918
    vertex 1.600000023841858 -1.599998474121094 4.380000114440918
  endloop
endfacet
facet normal 0 -1 0
  outer loop
    vertex 1.600000023841858 -1.599998474121094 4.380000114440918
    vertex 88.09999847412109 -1.599998474121094 4.380000114440918
    vertex 74.84336090087891 -1.599998474121094 4.380000114440918
  endloop
endfacet
facet normal 0 -1 0
  outer loop
    vertex 1.600000023841858 -1.599998474121094 4.380000114440918
    vertex 74.84336090087891 -1.599998474121094 4.380000114440918
    vertex 16.04335784912109 -1.599998474121094 4.380000114440918
  endloop
endfacet
facet normal 0 1 0
  outer loop
    vertex 1.600000023841858 -56 4.380000114440918
    vertex 88.09999847412109 -56 1.600000023841858
    vertex 1.600000023841858 -56 1.600000023841858
  endloop
endfacet
facet normal 0 1 0
  outer loop
    vertex 88.09999847412109 -56 1.600000023841858
    vertex 1.600000023841858 -56 4.380000114440918
    vertex 88.09999847412109 -56 4.380000114440918
  endloop
endfacet
facet normal 0 1 0
  outer loop
    vertex 88.09999847412109 -56 4.380000114440918
    vertex 1.600000023841858 -56 4.380000114440918
    vertex 16.04335784912109 -56 4.380000114440918
  endloop
endfacet
facet normal 0 1 0
  outer loop
    vertex 88.09999847412109 -56 4.380000114440918
    vertex 16.04335784912109 -56 4.380000114440918
    vertex 74.84336090087891 -56 4.380000114440918
  endloop
endfacet
facet normal 1 0 0
  outer loop
    vertex 1.600000023841858 -34.5760498046875 1.600000023841858
    vertex 1.600000023841858 -56 4.380000114440918
    vertex 1.600000023841858 -56 1.600000023841858
  endloop
endfacet
facet normal 1 0 0
  outer loop
    vertex 1.600000023841858 -56 4.380000114440918
    vertex 1.600000023841858 -34.5760498046875 1.600000023841858
    vertex 1.600000023841858 -34.5760498046875 4.380000114440918
  endloop
endfacet
facet normal 1 0 0
  outer loop
    vertex 89.59999847412109 -7.105427357601002e-15 1.600000023841858
    vertex 89.59999847412109 -57.59999847412109 4.380000114440918
    vertex 89.59999847412109 -57.59999847412109 1.600000023841858
  endloop
endfacet
facet normal 1 0 0
  outer loop
    vertex 89.59999847412109 -57.59999847412109 4.380000114440918
    vertex 89.59999847412109 -7.105427357601002e-15 1.600000023841858
    vertex 89.59999847412109 -7.105427357601002e-15 4.380000114440918
  endloop
endfacet
facet normal -1 0 0
  outer loop
    vertex 88.09999847412109 -1.599998474121094 4.380000114440918
    vertex 88.09999847412109 -56 1.600000023841858
    vertex 88.09999847412109 -56 4.380000114440918
  endloop
endfacet
facet normal -1 0 0
  outer loop
    vertex 88.09999847412109 -56 1.600000023841858
    vertex 88.09999847412109 -1.599998474121094 4.380000114440918
    vertex 88.09999847412109 -1.599998474121094 1.600000023841858
  endloop
endfacet
endsolid E227
