solid FEF7
facet normal -0.9512084126472473 -0.3085491955280304 0
  outer loop
    vertex 96.71399688720703 -92.91828918457031 1.600000023841858
    vertex 97 -93.79999542236328 0
    vertex 97 -93.79999542236328 1.600000023841858
  endloop
endfacet
facet normal -0.9512084126472473 -0.3085491955280304 0
  outer loop
    vertex 97 -93.79999542236328 0
    vertex 96.71399688720703 -92.91828918457031 1.600000023841858
    vertex 96.71399688720703 -92.91828918457031 0
  endloop
endfacet
facet normal 0.4537014067173004 -0.8911537528038025 0
  outer loop
    vertex 94 -96.23879241943359 1.600000023841858
    vertex 93.73660278320313 -96.37289428710938 0
    vertex 94 -96.23879241943359 0
  endloop
endfacet
facet normal 0.4537014067173004 -0.8911537528038025 0
  outer loop
    vertex 93.73660278320313 -96.37289428710938 0
    vertex 94 -96.23879241943359 1.600000023841858
    vertex 93.73660278320313 -96.37289428710938 1.600000023841858
  endloop
endfacet
facet normal 0.5877796411514282 -0.8090210556983948 0
  outer loop
    vertex 95.0364990234375 -92.37339019775391 1.600000023841858
    vertex 94.2864990234375 -92.91828918457031 0
    vertex 95.0364990234375 -92.37339019775391 0
  endloop
endfacet
facet normal 0.5877796411514282 -0.8090210556983948 0
  outer loop
    vertex 94.2864990234375 -92.91828918457031 0
    vertex 95.0364990234375 -92.37339019775391 1.600000023841858
    vertex 94.2864990234375 -92.91828918457031 1.600000023841858
  endloop
endfacet
facet normal -0.4542446732521057 -0.8908769488334656 0
  outer loop
    vertex 97.26300048828125 -96.37289428710938 1.600000023841858
    vertex 97 -96.23879241943359 0
    vertex 97.26300048828125 -96.37289428710938 0
  endloop
endfacet
facet normal -0.4542446732521057 -0.8908769488334656 0
  outer loop
    vertex 97 -96.23879241943359 0
    vertex 97.26300048828125 -96.37289428710938 1.600000023841858
    vertex 97 -96.23879241943359 1.600000023841858
  endloop
endfacet
facet normal 0.951050877571106 0.3090343475341797 0
  outer loop
    vertex 94 -103.7999954223633 0
    vertex 94.2864990234375 -104.6816940307617 1.600000023841858
    vertex 94.2864990234375 -104.6816940307617 0
  endloop
endfacet
facet normal 0.951050877571106 0.3090343475341797 0
  outer loop
    vertex 94.2864990234375 -104.6816940307617 1.600000023841858
    vertex 94 -103.7999954223633 0
    vertex 94 -103.7999954223633 1.600000023841858
  endloop
endfacet
facet normal -0.5875253677368164 -0.8092057704925537 0
  outer loop
    vertex 96.71399688720703 -92.91828918457031 1.600000023841858
    vertex 95.9635009765625 -92.37339019775391 0
    vertex 96.71399688720703 -92.91828918457031 0
  endloop
endfacet
facet normal -0.5875253677368164 -0.8092057704925537 0
  outer loop
    vertex 95.9635009765625 -92.37339019775391 0
    vertex 96.71399688720703 -92.91828918457031 1.600000023841858
    vertex 95.9635009765625 -92.37339019775391 1.600000023841858
  endloop
endfacet
facet normal 0.9510512948036194 -0.3090331256389618 0
  outer loop
    vertex 94.2864990234375 -92.91828918457031 0
    vertex 94 -93.79999542236328 1.600000023841858
    vertex 94 -93.79999542236328 0
  endloop
endfacet
facet normal 0.9510512948036194 -0.3090331256389618 0
  outer loop
    vertex 94 -93.79999542236328 1.600000023841858
    vertex 94.2864990234375 -92.91828918457031 0
    vertex 94.2864990234375 -92.91828918457031 1.600000023841858
  endloop
endfacet
facet normal 1 0 0
  outer loop
    vertex 94 -93.79999542236328 0
    vertex 94 -96.23879241943359 1.600000023841858
    vertex 94 -96.23879241943359 0
  endloop
endfacet
facet normal 1 0 0
  outer loop
    vertex 94 -96.23879241943359 1.600000023841858
    vertex 94 -93.79999542236328 0
    vertex 94 -93.79999542236328 1.600000023841858
  endloop
endfacet
facet normal -1 0 0
  outer loop
    vertex 97 -101.3611907958984 1.600000023841858
    vertex 97 -103.7999954223633 0
    vertex 97 -103.7999954223633 1.600000023841858
  endloop
endfacet
facet normal -1 0 0
  outer loop
    vertex 97 -103.7999954223633 0
    vertex 97 -101.3611907958984 1.600000023841858
    vertex 97 -101.3611907958984 0
  endloop
endfacet
facet normal 0.7071047425270081 0.7071087956428528 0
  outer loop
    vertex 93.07289886474609 -100.5633926391602 1.600000023841858
    vertex 93.73660278320313 -101.2270965576172 0
    vertex 93.07289886474609 -100.5633926391602 0
  endloop
endfacet
facet normal 0.7071047425270081 0.7071087956428528 0
  outer loop
    vertex 93.73660278320313 -101.2270965576172 0
    vertex 93.07289886474609 -100.5633926391602 1.600000023841858
    vertex 93.73660278320313 -101.2270965576172 1.600000023841858
  endloop
endfacet
facet normal 0.4537014067173004 0.8911537528038025 0
  outer loop
    vertex 93.73660278320313 -101.2270965576172 1.600000023841858
    vertex 94 -101.3611907958984 0
    vertex 93.73660278320313 -101.2270965576172 0
  endloop
endfacet
facet normal 0.4537014067173004 0.8911537528038025 0
  outer loop
    vertex 94 -101.3611907958984 0
    vertex 93.73660278320313 -101.2270965576172 1.600000023841858
    vertex 94 -101.3611907958984 1.600000023841858
  endloop
endfacet
facet normal 0 1 0
  outer loop
    vertex 95.0364990234375 -105.2265930175781 1.600000023841858
    vertex 95.9635009765625 -105.2265930175781 0
    vertex 95.0364990234375 -105.2265930175781 0
  endloop
endfacet
facet normal 0 1 0
  outer loop
    vertex 95.9635009765625 -105.2265930175781 0
    vertex 95.0364990234375 -105.2265930175781 1.600000023841858
    vertex 95.9635009765625 -105.2265930175781 1.600000023841858
  endloop
endfacet
facet normal -0.7069462537765503 -0.7072672843933105 0
  outer loop
    vertex 97.927001953125 -97.03659057617188 1.600000023841858
    vertex 97.26300048828125 -96.37289428710938 0
    vertex 97.927001953125 -97.03659057617188 0
  endloop
endfacet
facet normal -0.7069462537765503 -0.7072672843933105 0
  outer loop
    vertex 97.26300048828125 -96.37289428710938 0
    vertex 97.927001953125 -97.03659057617188 1.600000023841858
    vertex 97.26300048828125 -96.37289428710938 1.600000023841858
  endloop
endfacet
facet normal 0.8910127282142639 -0.4539783298969269 -2.314843230738568e-19
  outer loop
    vertex 93.07289886474609 -97.03659057617188 0
    vertex 92.64679718017578 -97.87289428710938 1.600000023841858
    vertex 92.64679718017578 -97.87289428710938 1.762479025122656e-16
  endloop
endfacet
facet normal 0.8910127282142639 -0.4539783298969269 -2.314843230738568e-19
  outer loop
    vertex 92.64679718017578 -97.87289428710938 1.600000023841858
    vertex 93.07289886474609 -97.03659057617188 0
    vertex 93.07289886474609 -97.03659057617188 1.600000023841858
  endloop
endfacet
facet normal 0.7071047425270081 -0.7071087956428528 0
  outer loop
    vertex 93.73660278320313 -96.37289428710938 1.600000023841858
    vertex 93.07289886474609 -97.03659057617188 0
    vertex 93.73660278320313 -96.37289428710938 0
  endloop
endfacet
facet normal 0.7071047425270081 -0.7071087956428528 0
  outer loop
    vertex 93.07289886474609 -97.03659057617188 0
    vertex 93.73660278320313 -96.37289428710938 1.600000023841858
    vertex 93.07289886474609 -97.03659057617188 1.600000023841858
  endloop
endfacet
facet normal 0 -1 0
  outer loop
    vertex 95.9635009765625 -92.37339019775391 1.600000023841858
    vertex 95.0364990234375 -92.37339019775391 0
    vertex 95.9635009765625 -92.37339019775391 0
  endloop
endfacet
facet normal 0 -1 0
  outer loop
    vertex 95.0364990234375 -92.37339019775391 0
    vertex 95.9635009765625 -92.37339019775391 1.600000023841858
    vertex 95.0364990234375 -92.37339019775391 1.600000023841858
  endloop
endfacet
facet normal -0.7069462537765503 0.7072672843933105 0
  outer loop
    vertex 97.26300048828125 -101.2270965576172 1.600000023841858
    vertex 97.927001953125 -100.5633926391602 0
    vertex 97.26300048828125 -101.2270965576172 0
  endloop
endfacet
facet normal -0.7069462537765503 0.7072672843933105 0
  outer loop
    vertex 97.927001953125 -100.5633926391602 0
    vertex 97.26300048828125 -101.2270965576172 1.600000023841858
    vertex 97.927001953125 -100.5633926391602 1.600000023841858
  endloop
endfacet
facet normal -0.4542446732521057 0.8908769488334656 0
  outer loop
    vertex 97 -101.3611907958984 1.600000023841858
    vertex 97.26300048828125 -101.2270965576172 0
    vertex 97 -101.3611907958984 0
  endloop
endfacet
facet normal -0.4542446732521057 0.8908769488334656 0
  outer loop
    vertex 97.26300048828125 -101.2270965576172 0
    vertex 97 -101.3611907958984 1.600000023841858
    vertex 97.26300048828125 -101.2270965576172 1.600000023841858
  endloop
endfacet
facet normal -0.8910587430000305 -0.4538879692554474 0
  outer loop
    vertex 97.927001953125 -97.03659057617188 1.600000023841858
    vertex 98.35299682617188 -97.87289428710938 0
    vertex 98.35299682617188 -97.87289428710938 1.600000023841858
  endloop
endfacet
facet normal -0.8910587430000305 -0.4538879692554474 0
  outer loop
    vertex 98.35299682617188 -97.87289428710938 0
    vertex 97.927001953125 -97.03659057617188 1.600000023841858
    vertex 97.927001953125 -97.03659057617188 0
  endloop
endfacet
facet normal 0.9876950979232788 0.1563919484615326 -2.473654256928084e-18
  outer loop
    vertex 92.5 -98.79999542236328 1.762479025122656e-16
    vertex 92.64679718017578 -99.72709655761719 1.600000023841858
    vertex 92.64679718017578 -99.72709655761719 3.524958050245313e-16
  endloop
endfacet
facet normal 0.9876950979232788 0.1563919484615326 -2.473654256928084e-18
  outer loop
    vertex 92.64679718017578 -99.72709655761719 1.600000023841858
    vertex 92.5 -98.79999542236328 1.762479025122656e-16
    vertex 92.5 -98.79999542236328 1.600000023841858
  endloop
endfacet
facet normal -0.9876611828804016 -0.1566057056188583 0
  outer loop
    vertex 98.35299682617188 -97.87289428710938 1.600000023841858
    vertex 98.5 -98.79999542236328 0
    vertex 98.5 -98.79999542236328 1.600000023841858
  endloop
endfacet
facet normal -0.9876611828804016 -0.1566057056188583 0
  outer loop
    vertex 98.5 -98.79999542236328 0
    vertex 98.35299682617188 -97.87289428710938 1.600000023841858
    vertex 98.35299682617188 -97.87289428710938 0
  endloop
endfacet
facet normal 0.8910127282142639 0.4539783298969269 -4.629686461477137e-19
  outer loop
    vertex 92.64679718017578 -99.72709655761719 3.524958050245313e-16
    vertex 93.07289886474609 -100.5633926391602 1.600000023841858
    vertex 93.07289886474609 -100.5633926391602 0
  endloop
endfacet
facet normal 0.8910127282142639 0.4539783298969269 -4.629686461477137e-19
  outer loop
    vertex 93.07289886474609 -100.5633926391602 1.600000023841858
    vertex 92.64679718017578 -99.72709655761719 3.524958050245313e-16
    vertex 92.64679718017578 -99.72709655761719 1.600000023841858
  endloop
endfacet
facet normal -1 0 0
  outer loop
    vertex 97 -93.79999542236328 1.600000023841858
    vertex 97 -96.23879241943359 0
    vertex 97 -96.23879241943359 1.600000023841858
  endloop
endfacet
facet normal -1 0 0
  outer loop
    vertex 97 -96.23879241943359 0
    vertex 97 -93.79999542236328 1.600000023841858
    vertex 97 -93.79999542236328 0
  endloop
endfacet
facet normal 1 0 0
  outer loop
    vertex 94 -101.3611907958984 0
    vertex 94 -103.7999954223633 1.600000023841858
    vertex 94 -103.7999954223633 0
  endloop
endfacet
facet normal 1 0 0
  outer loop
    vertex 94 -103.7999954223633 1.600000023841858
    vertex 94 -101.3611907958984 0
    vertex 94 -101.3611907958984 1.600000023841858
  endloop
endfacet
facet normal -0.9512079954147339 0.3085503876209259 0
  outer loop
    vertex 97 -103.7999954223633 1.600000023841858
    vertex 96.71399688720703 -104.6816940307617 0
    vertex 96.71399688720703 -104.6816940307617 1.600000023841858
  endloop
endfacet
facet normal -0.9512079954147339 0.3085503876209259 0
  outer loop
    vertex 96.71399688720703 -104.6816940307617 0
    vertex 97 -103.7999954223633 1.600000023841858
    vertex 97 -103.7999954223633 0
  endloop
endfacet
facet normal -0.8910587430000305 0.4538879692554474 0
  outer loop
    vertex 98.35299682617188 -99.72709655761719 1.600000023841858
    vertex 97.927001953125 -100.5633926391602 0
    vertex 97.927001953125 -100.5633926391602 1.600000023841858
  endloop
endfacet
facet normal -0.8910587430000305 0.4538879692554474 0
  outer loop
    vertex 97.927001953125 -100.5633926391602 0
    vertex 98.35299682617188 -99.72709655761719 1.600000023841858
    vertex 98.35299682617188 -99.72709655761719 0
  endloop
endfacet
facet normal 0.5877810120582581 0.8090201020240784 0
  outer loop
    vertex 94.2864990234375 -104.6816940307617 1.600000023841858
    vertex 95.0364990234375 -105.2265930175781 0
    vertex 94.2864990234375 -104.6816940307617 0
  endloop
endfacet
facet normal 0.5877810120582581 0.8090201020240784 0
  outer loop
    vertex 95.0364990234375 -105.2265930175781 0
    vertex 94.2864990234375 -104.6816940307617 1.600000023841858
    vertex 95.0364990234375 -105.2265930175781 1.600000023841858
  endloop
endfacet
facet normal -0.9876611232757568 0.1566060185432434 0
  outer loop
    vertex 98.5 -98.79999542236328 1.600000023841858
    vertex 98.35299682617188 -99.72709655761719 0
    vertex 98.35299682617188 -99.72709655761719 1.600000023841858
  endloop
endfacet
facet normal -0.9876611232757568 0.1566060185432434 0
  outer loop
    vertex 98.35299682617188 -99.72709655761719 0
    vertex 98.5 -98.79999542236328 1.600000023841858
    vertex 98.5 -98.79999542236328 0
  endloop
endfacet
facet normal -0.5875267386436462 0.8092047572135925 0
  outer loop
    vertex 95.9635009765625 -105.2265930175781 1.600000023841858
    vertex 96.71399688720703 -104.6816940307617 0
    vertex 95.9635009765625 -105.2265930175781 0
  endloop
endfacet
facet normal -0.5875267386436462 0.8092047572135925 0
  outer loop
    vertex 96.71399688720703 -104.6816940307617 0
    vertex 95.9635009765625 -105.2265930175781 1.600000023841858
    vertex 96.71399688720703 -104.6816940307617 1.600000023841858
  endloop
endfacet
facet normal 0.9876950979232788 -0.1563916355371475 -7.670273201686127e-31
  outer loop
    vertex 92.64679718017578 -97.87289428710938 1.762479025122656e-16
    vertex 92.5 -98.79999542236328 1.600000023841858
    vertex 92.5 -98.79999542236328 1.762479025122656e-16
  endloop
endfacet
facet normal 0.9876950979232788 -0.1563916355371475 -7.670273201686127e-31
  outer loop
    vertex 92.5 -98.79999542236328 1.600000023841858
    vertex 92.64679718017578 -97.87289428710938 1.762479025122656e-16
    vertex 92.64679718017578 -97.87289428710938 1.600000023841858
  endloop
endfacet
facet normal -0 -1 -0
  outer loop
    vertex 22.60000038146973 -74.79999542236328 1.600000023841858
    vertex 9.600000381469727 -74.79999542236328 -8.459899108830514e-15
    vertex 22.60000038146973 -74.79999542236328 -8.459899108830514e-15
  endloop
endfacet
facet normal -0 -1 -0
  outer loop
    vertex 9.600000381469727 -74.79999542236328 -8.459899108830514e-15
    vertex 22.60000038146973 -74.79999542236328 1.600000023841858
    vertex 9.600000381469727 -74.79999542236328 1.600000023841858
  endloop
endfacet
facet normal 0 1 0
  outer loop
    vertex 9.600000381469727 -122.7999954223633 1.600000023841858
    vertex 22.60000038146973 -122.7999954223633 -8.459899108830514e-15
    vertex 9.600000381469727 -122.7999954223633 -8.459899108830514e-15
  endloop
endfacet
facet normal 0 1 0
  outer loop
    vertex 22.60000038146973 -122.7999954223633 -8.459899108830514e-15
    vertex 9.600000381469727 -122.7999954223633 1.600000023841858
    vertex 22.60000038146973 -122.7999954223633 1.600000023841858
  endloop
endfacet
facet normal 1 6.40901457665107e-17 0
  outer loop
    vertex 9.600000381469727 -74.79999542236328 -8.459899108830514e-15
    vertex 9.600000381469727 -122.7999954223633 1.600000023841858
    vertex 9.600000381469727 -122.7999954223633 -8.459899108830514e-15
  endloop
endfacet
facet normal 1 6.40901457665107e-17 0
  outer loop
    vertex 9.600000381469727 -122.7999954223633 1.600000023841858
    vertex 9.600000381469727 -74.79999542236328 -8.459899108830514e-15
    vertex 9.600000381469727 -74.79999542236328 1.600000023841858
  endloop
endfacet
facet normal -1 0 0
  outer loop
    vertex 22.60000038146973 -74.79999542236328 1.600000023841858
    vertex 22.60000038146973 -122.7999954223633 -8.459899108830514e-15
    vertex 22.60000038146973 -122.7999954223633 1.600000023841858
  endloop
endfacet
facet normal -1 0 0
  outer loop
    vertex 22.60000038146973 -122.7999954223633 -8.459899108830514e-15
    vertex 22.60000038146973 -74.79999542236328 1.600000023841858
    vertex 22.60000038146973 -74.79999542236328 -8.459899108830514e-15
  endloop
endfacet
facet normal 0 -1 0
  outer loop
    vertex 73.443359375 -73 4.679999828338623
    vertex 17.443359375 -73 3.080000162124634
    vertex 73.443359375 -73 3.080000162124634
  endloop
endfacet
facet normal 0 -1 0
  outer loop
    vertex 17.443359375 -73 3.080000162124634
    vertex 73.443359375 -73 4.679999828338623
    vertex 17.443359375 -73 4.679999828338623
  endloop
endfacet
facet normal 0.7071067690849304 -0.7071067690849304 9.685975938319104e-17
  outer loop
    vertex 74.84336090087891 -71.59999847412109 3.080000162124634
    vertex 73.443359375 -73 4.679999828338623
    vertex 73.443359375 -73 3.080000162124634
  endloop
endfacet
facet normal 0.7071067690849304 -0.7071067690849304 9.685975938319104e-17
  outer loop
    vertex 73.443359375 -73 4.679999828338623
    vertex 74.84336090087891 -71.59999847412109 3.080000162124634
    vertex 76.443359375 -70 4.679999828338623
  endloop
endfacet
facet normal 0.7071067690849304 -0.7071067690849304 9.685975938319104e-17
  outer loop
    vertex 76.443359375 -70 4.679999828338623
    vertex 74.84336090087891 -71.59999847412109 3.080000162124634
    vertex 76.443359375 -70 3.080000162124634
  endloop
endfacet
facet normal 0 0 1
  outer loop
    vertex 17.443359375 -73 4.679999828338623
    vertex 76.443359375 -70 4.679999828338623
    vertex 14.44335842132568 -70 4.679999828338623
  endloop
endfacet
facet normal 0 0 1
  outer loop
    vertex 76.443359375 -70 4.679999828338623
    vertex 17.443359375 -73 4.679999828338623
    vertex 73.443359375 -73 4.679999828338623
  endloop
endfacet
facet normal -0.7071067690849304 -0.7071067690849304 1.729960397956159e-15
  outer loop
    vertex 17.443359375 -73 4.679999828338623
    vertex 16.04335784912109 -71.59999847412109 3.080000162124634
    vertex 17.443359375 -73 3.080000162124634
  endloop
endfacet
facet normal -0.7071067690849304 -0.7071067690849304 1.729960397956159e-15
  outer loop
    vertex 16.04335784912109 -71.59999847412109 3.080000162124634
    vertex 17.443359375 -73 4.679999828338623
    vertex 14.44335842132568 -70 3.080000162124634
  endloop
endfacet
facet normal -0.7071067690849304 -0.7071067690849304 1.729960397956159e-15
  outer loop
    vertex 14.44335842132568 -70 3.080000162124634
    vertex 17.443359375 -73 4.679999828338623
    vertex 14.44335842132568 -70 4.679999828338623
  endloop
endfacet
facet normal 0 0 1
  outer loop
    vertex 76.443359375 -127.5999984741211 4.679999828338623
    vertex 17.443359375 -124.5999984741211 4.679999828338623
    vertex 14.44335842132568 -127.5999984741211 4.679999828338623
  endloop
endfacet
facet normal 0 0 1
  outer loop
    vertex 17.443359375 -124.5999984741211 4.679999828338623
    vertex 76.443359375 -127.5999984741211 4.679999828338623
    vertex 73.443359375 -124.5999984741211 4.679999828338623
  endloop
endfacet
facet normal -0.7071067690849304 0.7071067690849304 -8.176765852474792e-16
  outer loop
    vertex 14.44335842132568 -127.5999984741211 4.679999828338623
    vertex 16.04335784912109 -126 3.080000162124634
    vertex 14.44335842132568 -127.5999984741211 3.080000162124634
  endloop
endfacet
facet normal -0.7071067690849304 0.7071067690849304 -8.176765852474792e-16
  outer loop
    vertex 16.04335784912109 -126 3.080000162124634
    vertex 14.44335842132568 -127.5999984741211 4.679999828338623
    vertex 17.443359375 -124.5999984741211 3.080000162124634
  endloop
endfacet
facet normal -0.7071067690849304 0.7071067690849304 -8.176765852474792e-16
  outer loop
    vertex 17.443359375 -124.5999984741211 3.080000162124634
    vertex 14.44335842132568 -127.5999984741211 4.679999828338623
    vertex 17.443359375 -124.5999984741211 4.679999828338623
  endloop
endfacet
facet normal 0.7071067690849304 0.7071067690849304 0
  outer loop
    vertex 74.84336090087891 -126 3.080000162124634
    vertex 76.443359375 -127.5999984741211 4.679999828338623
    vertex 76.443359375 -127.5999984741211 3.080000162124634
  endloop
endfacet
facet normal 0.7071067690849304 0.7071067690849304 0
  outer loop
    vertex 76.443359375 -127.5999984741211 4.679999828338623
    vertex 74.84336090087891 -126 3.080000162124634
    vertex 73.443359375 -124.5999984741211 4.679999828338623
  endloop
endfacet
facet normal 0.7071067690849304 0.7071067690849304 0
  outer loop
    vertex 73.443359375 -124.5999984741211 4.679999828338623
    vertex 74.84336090087891 -126 3.080000162124634
    vertex 73.443359375 -124.5999984741211 3.080000162124634
  endloop
endfacet
facet normal 0 1 0
  outer loop
    vertex 17.443359375 -124.5999984741211 4.679999828338623
    vertex 73.443359375 -124.5999984741211 3.080000162124634
    vertex 17.443359375 -124.5999984741211 3.080000162124634
  endloop
endfacet
facet normal 0 1 0
  outer loop
    vertex 73.443359375 -124.5999984741211 3.080000162124634
    vertex 17.443359375 -124.5999984741211 4.679999828338623
    vertex 73.443359375 -124.5999984741211 4.679999828338623
  endloop
endfacet
facet normal 0 1 0
  outer loop
    vertex 35 -112.0999984741211 1.899999976158142
    vertex 64.09999847412109 -112.0999984741211 1.600000023841858
    vertex 35 -112.0999984741211 1.600000023841858
  endloop
endfacet
facet normal 0 1 0
  outer loop
    vertex 64.09999847412109 -112.0999984741211 1.600000023841858
    vertex 35 -112.0999984741211 1.899999976158142
    vertex 64.09999847412109 -112.0999984741211 1.899999976158142
  endloop
endfacet
facet normal -1 0 0
  outer loop
    vertex 79.09999847412109 -78 1.600000023841858
    vertex 79.09999847412109 -81.19999694824219 0
    vertex 79.09999847412109 -81.19999694824219 1.600000023841858
  endloop
endfacet
facet normal -1 0 0
  outer loop
    vertex 79.09999847412109 -81.19999694824219 0
    vertex 79.09999847412109 -78 1.600000023841858
    vertex 79.09999847412109 -78 0
  endloop
endfacet
facet normal 9.334992616501014e-17 -1.768229452392227e-16 1
  outer loop
    vertex 76.443359375 -127.5999984741211 3.080000162124634
    vertex 88.09999847412109 -126 3.080000162124634
    vertex 74.84336090087891 -126 3.080000162124634
  endloop
endfacet
facet normal 9.334992616501014e-17 -1.768229452392227e-16 1
  outer loop
    vertex 88.09999847412109 -126 3.080000162124634
    vertex 76.443359375 -127.5999984741211 3.080000162124634
    vertex 89.59999847412109 -127.5999984741211 3.080000162124634
  endloop
endfacet
facet normal 9.334992616501014e-17 -1.768229452392227e-16 1
  outer loop
    vertex 88.09999847412109 -126 3.080000162124634
    vertex 89.59999847412109 -127.5999984741211 3.080000162124634
    vertex 88.09999847412109 -71.59999847412109 3.080000162124634
  endloop
endfacet
facet normal 9.334992616501014e-17 -1.768229452392227e-16 1
  outer loop
    vertex 88.09999847412109 -71.59999847412109 3.080000162124634
    vertex 76.443359375 -70 3.080000162124634
    vertex 74.84336090087891 -71.59999847412109 3.080000162124634
  endloop
endfacet
facet normal 9.334992616501014e-17 -1.768229452392227e-16 1
  outer loop
    vertex 76.443359375 -70 3.080000162124634
    vertex 88.09999847412109 -71.59999847412109 3.080000162124634
    vertex 89.59999847412109 -70 3.080000162124634
  endloop
endfacet
facet normal 9.334992616501014e-17 -1.768229452392227e-16 1
  outer loop
    vertex 89.59999847412109 -70 3.080000162124634
    vertex 88.09999847412109 -71.59999847412109 3.080000162124634
    vertex 89.59999847412109 -127.5999984741211 3.080000162124634
  endloop
endfacet
facet normal 1 -1.762479157471554e-15 0
  outer loop
    vertex 30 -116.4000015258789 0
    vertex 30 -119.5999984741211 1.600000023841858
    vertex 30 -119.5999984741211 0
  endloop
endfacet
facet normal 1 -1.762479157471554e-15 0
  outer loop
    vertex 30 -119.5999984741211 1.600000023841858
    vertex 30 -116.4000015258789 0
    vertex 30 -116.4000015258789 1.600000023841858
  endloop
endfacet
facet normal 1 -1.762480745658331e-15 0
  outer loop
    vertex 30 -78 0
    vertex 30 -81.19999694824219 1.600000023841858
    vertex 30 -81.19999694824219 0
  endloop
endfacet
facet normal 1 -1.762480745658331e-15 0
  outer loop
    vertex 30 -81.19999694824219 1.600000023841858
    vertex 30 -78 0
    vertex 30 -78 1.600000023841858
  endloop
endfacet
facet normal 0 0 -1
  outer loop
    vertex 97.26300048828125 -101.2270965576172 0
    vertex 97 -103.7999954223633 0
    vertex 97 -101.3611907958984 0
  endloop
endfacet
facet normal 0 0 -1
  outer loop
    vertex 1.552914261817932 -104.5955505371094 0
    vertex 8.812395125613282e-17 -127.5999984741211 0
    vertex -1.014058209453073e-15 -104.8000030517578 0
  endloop
endfacet
facet normal 0 0 -1
  outer loop
    vertex 8.812395125613282e-17 -127.5999984741211 0
    vertex 1.552914261817932 -104.5955505371094 0
    vertex 9.600000381469727 -122.7999954223633 -8.459899108830514e-15
  endloop
endfacet
facet normal 0 0 -1
  outer loop
    vertex 8.812395125613282e-17 -127.5999984741211 0
    vertex 9.600000381469727 -122.7999954223633 -8.459899108830514e-15
    vertex 89.59999847412109 -127.5999984741211 0
  endloop
endfacet
facet normal 0 0 -1
  outer loop
    vertex 9.600000381469727 -122.7999954223633 -8.459899108830514e-15
    vertex 1.552914261817932 -104.5955505371094 0
    vertex 1.600000023841858 -104.5760498046875 0
  endloop
endfacet
facet normal 0 0 -1
  outer loop
    vertex 9.600000381469727 -122.7999954223633 -8.459899108830514e-15
    vertex 1.600000023841858 -104.5760498046875 0
    vertex 3 -103.9961547851563 0
  endloop
endfacet
facet normal 0 0 -1
  outer loop
    vertex 9.600000381469727 -122.7999954223633 -8.459899108830514e-15
    vertex 3 -103.9961547851563 0
    vertex 4.242640495300293 -103.0426406860352 0
  endloop
endfacet
facet normal 0 0 -1
  outer loop
    vertex 9.600000381469727 -122.7999954223633 -8.459899108830514e-15
    vertex 4.242640495300293 -103.0426406860352 0
    vertex 5.196152210235596 -101.8000030517578 0
  endloop
endfacet
facet normal 0 0 -1
  outer loop
    vertex 9.600000381469727 -122.7999954223633 -8.459899108830514e-15
    vertex 5.196152210235596 -101.8000030517578 0
    vertex 5.795555114746094 -100.352912902832 0
  endloop
endfacet
facet normal 0 0 -1
  outer loop
    vertex 9.600000381469727 -122.7999954223633 -8.459899108830514e-15
    vertex 5.795555114746094 -100.352912902832 0
    vertex 6 -98.80000305175781 0
  endloop
endfacet
facet normal 0 0 -1
  outer loop
    vertex 9.600000381469727 -122.7999954223633 -8.459899108830514e-15
    vertex 6 -98.80000305175781 0
    vertex 9.600000381469727 -74.79999542236328 -8.459899108830514e-15
  endloop
endfacet
facet normal 0 0 -1
  outer loop
    vertex 89.59999847412109 -127.5999984741211 0
    vertex 9.600000381469727 -122.7999954223633 -8.459899108830514e-15
    vertex 22.60000038146973 -122.7999954223633 -8.459899108830514e-15
  endloop
endfacet
facet normal 0 0 -1
  outer loop
    vertex 89.59999847412109 -127.5999984741211 0
    vertex 22.60000038146973 -122.7999954223633 -8.459899108830514e-15
    vertex 30 -119.5999984741211 0
  endloop
endfacet
facet normal 0 0 -1
  outer loop
    vertex 30 -119.5999984741211 0
    vertex 22.60000038146973 -122.7999954223633 -8.459899108830514e-15
    vertex 30 -81.19999694824219 0
  endloop
endfacet
facet normal 0 0 -1
  outer loop
    vertex 89.59999847412109 -127.5999984741211 0
    vertex 30 -119.5999984741211 0
    vertex 79.09999847412109 -119.5999984741211 0
  endloop
endfacet
facet normal 0 0 -1
  outer loop
    vertex 89.59999847412109 -127.5999984741211 0
    vertex 79.09999847412109 -119.5999984741211 0
    vertex 89.59999847412109 -70 0
  endloop
endfacet
facet normal 0 0 -1
  outer loop
    vertex 89.59999847412109 -127.5999984741211 0
    vertex 89.59999847412109 -70 0
    vertex 92.5 -98.79999542236328 1.762479025122656e-16
  endloop
endfacet
facet normal 0 0 -1
  outer loop
    vertex 92.5 -98.79999542236328 1.762479025122656e-16
    vertex 89.59999847412109 -70 0
    vertex 92.64679718017578 -97.87289428710938 1.762479025122656e-16
  endloop
endfacet
facet normal 0 0 -1
  outer loop
    vertex 92.64679718017578 -97.87289428710938 1.762479025122656e-16
    vertex 89.59999847412109 -70 0
    vertex 94.2864990234375 -92.91828918457031 0
  endloop
endfacet
facet normal 0 0 -1
  outer loop
    vertex 94.2864990234375 -92.91828918457031 0
    vertex 89.59999847412109 -70 0
    vertex 100.0999984741211 -79.58399963378906 0
  endloop
endfacet
facet normal 0 0 -1
  outer loop
    vertex 92.64679718017578 -97.87289428710938 1.762479025122656e-16
    vertex 94.2864990234375 -92.91828918457031 0
    vertex 94 -93.79999542236328 0
  endloop
endfacet
facet normal 0 0 -1
  outer loop
    vertex 92.64679718017578 -97.87289428710938 1.762479025122656e-16
    vertex 94 -93.79999542236328 0
    vertex 93.07289886474609 -97.03659057617188 0
  endloop
endfacet
facet normal 0 0 -1
  outer loop
    vertex 93.07289886474609 -97.03659057617188 0
    vertex 94 -93.79999542236328 0
    vertex 93.73660278320313 -96.37289428710938 0
  endloop
endfacet
facet normal 0 0 -1
  outer loop
    vertex 94.2864990234375 -92.91828918457031 0
    vertex 100.0999984741211 -79.58399963378906 0
    vertex 95.0364990234375 -92.37339019775391 0
  endloop
endfacet
facet normal 0 0 -1
  outer loop
    vertex 95.0364990234375 -92.37339019775391 0
    vertex 100.0999984741211 -79.58399963378906 0
    vertex 95.9635009765625 -92.37339019775391 0
  endloop
endfacet
facet normal 0 0 -1
  outer loop
    vertex 95.9635009765625 -92.37339019775391 0
    vertex 100.0999984741211 -79.58399963378906 0
    vertex 96.71399688720703 -92.91828918457031 0
  endloop
endfacet
facet normal 0 0 -1
  outer loop
    vertex 96.71399688720703 -92.91828918457031 0
    vertex 100.0999984741211 -79.58399963378906 0
    vertex 97 -93.79999542236328 0
  endloop
endfacet
facet normal 0 0 -1
  outer loop
    vertex 97 -93.79999542236328 0
    vertex 100.0999984741211 -79.58399963378906 0
    vertex 97 -96.23879241943359 0
  endloop
endfacet
facet normal 0 0 -1
  outer loop
    vertex 97 -96.23879241943359 0
    vertex 100.0999984741211 -79.58399963378906 0
    vertex 97.26300048828125 -96.37289428710938 0
  endloop
endfacet
facet normal 0 0 -1
  outer loop
    vertex 97.26300048828125 -96.37289428710938 0
    vertex 100.0999984741211 -79.58399963378906 0
    vertex 97.927001953125 -97.03659057617188 0
  endloop
endfacet
facet normal 0 0 -1
  outer loop
    vertex 97.927001953125 -97.03659057617188 0
    vertex 100.0999984741211 -79.58399963378906 0
    vertex 98.35299682617188 -97.87289428710938 0
  endloop
endfacet
facet normal 0 0 -1
  outer loop
    vertex 98.35299682617188 -97.87289428710938 0
    vertex 100.0999984741211 -79.58399963378906 0
    vertex 98.5 -98.79999542236328 0
  endloop
endfacet
facet normal 0 0 -1
  outer loop
    vertex 89.59999847412109 -127.5999984741211 0
    vertex 94.2864990234375 -104.6816940307617 0
    vertex 100.0999984741211 -118.0159912109375 0
  endloop
endfacet
facet normal 0 0 -1
  outer loop
    vertex 94.2864990234375 -104.6816940307617 0
    vertex 89.59999847412109 -127.5999984741211 0
    vertex 92.64679718017578 -99.72709655761719 3.524958050245313e-16
  endloop
endfacet
facet normal 0 0 -1
  outer loop
    vertex 92.64679718017578 -99.72709655761719 3.524958050245313e-16
    vertex 89.59999847412109 -127.5999984741211 0
    vertex 92.5 -98.79999542236328 1.762479025122656e-16
  endloop
endfacet
facet normal 0 0 -1
  outer loop
    vertex 94.2864990234375 -104.6816940307617 0
    vertex 92.64679718017578 -99.72709655761719 3.524958050245313e-16
    vertex 94 -103.7999954223633 0
  endloop
endfacet
facet normal 0 0 -1
  outer loop
    vertex 94 -103.7999954223633 0
    vertex 92.64679718017578 -99.72709655761719 3.524958050245313e-16
    vertex 93.07289886474609 -100.5633926391602 0
  endloop
endfacet
facet normal 0 0 -1
  outer loop
    vertex 94 -103.7999954223633 0
    vertex 93.07289886474609 -100.5633926391602 0
    vertex 93.73660278320313 -101.2270965576172 0
  endloop
endfacet
facet normal 0 0 -1
  outer loop
    vertex 94 -103.7999954223633 0
    vertex 93.73660278320313 -101.2270965576172 0
    vertex 94 -101.3611907958984 0
  endloop
endfacet
facet normal 0 0 -1
  outer loop
    vertex 100.0999984741211 -118.0159912109375 0
    vertex 94.2864990234375 -104.6816940307617 0
    vertex 95.0364990234375 -105.2265930175781 0
  endloop
endfacet
facet normal 0 0 -1
  outer loop
    vertex 100.0999984741211 -118.0159912109375 0
    vertex 95.0364990234375 -105.2265930175781 0
    vertex 95.9635009765625 -105.2265930175781 0
  endloop
endfacet
facet normal 0 0 -1
  outer loop
    vertex 100.0999984741211 -118.0159912109375 0
    vertex 95.9635009765625 -105.2265930175781 0
    vertex 96.71399688720703 -104.6816940307617 0
  endloop
endfacet
facet normal 0 0 -1
  outer loop
    vertex 100.0999984741211 -118.0159912109375 0
    vertex 96.71399688720703 -104.6816940307617 0
    vertex 97 -103.7999954223633 0
  endloop
endfacet
facet normal 0 0 -1
  outer loop
    vertex 100.0999984741211 -118.0159912109375 0
    vertex 97 -103.7999954223633 0
    vertex 97.26300048828125 -101.2270965576172 0
  endloop
endfacet
facet normal 0 0 -1
  outer loop
    vertex 100.0999984741211 -118.0159912109375 0
    vertex 97.26300048828125 -101.2270965576172 0
    vertex 97.927001953125 -100.5633926391602 0
  endloop
endfacet
facet normal 0 0 -1
  outer loop
    vertex 100.0999984741211 -118.0159912109375 0
    vertex 97.927001953125 -100.5633926391602 0
    vertex 98.35299682617188 -99.72709655761719 0
  endloop
endfacet
facet normal 0 0 -1
  outer loop
    vertex 100.0999984741211 -118.0159912109375 0
    vertex 98.35299682617188 -99.72709655761719 0
    vertex 98.5 -98.79999542236328 0
  endloop
endfacet
facet normal 0 0 -1
  outer loop
    vertex 100.0999984741211 -118.0159912109375 0
    vertex 98.5 -98.79999542236328 0
    vertex 100.0999984741211 -79.58399963378906 0
  endloop
endfacet
facet normal 0 0 -1
  outer loop
    vertex 94 -96.23879241943359 0
    vertex 93.73660278320313 -96.37289428710938 0
    vertex 94 -93.79999542236328 0
  endloop
endfacet
facet normal 0 0 -1
  outer loop
    vertex 8.812395125613282e-17 -70 0
    vertex 9.600000381469727 -74.79999542236328 -8.459899108830514e-15
    vertex 4.555180136491281e-16 -92.80000305175781 0
  endloop
endfacet
facet normal 0 0 -1
  outer loop
    vertex 9.600000381469727 -74.79999542236328 -8.459899108830514e-15
    vertex 8.812395125613282e-17 -70 0
    vertex 89.59999847412109 -70 0
  endloop
endfacet
facet normal 0 0 -1
  outer loop
    vertex 4.555180136491281e-16 -92.80000305175781 0
    vertex 9.600000381469727 -74.79999542236328 -8.459899108830514e-15
    vertex 1.552914261817932 -93.00444793701172 0
  endloop
endfacet
facet normal 0 0 -1
  outer loop
    vertex 1.552914261817932 -93.00444793701172 0
    vertex 9.600000381469727 -74.79999542236328 -8.459899108830514e-15
    vertex 1.600000023841858 -93.02394866943359 0
  endloop
endfacet
facet normal 0 0 -1
  outer loop
    vertex 1.600000023841858 -93.02394866943359 0
    vertex 9.600000381469727 -74.79999542236328 -8.459899108830514e-15
    vertex 3 -93.60384368896484 0
  endloop
endfacet
facet normal 0 0 -1
  outer loop
    vertex 3 -93.60384368896484 0
    vertex 9.600000381469727 -74.79999542236328 -8.459899108830514e-15
    vertex 4.242640495300293 -94.55735778808594 0
  endloop
endfacet
facet normal 0 0 -1
  outer loop
    vertex 4.242640495300293 -94.55735778808594 0
    vertex 9.600000381469727 -74.79999542236328 -8.459899108830514e-15
    vertex 5.196152210235596 -95.80000305175781 0
  endloop
endfacet
facet normal 0 0 -1
  outer loop
    vertex 5.196152210235596 -95.80000305175781 0
    vertex 9.600000381469727 -74.79999542236328 -8.459899108830514e-15
    vertex 5.795555114746094 -97.24708557128906 0
  endloop
endfacet
facet normal 0 0 -1
  outer loop
    vertex 5.795555114746094 -97.24708557128906 0
    vertex 9.600000381469727 -74.79999542236328 -8.459899108830514e-15
    vertex 6 -98.80000305175781 0
  endloop
endfacet
facet normal 0 0 -1
  outer loop
    vertex 9.600000381469727 -74.79999542236328 -8.459899108830514e-15
    vertex 89.59999847412109 -70 0
    vertex 22.60000038146973 -74.79999542236328 -8.459899108830514e-15
  endloop
endfacet
facet normal 0 0 -1
  outer loop
    vertex 22.60000038146973 -74.79999542236328 -8.459899108830514e-15
    vertex 89.59999847412109 -70 0
    vertex 30 -78 0
  endloop
endfacet
facet normal 0 0 -1
  outer loop
    vertex 22.60000038146973 -74.79999542236328 -8.459899108830514e-15
    vertex 30 -78 0
    vertex 22.60000038146973 -122.7999954223633 -8.459899108830514e-15
  endloop
endfacet
facet normal 0 0 -1
  outer loop
    vertex 22.60000038146973 -122.7999954223633 -8.459899108830514e-15
    vertex 30 -78 0
    vertex 30 -81.19999694824219 0
  endloop
endfacet
facet normal 0 0 -1
  outer loop
    vertex 30 -78 0
    vertex 89.59999847412109 -70 0
    vertex 79.09999847412109 -78 0
  endloop
endfacet
facet normal 0 0 -1
  outer loop
    vertex 79.09999847412109 -78 0
    vertex 89.59999847412109 -70 0
    vertex 79.09999847412109 -81.19999694824219 0
  endloop
endfacet
facet normal 0 0 -1
  outer loop
    vertex 79.09999847412109 -81.19999694824219 0
    vertex 89.59999847412109 -70 0
    vertex 79.09999847412109 -116.4000015258789 0
  endloop
endfacet
facet normal 0 0 -1
  outer loop
    vertex 79.09999847412109 -116.4000015258789 0
    vertex 89.59999847412109 -70 0
    vertex 79.09999847412109 -119.5999984741211 0
  endloop
endfacet
facet normal 0 0 -1
  outer loop
    vertex 30 -81.19999694824219 0
    vertex 30 -116.4000015258789 0
    vertex 30 -119.5999984741211 0
  endloop
endfacet
facet normal 0 0 -1
  outer loop
    vertex 30 -116.4000015258789 0
    vertex 30 -81.19999694824219 0
    vertex 79.09999847412109 -81.19999694824219 0
  endloop
endfacet
facet normal 0 0 -1
  outer loop
    vertex 30 -116.4000015258789 0
    vertex 79.09999847412109 -81.19999694824219 0
    vertex 79.09999847412109 -116.4000015258789 0
  endloop
endfacet
facet normal -1 0 0
  outer loop
    vertex 79.09999847412109 -116.4000015258789 1.600000023841858
    vertex 79.09999847412109 -119.5999984741211 0
    vertex 79.09999847412109 -119.5999984741211 1.600000023841858
  endloop
endfacet
facet normal -1 0 0
  outer loop
    vertex 79.09999847412109 -119.5999984741211 0
    vertex 79.09999847412109 -116.4000015258789 1.600000023841858
    vertex 79.09999847412109 -116.4000015258789 0
  endloop
endfacet
facet normal 1 0 0
  outer loop
    vertex 100.0999984741211 -79.58399963378906 0
    vertex 100.0999984741211 -118.0159912109375 1.600000023841858
    vertex 100.0999984741211 -118.0159912109375 0
  endloop
endfacet
facet normal 1 0 0
  outer loop
    vertex 100.0999984741211 -118.0159912109375 1.600000023841858
    vertex 100.0999984741211 -79.58399963378906 0
    vertex 100.0999984741211 -79.58399963378906 1.600000023841858
  endloop
endfacet
facet normal 0 1 0
  outer loop
    vertex 30 -119.5999984741211 1.600000023841858
    vertex 79.09999847412109 -119.5999984741211 0
    vertex 30 -119.5999984741211 0
  endloop
endfacet
facet normal 0 1 0
  outer loop
    vertex 79.09999847412109 -119.5999984741211 0
    vertex 30 -119.5999984741211 1.600000023841858
    vertex 79.09999847412109 -119.5999984741211 1.600000023841858
  endloop
endfacet
facet normal 0 -1 0
  outer loop
    vertex 79.09999847412109 -78 1.600000023841858
    vertex 30 -78 0
    vertex 79.09999847412109 -78 0
  endloop
endfacet
facet normal 0 -1 0
  outer loop
    vertex 30 -78 0
    vertex 79.09999847412109 -78 1.600000023841858
    vertex 30 -78 1.600000023841858
  endloop
endfacet
facet normal 0 1 0
  outer loop
    vertex 30 -81.19999694824219 1.600000023841858
    vertex 79.09999847412109 -81.19999694824219 0
    vertex 30 -81.19999694824219 0
  endloop
endfacet
facet normal 0 1 0
  outer loop
    vertex 79.09999847412109 -81.19999694824219 0
    vertex 30 -81.19999694824219 1.600000023841858
    vertex 79.09999847412109 -81.19999694824219 1.600000023841858
  endloop
endfacet
facet normal 0 -1 0
  outer loop
    vertex 79.09999847412109 -116.4000015258789 1.600000023841858
    vertex 30 -116.4000015258789 0
    vertex 79.09999847412109 -116.4000015258789 0
  endloop
endfacet
facet normal 0 -1 0
  outer loop
    vertex 30 -116.4000015258789 0
    vertex 79.09999847412109 -116.4000015258789 1.600000023841858
    vertex 30 -116.4000015258789 1.600000023841858
  endloop
endfacet
facet normal 1 0 0
  outer loop
    vertex 64.09999847412109 -87.69999694824219 1.600000023841858
    vertex 64.09999847412109 -88.19999694824219 1.899999976158142
    vertex 64.09999847412109 -88.19999694824219 1.600000023841858
  endloop
endfacet
facet normal 1 0 0
  outer loop
    vertex 64.09999847412109 -88.19999694824219 1.899999976158142
    vertex 64.09999847412109 -87.69999694824219 1.600000023841858
    vertex 64.09999847412109 -87.69999694824219 1.899999976158142
  endloop
endfacet
facet normal -1 0 0
  outer loop
    vertex 35 -112.0999984741211 1.899999976158142
    vertex 35 -112.5999984741211 1.600000023841858
    vertex 35 -112.5999984741211 1.899999976158142
  endloop
endfacet
facet normal -1 0 0
  outer loop
    vertex 35 -112.5999984741211 1.600000023841858
    vertex 35 -112.0999984741211 1.899999976158142
    vertex 35 -112.0999984741211 1.600000023841858
  endloop
endfacet
facet normal 0 0 1
  outer loop
    vertex 64.09999847412109 -112.5999984741211 1.899999976158142
    vertex 35 -112.0999984741211 1.899999976158142
    vertex 35 -112.5999984741211 1.899999976158142
  endloop
endfacet
facet normal 0 0 1
  outer loop
    vertex 35 -112.0999984741211 1.899999976158142
    vertex 64.09999847412109 -112.5999984741211 1.899999976158142
    vertex 64.09999847412109 -112.0999984741211 1.899999976158142
  endloop
endfacet
facet normal 0 -1 0
  outer loop
    vertex 64.09999847412109 -112.5999984741211 1.899999976158142
    vertex 35 -112.5999984741211 1.600000023841858
    vertex 64.09999847412109 -112.5999984741211 1.600000023841858
  endloop
endfacet
facet normal 0 -1 0
  outer loop
    vertex 35 -112.5999984741211 1.600000023841858
    vertex 64.09999847412109 -112.5999984741211 1.899999976158142
    vertex 35 -112.5999984741211 1.899999976158142
  endloop
endfacet
facet normal 0 1 0
  outer loop
    vertex 35 -87.69999694824219 1.899999976158142
    vertex 64.09999847412109 -87.69999694824219 1.600000023841858
    vertex 35 -87.69999694824219 1.600000023841858
  endloop
endfacet
facet normal 0 1 0
  outer loop
    vertex 64.09999847412109 -87.69999694824219 1.600000023841858
    vertex 35 -87.69999694824219 1.899999976158142
    vertex 64.09999847412109 -87.69999694824219 1.899999976158142
  endloop
endfacet
facet normal 0 -1 0
  outer loop
    vertex 64.09999847412109 -88.19999694824219 1.899999976158142
    vertex 35 -88.19999694824219 1.600000023841858
    vertex 64.09999847412109 -88.19999694824219 1.600000023841858
  endloop
endfacet
facet normal 0 -1 0
  outer loop
    vertex 35 -88.19999694824219 1.600000023841858
    vertex 64.09999847412109 -88.19999694824219 1.899999976158142
    vertex 35 -88.19999694824219 1.899999976158142
  endloop
endfacet
facet normal 1 0 0
  outer loop
    vertex 64.09999847412109 -112.0999984741211 1.600000023841858
    vertex 64.09999847412109 -112.5999984741211 1.899999976158142
    vertex 64.09999847412109 -112.5999984741211 1.600000023841858
  endloop
endfacet
facet normal 1 0 0
  outer loop
    vertex 64.09999847412109 -112.5999984741211 1.899999976158142
    vertex 64.09999847412109 -112.0999984741211 1.600000023841858
    vertex 64.09999847412109 -112.0999984741211 1.899999976158142
  endloop
endfacet
facet normal 0 0 -1
  outer loop
    vertex 17.443359375 -124.5999984741211 3.080000162124634
    vertex 74.84336090087891 -126 3.080000162124634
    vertex 16.04335784912109 -126 3.080000162124634
  endloop
endfacet
facet normal 0 0 -1
  outer loop
    vertex 74.84336090087891 -126 3.080000162124634
    vertex 17.443359375 -124.5999984741211 3.080000162124634
    vertex 73.443359375 -124.5999984741211 3.080000162124634
  endloop
endfacet
facet normal -1 0 0
  outer loop
    vertex 35 -87.69999694824219 1.899999976158142
    vertex 35 -88.19999694824219 1.600000023841858
    vertex 35 -88.19999694824219 1.899999976158142
  endloop
endfacet
facet normal -1 0 0
  outer loop
    vertex 35 -88.19999694824219 1.600000023841858
    vertex 35 -87.69999694824219 1.899999976158142
    vertex 35 -87.69999694824219 1.600000023841858
  endloop
endfacet
facet normal 0 0 -1
  outer loop
    vertex 74.84336090087891 -71.59999847412109 3.080000162124634
    vertex 17.443359375 -73 3.080000162124634
    vertex 16.04335784912109 -71.59999847412109 3.080000162124634
  endloop
endfacet
facet normal 0 0 -1
  outer loop
    vertex 17.443359375 -73 3.080000162124634
    vertex 74.84336090087891 -71.59999847412109 3.080000162124634
    vertex 73.443359375 -73 3.080000162124634
  endloop
endfacet
facet normal 0 0 1
  outer loop
    vertex 64.09999847412109 -88.19999694824219 1.899999976158142
    vertex 35 -87.69999694824219 1.899999976158142
    vertex 35 -88.19999694824219 1.899999976158142
  endloop
endfacet
facet normal 0 0 1
  outer loop
    vertex 35 -87.69999694824219 1.899999976158142
    vertex 64.09999847412109 -88.19999694824219 1.899999976158142
    vertex 64.09999847412109 -87.69999694824219 1.899999976158142
  endloop
endfacet
facet normal -3.192469452948142e-18 -1.894521138385557e-16 1
  outer loop
    vertex 8.812395125613282e-17 -70 3.080000162124634
    vertex 1.600000023841858 -71.59999847412109 3.080000162124634
    vertex 14.44335842132568 -70 3.080000162124634
  endloop
endfacet
facet normal -3.192469452948142e-18 -1.894521138385557e-16 1
  outer loop
    vertex 1.600000023841858 -71.59999847412109 3.080000162124634
    vertex 8.812395125613282e-17 -70 3.080000162124634
    vertex 2.718209725264631e-16 -92.80000305175781 3.080000162124634
  endloop
endfacet
facet normal -3.192469452948142e-18 -1.894521138385557e-16 1
  outer loop
    vertex 1.600000023841858 -71.59999847412109 3.080000162124634
    vertex 2.718209725264631e-16 -92.80000305175781 3.080000162124634
    vertex 1.552914261817932 -93.00444793701172 3.080000162124634
  endloop
endfacet
facet normal -3.192469452948142e-18 -1.894521138385557e-16 1
  outer loop
    vertex 1.600000023841858 -71.59999847412109 3.080000162124634
    vertex 1.552914261817932 -93.00444793701172 3.080000162124634
    vertex 1.600000023841858 -93.02394866943359 3.080000162124634
  endloop
endfacet
facet normal -3.192469452948142e-18 -1.894521138385557e-16 1
  outer loop
    vertex 14.44335842132568 -70 3.080000162124634
    vertex 1.600000023841858 -71.59999847412109 3.080000162124634
    vertex 16.04335784912109 -71.59999847412109 3.080000162124634
  endloop
endfacet
facet normal 4.853619556136574e-18 -1.98409751953566e-16 1
  outer loop
    vertex 1.600000023841858 -104.5760498046875 3.080000162124634
    vertex 1.552914261817932 -104.5955505371094 3.080000162124634
    vertex 1.600000023841858 -126 3.080000162124634
  endloop
endfacet
facet normal 4.853619556136574e-18 -1.98409751953566e-16 1
  outer loop
    vertex 8.812395125613282e-17 -127.5999984741211 3.080000162124634
    vertex 1.552914261817932 -104.5955505371094 3.080000162124634
    vertex -4.629670860850784e-16 -104.8000030517578 3.080000162124634
  endloop
endfacet
facet normal 4.853619556136574e-18 -1.98409751953566e-16 1
  outer loop
    vertex 1.552914261817932 -104.5955505371094 3.080000162124634
    vertex 8.812395125613282e-17 -127.5999984741211 3.080000162124634
    vertex 1 -127.5999984741211 3.080000162124634
  endloop
endfacet
facet normal 4.853619556136574e-18 -1.98409751953566e-16 1
  outer loop
    vertex 1.552914261817932 -104.5955505371094 3.080000162124634
    vertex 1 -127.5999984741211 3.080000162124634
    vertex 1.600000023841858 -126 3.080000162124634
  endloop
endfacet
facet normal 4.853619556136574e-18 -1.98409751953566e-16 1
  outer loop
    vertex 1.600000023841858 -126 3.080000162124634
    vertex 1 -127.5999984741211 3.080000162124634
    vertex 14.44335842132568 -127.5999984741211 3.080000162124634
  endloop
endfacet
facet normal 4.853619556136574e-18 -1.98409751953566e-16 1
  outer loop
    vertex 1.600000023841858 -126 3.080000162124634
    vertex 14.44335842132568 -127.5999984741211 3.080000162124634
    vertex 16.04335784912109 -126 3.080000162124634
  endloop
endfacet
facet normal 0 0 1
  outer loop
    vertex 1.600000023841858 -126 1.600000023841858
    vertex 9.600000381469727 -122.7999954223633 1.600000023841858
    vertex 1.600000023841858 -104.5760498046875 1.600000023841858
  endloop
endfacet
facet normal 0 0 1
  outer loop
    vertex 9.600000381469727 -122.7999954223633 1.600000023841858
    vertex 1.600000023841858 -126 1.600000023841858
    vertex 88.09999847412109 -126 1.600000023841858
  endloop
endfacet
facet normal 0 0 1
  outer loop
    vertex 1.600000023841858 -104.5760498046875 1.600000023841858
    vertex 9.600000381469727 -122.7999954223633 1.600000023841858
    vertex 3 -103.9961547851563 1.600000023841858
  endloop
endfacet
facet normal 0 0 1
  outer loop
    vertex 3 -103.9961547851563 1.600000023841858
    vertex 9.600000381469727 -122.7999954223633 1.600000023841858
    vertex 4.242640495300293 -103.0426406860352 1.600000023841858
  endloop
endfacet
facet normal 0 0 1
  outer loop
    vertex 4.242640495300293 -103.0426406860352 1.600000023841858
    vertex 9.600000381469727 -122.7999954223633 1.600000023841858
    vertex 5.196152210235596 -101.8000030517578 1.600000023841858
  endloop
endfacet
facet normal 0 0 1
  outer loop
    vertex 5.196152210235596 -101.8000030517578 1.600000023841858
    vertex 9.600000381469727 -122.7999954223633 1.600000023841858
    vertex 5.795555114746094 -100.352912902832 1.600000023841858
  endloop
endfacet
facet normal 0 0 1
  outer loop
    vertex 5.795555114746094 -100.352912902832 1.600000023841858
    vertex 9.600000381469727 -122.7999954223633 1.600000023841858
    vertex 6 -98.80000305175781 1.600000023841858
  endloop
endfacet
facet normal 0 0 1
  outer loop
    vertex 6 -98.80000305175781 1.600000023841858
    vertex 9.600000381469727 -122.7999954223633 1.600000023841858
    vertex 9.600000381469727 -74.79999542236328 1.600000023841858
  endloop
endfacet
facet normal 0 0 1
  outer loop
    vertex 9.600000381469727 -122.7999954223633 1.600000023841858
    vertex 88.09999847412109 -126 1.600000023841858
    vertex 22.60000038146973 -122.7999954223633 1.600000023841858
  endloop
endfacet
facet normal 0 0 1
  outer loop
    vertex 22.60000038146973 -122.7999954223633 1.600000023841858
    vertex 88.09999847412109 -126 1.600000023841858
    vertex 30 -119.5999984741211 1.600000023841858
  endloop
endfacet
facet normal 0 0 1
  outer loop
    vertex 22.60000038146973 -122.7999954223633 1.600000023841858
    vertex 30 -119.5999984741211 1.600000023841858
    vertex 22.60000038146973 -74.79999542236328 1.600000023841858
  endloop
endfacet
facet normal 0 0 1
  outer loop
    vertex 30 -119.5999984741211 1.600000023841858
    vertex 88.09999847412109 -126 1.600000023841858
    vertex 79.09999847412109 -119.5999984741211 1.600000023841858
  endloop
endfacet
facet normal 0 0 1
  outer loop
    vertex 79.09999847412109 -119.5999984741211 1.600000023841858
    vertex 88.09999847412109 -126 1.600000023841858
    vertex 79.09999847412109 -116.4000015258789 1.600000023841858
  endloop
endfacet
facet normal 0 0 1
  outer loop
    vertex 79.09999847412109 -116.4000015258789 1.600000023841858
    vertex 88.09999847412109 -126 1.600000023841858
    vertex 79.09999847412109 -81.19999694824219 1.600000023841858
  endloop
endfacet
facet normal 0 0 1
  outer loop
    vertex 79.09999847412109 -81.19999694824219 1.600000023841858
    vertex 88.09999847412109 -126 1.600000023841858
    vertex 79.09999847412109 -78 1.600000023841858
  endloop
endfacet
facet normal 0 0 1
  outer loop
    vertex 3 -93.60384368896484 1.600000023841858
    vertex 1.600000023841858 -91.01499938964844 1.600000023841858
    vertex 1.600000023841858 -93.02394866943359 1.600000023841858
  endloop
endfacet
facet normal 0 0 1
  outer loop
    vertex 1.600000023841858 -91.01499938964844 1.600000023841858
    vertex 3 -93.60384368896484 1.600000023841858
    vertex 1.600000023841858 -71.59999847412109 1.600000023841858
  endloop
endfacet
facet normal 0 0 1
  outer loop
    vertex 1.600000023841858 -71.59999847412109 1.600000023841858
    vertex 3 -93.60384368896484 1.600000023841858
    vertex 9.600000381469727 -74.79999542236328 1.600000023841858
  endloop
endfacet
facet normal 0 0 1
  outer loop
    vertex 1.600000023841858 -71.59999847412109 1.600000023841858
    vertex 9.600000381469727 -74.79999542236328 1.600000023841858
    vertex 88.09999847412109 -71.59999847412109 1.600000023841858
  endloop
endfacet
facet normal 0 0 1
  outer loop
    vertex 9.600000381469727 -74.79999542236328 1.600000023841858
    vertex 3 -93.60384368896484 1.600000023841858
    vertex 4.242640495300293 -94.55735778808594 1.600000023841858
  endloop
endfacet
facet normal 0 0 1
  outer loop
    vertex 9.600000381469727 -74.79999542236328 1.600000023841858
    vertex 4.242640495300293 -94.55735778808594 1.600000023841858
    vertex 5.196152210235596 -95.80000305175781 1.600000023841858
  endloop
endfacet
facet normal 0 0 1
  outer loop
    vertex 9.600000381469727 -74.79999542236328 1.600000023841858
    vertex 5.196152210235596 -95.80000305175781 1.600000023841858
    vertex 5.795555114746094 -97.24708557128906 1.600000023841858
  endloop
endfacet
facet normal 0 0 1
  outer loop
    vertex 9.600000381469727 -74.79999542236328 1.600000023841858
    vertex 5.795555114746094 -97.24708557128906 1.600000023841858
    vertex 6 -98.80000305175781 1.600000023841858
  endloop
endfacet
facet normal 0 0 1
  outer loop
    vertex 88.09999847412109 -71.59999847412109 1.600000023841858
    vertex 9.600000381469727 -74.79999542236328 1.600000023841858
    vertex 22.60000038146973 -74.79999542236328 1.600000023841858
  endloop
endfacet
facet normal 0 0 1
  outer loop
    vertex 88.09999847412109 -71.59999847412109 1.600000023841858
    vertex 22.60000038146973 -74.79999542236328 1.600000023841858
    vertex 30 -78 1.600000023841858
  endloop
endfacet
facet normal 0 0 1
  outer loop
    vertex 30 -78 1.600000023841858
    vertex 22.60000038146973 -74.79999542236328 1.600000023841858
    vertex 30 -81.19999694824219 1.600000023841858
  endloop
endfacet
facet normal 0 0 1
  outer loop
    vertex 30 -81.19999694824219 1.600000023841858
    vertex 22.60000038146973 -74.79999542236328 1.600000023841858
    vertex 30 -119.5999984741211 1.600000023841858
  endloop
endfacet
facet normal 0 0 1
  outer loop
    vertex 88.09999847412109 -71.59999847412109 1.600000023841858
    vertex 30 -78 1.600000023841858
    vertex 79.09999847412109 -78 1.600000023841858
  endloop
endfacet
facet normal 0 0 1
  outer loop
    vertex 88.09999847412109 -71.59999847412109 1.600000023841858
    vertex 79.09999847412109 -78 1.600000023841858
    vertex 88.09999847412109 -126 1.600000023841858
  endloop
endfacet
facet normal 0 0 1
  outer loop
    vertex 30 -116.4000015258789 1.600000023841858
    vertex 30 -81.19999694824219 1.600000023841858
    vertex 30 -119.5999984741211 1.600000023841858
  endloop
endfacet
facet normal 0 0 1
  outer loop
    vertex 30 -81.19999694824219 1.600000023841858
    vertex 30 -116.4000015258789 1.600000023841858
    vertex 79.09999847412109 -81.19999694824219 1.600000023841858
  endloop
endfacet
facet normal 0 0 1
  outer loop
    vertex 79.09999847412109 -81.19999694824219 1.600000023841858
    vertex 30 -116.4000015258789 1.600000023841858
    vertex 79.09999847412109 -116.4000015258789 1.600000023841858
  endloop
endfacet
facet normal -1 -1.20853304338039e-17 -2.982094303477787e-17
  outer loop
    vertex 8.812395125613282e-17 -70 3.080000162124634
    vertex 4.555180136491281e-16 -92.80000305175781 0
    vertex 2.718209725264631e-16 -92.80000305175781 3.080000162124634
  endloop
endfacet
facet normal -1 -1.20853304338039e-17 -2.982094303477787e-17
  outer loop
    vertex 4.555180136491281e-16 -92.80000305175781 0
    vertex 8.812395125613282e-17 -70 3.080000162124634
    vertex 8.812395125613282e-17 -70 0
  endloop
endfacet
facet normal 0 1 0
  outer loop
    vertex 14.44335842132568 -70 4.679999828338623
    vertex 76.443359375 -70 3.080000162124634
    vertex 14.44335842132568 -70 3.080000162124634
  endloop
endfacet
facet normal 0 1 0
  outer loop
    vertex 76.443359375 -70 3.080000162124634
    vertex 14.44335842132568 -70 4.679999828338623
    vertex 76.443359375 -70 4.679999828338623
  endloop
endfacet
facet normal 0 1 0
  outer loop
    vertex 8.812395125613282e-17 -70 3.080000162124634
    vertex 89.59999847412109 -70 0
    vertex 8.812395125613282e-17 -70 0
  endloop
endfacet
facet normal 0 1 0
  outer loop
    vertex 89.59999847412109 -70 0
    vertex 8.812395125613282e-17 -70 3.080000162124634
    vertex 89.59999847412109 -70 1.600000023841858
  endloop
endfacet
facet normal 0 1 0
  outer loop
    vertex 89.59999847412109 -70 1.600000023841858
    vertex 8.812395125613282e-17 -70 3.080000162124634
    vertex 89.59999847412109 -70 3.080000162124634
  endloop
endfacet
facet normal 0 1 0
  outer loop
    vertex 89.59999847412109 -70 3.080000162124634
    vertex 8.812395125613282e-17 -70 3.080000162124634
    vertex 14.44335842132568 -70 3.080000162124634
  endloop
endfacet
facet normal 0 1 0
  outer loop
    vertex 89.59999847412109 -70 3.080000162124634
    vertex 14.44335842132568 -70 3.080000162124634
    vertex 76.443359375 -70 3.080000162124634
  endloop
endfacet
facet normal 0.6741563081741333 -0.7385886907577515 0
  outer loop
    vertex 100.0999984741211 -118.0159912109375 1.600000023841858
    vertex 89.59999847412109 -127.5999984741211 0
    vertex 100.0999984741211 -118.0159912109375 0
  endloop
endfacet
facet normal 0.6741563081741333 -0.7385886907577515 0
  outer loop
    vertex 89.59999847412109 -127.5999984741211 0
    vertex 100.0999984741211 -118.0159912109375 1.600000023841858
    vertex 89.59999847412109 -127.5999984741211 1.600000023841858
  endloop
endfacet
facet normal 0 -1 0
  outer loop
    vertex 76.443359375 -127.5999984741211 4.679999828338623
    vertex 14.44335842132568 -127.5999984741211 3.080000162124634
    vertex 76.443359375 -127.5999984741211 3.080000162124634
  endloop
endfacet
facet normal 0 -1 0
  outer loop
    vertex 14.44335842132568 -127.5999984741211 3.080000162124634
    vertex 76.443359375 -127.5999984741211 4.679999828338623
    vertex 14.44335842132568 -127.5999984741211 4.679999828338623
  endloop
endfacet
facet normal 0 -1 0
  outer loop
    vertex 89.59999847412109 -127.5999984741211 1.600000023841858
    vertex 8.812395125613282e-17 -127.5999984741211 0
    vertex 89.59999847412109 -127.5999984741211 0
  endloop
endfacet
facet normal 0 -1 0
  outer loop
    vertex 8.812395125613282e-17 -127.5999984741211 0
    vertex 89.59999847412109 -127.5999984741211 1.600000023841858
    vertex 8.812395125613282e-17 -127.5999984741211 3.080000162124634
  endloop
endfacet
facet normal 0 -1 0
  outer loop
    vertex 8.812395125613282e-17 -127.5999984741211 3.080000162124634
    vertex 89.59999847412109 -127.5999984741211 1.600000023841858
    vertex 89.59999847412109 -127.5999984741211 3.080000162124634
  endloop
endfacet
facet normal 0 -1 0
  outer loop
    vertex 8.812395125613282e-17 -127.5999984741211 3.080000162124634
    vertex 89.59999847412109 -127.5999984741211 3.080000162124634
    vertex 76.443359375 -127.5999984741211 3.080000162124634
  endloop
endfacet
facet normal 0 -1 0
  outer loop
    vertex 8.812395125613282e-17 -127.5999984741211 3.080000162124634
    vertex 76.443359375 -127.5999984741211 3.080000162124634
    vertex 14.44335842132568 -127.5999984741211 3.080000162124634
  endloop
endfacet
facet normal 0 -1 0
  outer loop
    vertex 8.812395125613282e-17 -127.5999984741211 3.080000162124634
    vertex 14.44335842132568 -127.5999984741211 3.080000162124634
    vertex 1 -127.5999984741211 3.080000162124634
  endloop
endfacet
facet normal -0.9914448857307434 0.1305261850357056 0
  outer loop
    vertex 6 -98.80000305175781 1.600000023841858
    vertex 5.795555114746094 -100.352912902832 0
    vertex 5.795555114746094 -100.352912902832 1.600000023841858
  endloop
endfacet
facet normal -0.9914448857307434 0.1305261850357056 0
  outer loop
    vertex 5.795555114746094 -100.352912902832 0
    vertex 6 -98.80000305175781 1.600000023841858
    vertex 6 -98.80000305175781 0
  endloop
endfacet
facet normal -0.9238795042037964 0.3826834261417389 0
  outer loop
    vertex 5.795555114746094 -100.352912902832 1.600000023841858
    vertex 5.196152210235596 -101.8000030517578 0
    vertex 5.196152210235596 -101.8000030517578 1.600000023841858
  endloop
endfacet
facet normal -0.9238795042037964 0.3826834261417389 0
  outer loop
    vertex 5.196152210235596 -101.8000030517578 0
    vertex 5.795555114746094 -100.352912902832 1.600000023841858
    vertex 5.795555114746094 -100.352912902832 0
  endloop
endfacet
facet normal -0.3826834261417389 -0.9238795042037964 0
  outer loop
    vertex 3 -93.60384368896484 1.600000023841858
    vertex 1.600000023841858 -93.02394866943359 0
    vertex 3 -93.60384368896484 0
  endloop
endfacet
facet normal -0.3826834261417389 -0.9238795042037964 0
  outer loop
    vertex 1.600000023841858 -93.02394866943359 0
    vertex 3 -93.60384368896484 1.600000023841858
    vertex 1.600000023841858 -93.02394866943359 1.600000023841858
  endloop
endfacet
facet normal -0.7933533191680908 -0.6087614297866821 0
  outer loop
    vertex 4.242640495300293 -94.55735778808594 1.600000023841858
    vertex 5.196152210235596 -95.80000305175781 0
    vertex 5.196152210235596 -95.80000305175781 1.600000023841858
  endloop
endfacet
facet normal -0.7933533191680908 -0.6087614297866821 0
  outer loop
    vertex 5.196152210235596 -95.80000305175781 0
    vertex 4.242640495300293 -94.55735778808594 1.600000023841858
    vertex 4.242640495300293 -94.55735778808594 0
  endloop
endfacet
facet normal -0.7933533191680908 0.6087614297866821 0
  outer loop
    vertex 5.196152210235596 -101.8000030517578 1.600000023841858
    vertex 4.242640495300293 -103.0426406860352 0
    vertex 4.242640495300293 -103.0426406860352 1.600000023841858
  endloop
endfacet
facet normal -0.7933533191680908 0.6087614297866821 0
  outer loop
    vertex 4.242640495300293 -103.0426406860352 0
    vertex 5.196152210235596 -101.8000030517578 1.600000023841858
    vertex 5.196152210235596 -101.8000030517578 0
  endloop
endfacet
facet normal -0.9914448857307434 -0.1305261850357056 0
  outer loop
    vertex 5.795555114746094 -97.24708557128906 1.600000023841858
    vertex 6 -98.80000305175781 0
    vertex 6 -98.80000305175781 1.600000023841858
  endloop
endfacet
facet normal -0.9914448857307434 -0.1305261850357056 0
  outer loop
    vertex 6 -98.80000305175781 0
    vertex 5.795555114746094 -97.24708557128906 1.600000023841858
    vertex 5.795555114746094 -97.24708557128906 0
  endloop
endfacet
facet normal -0.6087614297866821 0.7933533191680908 0
  outer loop
    vertex 3 -103.9961547851563 1.600000023841858
    vertex 4.242640495300293 -103.0426406860352 0
    vertex 3 -103.9961547851563 0
  endloop
endfacet
facet normal -0.6087614297866821 0.7933533191680908 0
  outer loop
    vertex 4.242640495300293 -103.0426406860352 0
    vertex 3 -103.9961547851563 1.600000023841858
    vertex 4.242640495300293 -103.0426406860352 1.600000023841858
  endloop
endfacet
facet normal -1 -3.62559913014117e-17 8.946283241305605e-17
  outer loop
    vertex -4.629670860850784e-16 -104.8000030517578 3.080000162124634
    vertex 8.812395125613282e-17 -127.5999984741211 0
    vertex 8.812395125613282e-17 -127.5999984741211 3.080000162124634
  endloop
endfacet
facet normal -1 -3.62559913014117e-17 8.946283241305605e-17
  outer loop
    vertex 8.812395125613282e-17 -127.5999984741211 0
    vertex -4.629670860850784e-16 -104.8000030517578 3.080000162124634
    vertex -1.014058209453073e-15 -104.8000030517578 0
  endloop
endfacet
facet normal -0.1305261850357056 0.9914448857307434 1.386323025621414e-17
  outer loop
    vertex -4.629670860850784e-16 -104.8000030517578 3.080000162124634
    vertex 1.552914261817932 -104.5955505371094 0
    vertex -1.014058209453073e-15 -104.8000030517578 0
  endloop
endfacet
facet normal -0.1305261850357056 0.9914448857307434 1.386323025621414e-17
  outer loop
    vertex 1.552914261817932 -104.5955505371094 0
    vertex -4.629670860850784e-16 -104.8000030517578 3.080000162124634
    vertex 1.552914261817932 -104.5955505371094 3.080000162124634
  endloop
endfacet
facet normal -0.6087614297866821 -0.7933533191680908 0
  outer loop
    vertex 4.242640495300293 -94.55735778808594 1.600000023841858
    vertex 3 -93.60384368896484 0
    vertex 4.242640495300293 -94.55735778808594 0
  endloop
endfacet
facet normal -0.6087614297866821 -0.7933533191680908 0
  outer loop
    vertex 3 -93.60384368896484 0
    vertex 4.242640495300293 -94.55735778808594 1.600000023841858
    vertex 3 -93.60384368896484 1.600000023841858
  endloop
endfacet
facet normal -0.1305261850357056 -0.9914448857307434 -3.849762263728957e-18
  outer loop
    vertex 1.552914261817932 -93.00444793701172 3.080000162124634
    vertex 4.555180136491281e-16 -92.80000305175781 0
    vertex 1.552914261817932 -93.00444793701172 0
  endloop
endfacet
facet normal -0.1305261850357056 -0.9914448857307434 -3.849762263728957e-18
  outer loop
    vertex 4.555180136491281e-16 -92.80000305175781 0
    vertex 1.552914261817932 -93.00444793701172 3.080000162124634
    vertex 2.718209725264631e-16 -92.80000305175781 3.080000162124634
  endloop
endfacet
facet normal 0.6741559505462646 0.7385890483856201 0
  outer loop
    vertex 89.59999847412109 -70 1.600000023841858
    vertex 100.0999984741211 -79.58399963378906 0
    vertex 89.59999847412109 -70 0
  endloop
endfacet
facet normal 0.6741559505462646 0.7385890483856201 0
  outer loop
    vertex 100.0999984741211 -79.58399963378906 0
    vertex 89.59999847412109 -70 1.600000023841858
    vertex 100.0999984741211 -79.58399963378906 1.600000023841858
  endloop
endfacet
facet normal -0.9238795042037964 -0.3826834261417389 0
  outer loop
    vertex 5.196152210235596 -95.80000305175781 1.600000023841858
    vertex 5.795555114746094 -97.24708557128906 0
    vertex 5.795555114746094 -97.24708557128906 1.600000023841858
  endloop
endfacet
facet normal -0.9238795042037964 -0.3826834261417389 0
  outer loop
    vertex 5.795555114746094 -97.24708557128906 0
    vertex 5.196152210235596 -95.80000305175781 1.600000023841858
    vertex 5.196152210235596 -95.80000305175781 0
  endloop
endfacet
facet normal -0.3826834261417389 -0.9238795042037964 -1.722689574877203e-19
  outer loop
    vertex 1.600000023841858 -93.02394866943359 1.600000023841858
    vertex 1.552914261817932 -93.00444793701172 0
    vertex 1.600000023841858 -93.02394866943359 0
  endloop
endfacet
facet normal -0.3826834261417389 -0.9238795042037964 -1.722689574877203e-19
  outer loop
    vertex 1.552914261817932 -93.00444793701172 0
    vertex 1.600000023841858 -93.02394866943359 1.600000023841858
    vertex 1.552914261817932 -93.00444793701172 3.080000162124634
  endloop
endfacet
facet normal -0.3826834261417389 -0.9238795042037964 -1.722689574877203e-19
  outer loop
    vertex 1.552914261817932 -93.00444793701172 3.080000162124634
    vertex 1.600000023841858 -93.02394866943359 1.600000023841858
    vertex 1.600000023841858 -93.02394866943359 3.080000162124634
  endloop
endfacet
facet normal -0.3826834261417389 0.9238795042037964 0
  outer loop
    vertex 1.600000023841858 -104.5760498046875 1.600000023841858
    vertex 3 -103.9961547851563 0
    vertex 1.600000023841858 -104.5760498046875 0
  endloop
endfacet
facet normal -0.3826834261417389 0.9238795042037964 0
  outer loop
    vertex 3 -103.9961547851563 0
    vertex 1.600000023841858 -104.5760498046875 1.600000023841858
    vertex 3 -103.9961547851563 1.600000023841858
  endloop
endfacet
facet normal -0.3826834261417389 0.9238795042037964 -3.383854489768478e-19
  outer loop
    vertex 1.552914261817932 -104.5955505371094 3.080000162124634
    vertex 1.600000023841858 -104.5760498046875 0
    vertex 1.552914261817932 -104.5955505371094 0
  endloop
endfacet
facet normal -0.3826834261417389 0.9238795042037964 -3.383854489768478e-19
  outer loop
    vertex 1.600000023841858 -104.5760498046875 0
    vertex 1.552914261817932 -104.5955505371094 3.080000162124634
    vertex 1.600000023841858 -104.5760498046875 1.600000023841858
  endloop
endfacet
facet normal -0.3826834261417389 0.9238795042037964 -3.383854489768478e-19
  outer loop
    vertex 1.600000023841858 -104.5760498046875 1.600000023841858
    vertex 1.552914261817932 -104.5955505371094 3.080000162124634
    vertex 1.600000023841858 -104.5760498046875 3.080000162124634
  endloop
endfacet
facet normal 0 0 1
  outer loop
    vertex 97.26300048828125 -96.37289428710938 1.600000023841858
    vertex 97 -93.79999542236328 1.600000023841858
    vertex 97 -96.23879241943359 1.600000023841858
  endloop
endfacet
facet normal 0 0 1
  outer loop
    vertex 89.59999847412109 -127.5999984741211 1.600000023841858
    vertex 92.5 -98.79999542236328 1.600000023841858
    vertex 89.59999847412109 -70 1.600000023841858
  endloop
endfacet
facet normal 0 0 1
  outer loop
    vertex 92.5 -98.79999542236328 1.600000023841858
    vertex 89.59999847412109 -127.5999984741211 1.600000023841858
    vertex 92.64679718017578 -99.72709655761719 1.600000023841858
  endloop
endfacet
facet normal 0 0 1
  outer loop
    vertex 92.64679718017578 -99.72709655761719 1.600000023841858
    vertex 89.59999847412109 -127.5999984741211 1.600000023841858
    vertex 94.2864990234375 -104.6816940307617 1.600000023841858
  endloop
endfacet
facet normal 0 0 1
  outer loop
    vertex 94.2864990234375 -104.6816940307617 1.600000023841858
    vertex 89.59999847412109 -127.5999984741211 1.600000023841858
    vertex 100.0999984741211 -118.0159912109375 1.600000023841858
  endloop
endfacet
facet normal 0 0 1
  outer loop
    vertex 92.64679718017578 -99.72709655761719 1.600000023841858
    vertex 94.2864990234375 -104.6816940307617 1.600000023841858
    vertex 94 -103.7999954223633 1.600000023841858
  endloop
endfacet
facet normal 0 0 1
  outer loop
    vertex 92.64679718017578 -99.72709655761719 1.600000023841858
    vertex 94 -103.7999954223633 1.600000023841858
    vertex 93.07289886474609 -100.5633926391602 1.600000023841858
  endloop
endfacet
facet normal 0 0 1
  outer loop
    vertex 93.07289886474609 -100.5633926391602 1.600000023841858
    vertex 94 -103.7999954223633 1.600000023841858
    vertex 93.73660278320313 -101.2270965576172 1.600000023841858
  endloop
endfacet
facet normal 0 0 1
  outer loop
    vertex 94.2864990234375 -104.6816940307617 1.600000023841858
    vertex 100.0999984741211 -118.0159912109375 1.600000023841858
    vertex 95.0364990234375 -105.2265930175781 1.600000023841858
  endloop
endfacet
facet normal 0 0 1
  outer loop
    vertex 95.0364990234375 -105.2265930175781 1.600000023841858
    vertex 100.0999984741211 -118.0159912109375 1.600000023841858
    vertex 95.9635009765625 -105.2265930175781 1.600000023841858
  endloop
endfacet
facet normal 0 0 1
  outer loop
    vertex 95.9635009765625 -105.2265930175781 1.600000023841858
    vertex 100.0999984741211 -118.0159912109375 1.600000023841858
    vertex 96.71399688720703 -104.6816940307617 1.600000023841858
  endloop
endfacet
facet normal 0 0 1
  outer loop
    vertex 96.71399688720703 -104.6816940307617 1.600000023841858
    vertex 100.0999984741211 -118.0159912109375 1.600000023841858
    vertex 97 -103.7999954223633 1.600000023841858
  endloop
endfacet
facet normal 0 0 1
  outer loop
    vertex 97 -103.7999954223633 1.600000023841858
    vertex 100.0999984741211 -118.0159912109375 1.600000023841858
    vertex 97 -101.3611907958984 1.600000023841858
  endloop
endfacet
facet normal 0 0 1
  outer loop
    vertex 97 -101.3611907958984 1.600000023841858
    vertex 100.0999984741211 -118.0159912109375 1.600000023841858
    vertex 97.26300048828125 -101.2270965576172 1.600000023841858
  endloop
endfacet
facet normal 0 0 1
  outer loop
    vertex 97.26300048828125 -101.2270965576172 1.600000023841858
    vertex 100.0999984741211 -118.0159912109375 1.600000023841858
    vertex 97.927001953125 -100.5633926391602 1.600000023841858
  endloop
endfacet
facet normal 0 0 1
  outer loop
    vertex 97.927001953125 -100.5633926391602 1.600000023841858
    vertex 100.0999984741211 -118.0159912109375 1.600000023841858
    vertex 98.35299682617188 -99.72709655761719 1.600000023841858
  endloop
endfacet
facet normal 0 0 1
  outer loop
    vertex 98.35299682617188 -99.72709655761719 1.600000023841858
    vertex 100.0999984741211 -118.0159912109375 1.600000023841858
    vertex 98.5 -98.79999542236328 1.600000023841858
  endloop
endfacet
facet normal 0 0 1
  outer loop
    vertex 89.59999847412109 -70 1.600000023841858
    vertex 94.2864990234375 -92.91828918457031 1.600000023841858
    vertex 100.0999984741211 -79.58399963378906 1.600000023841858
  endloop
endfacet
facet normal 0 0 1
  outer loop
    vertex 94.2864990234375 -92.91828918457031 1.600000023841858
    vertex 89.59999847412109 -70 1.600000023841858
    vertex 92.64679718017578 -97.87289428710938 1.600000023841858
  endloop
endfacet
facet normal 0 0 1
  outer loop
    vertex 92.64679718017578 -97.87289428710938 1.600000023841858
    vertex 89.59999847412109 -70 1.600000023841858
    vertex 92.5 -98.79999542236328 1.600000023841858
  endloop
endfacet
facet normal 0 0 1
  outer loop
    vertex 94.2864990234375 -92.91828918457031 1.600000023841858
    vertex 92.64679718017578 -97.87289428710938 1.600000023841858
    vertex 94 -93.79999542236328 1.600000023841858
  endloop
endfacet
facet normal 0 0 1
  outer loop
    vertex 94 -93.79999542236328 1.600000023841858
    vertex 92.64679718017578 -97.87289428710938 1.600000023841858
    vertex 93.07289886474609 -97.03659057617188 1.600000023841858
  endloop
endfacet
facet normal 0 0 1
  outer loop
    vertex 94 -93.79999542236328 1.600000023841858
    vertex 93.07289886474609 -97.03659057617188 1.600000023841858
    vertex 93.73660278320313 -96.37289428710938 1.600000023841858
  endloop
endfacet
facet normal 0 0 1
  outer loop
    vertex 94 -93.79999542236328 1.600000023841858
    vertex 93.73660278320313 -96.37289428710938 1.600000023841858
    vertex 94 -96.23879241943359 1.600000023841858
  endloop
endfacet
facet normal 0 0 1
  outer loop
    vertex 100.0999984741211 -79.58399963378906 1.600000023841858
    vertex 94.2864990234375 -92.91828918457031 1.600000023841858
    vertex 95.0364990234375 -92.37339019775391 1.600000023841858
  endloop
endfacet
facet normal 0 0 1
  outer loop
    vertex 100.0999984741211 -79.58399963378906 1.600000023841858
    vertex 95.0364990234375 -92.37339019775391 1.600000023841858
    vertex 95.9635009765625 -92.37339019775391 1.600000023841858
  endloop
endfacet
facet normal 0 0 1
  outer loop
    vertex 100.0999984741211 -79.58399963378906 1.600000023841858
    vertex 95.9635009765625 -92.37339019775391 1.600000023841858
    vertex 96.71399688720703 -92.91828918457031 1.600000023841858
  endloop
endfacet
facet normal 0 0 1
  outer loop
    vertex 100.0999984741211 -79.58399963378906 1.600000023841858
    vertex 96.71399688720703 -92.91828918457031 1.600000023841858
    vertex 97 -93.79999542236328 1.600000023841858
  endloop
endfacet
facet normal 0 0 1
  outer loop
    vertex 100.0999984741211 -79.58399963378906 1.600000023841858
    vertex 97 -93.79999542236328 1.600000023841858
    vertex 97.26300048828125 -96.37289428710938 1.600000023841858
  endloop
endfacet
facet normal 0 0 1
  outer loop
    vertex 100.0999984741211 -79.58399963378906 1.600000023841858
    vertex 97.26300048828125 -96.37289428710938 1.600000023841858
    vertex 97.927001953125 -97.03659057617188 1.600000023841858
  endloop
endfacet
facet normal 0 0 1
  outer loop
    vertex 100.0999984741211 -79.58399963378906 1.600000023841858
    vertex 97.927001953125 -97.03659057617188 1.600000023841858
    vertex 98.35299682617188 -97.87289428710938 1.600000023841858
  endloop
endfacet
facet normal 0 0 1
  outer loop
    vertex 100.0999984741211 -79.58399963378906 1.600000023841858
    vertex 98.35299682617188 -97.87289428710938 1.600000023841858
    vertex 98.5 -98.79999542236328 1.600000023841858
  endloop
endfacet
facet normal 0 0 1
  outer loop
    vertex 100.0999984741211 -79.58399963378906 1.600000023841858
    vertex 98.5 -98.79999542236328 1.600000023841858
    vertex 100.0999984741211 -118.0159912109375 1.600000023841858
  endloop
endfacet
facet normal 0 0 1
  outer loop
    vertex 94 -101.3611907958984 1.600000023841858
    vertex 93.73660278320313 -101.2270965576172 1.600000023841858
    vertex 94 -103.7999954223633 1.600000023841858
  endloop
endfacet
facet normal 1 0 0
  outer loop
    vertex 1.600000023841858 -91.01499938964844 1.600000023841858
    vertex 1.600000023841858 -93.02394866943359 3.080000162124634
    vertex 1.600000023841858 -93.02394866943359 1.600000023841858
  endloop
endfacet
facet normal 1 0 0
  outer loop
    vertex 1.600000023841858 -93.02394866943359 3.080000162124634
    vertex 1.600000023841858 -91.01499938964844 1.600000023841858
    vertex 1.600000023841858 -71.59999847412109 3.080000162124634
  endloop
endfacet
facet normal 1 0 0
  outer loop
    vertex 1.600000023841858 -71.59999847412109 3.080000162124634
    vertex 1.600000023841858 -91.01499938964844 1.600000023841858
    vertex 1.600000023841858 -71.59999847412109 1.600000023841858
  endloop
endfacet
facet normal 0 -1 0
  outer loop
    vertex 88.09999847412109 -71.59999847412109 3.080000162124634
    vertex 1.600000023841858 -71.59999847412109 1.600000023841858
    vertex 88.09999847412109 -71.59999847412109 1.600000023841858
  endloop
endfacet
facet normal 0 -1 0
  outer loop
    vertex 1.600000023841858 -71.59999847412109 1.600000023841858
    vertex 88.09999847412109 -71.59999847412109 3.080000162124634
    vertex 1.600000023841858 -71.59999847412109 3.080000162124634
  endloop
endfacet
facet normal 0 -1 0
  outer loop
    vertex 1.600000023841858 -71.59999847412109 3.080000162124634
    vertex 88.09999847412109 -71.59999847412109 3.080000162124634
    vertex 74.84336090087891 -71.59999847412109 3.080000162124634
  endloop
endfacet
facet normal 0 -1 0
  outer loop
    vertex 1.600000023841858 -71.59999847412109 3.080000162124634
    vertex 74.84336090087891 -71.59999847412109 3.080000162124634
    vertex 16.04335784912109 -71.59999847412109 3.080000162124634
  endloop
endfacet
facet normal 0 1 0
  outer loop
    vertex 1.600000023841858 -126 3.080000162124634
    vertex 88.09999847412109 -126 1.600000023841858
    vertex 1.600000023841858 -126 1.600000023841858
  endloop
endfacet
facet normal 0 1 0
  outer loop
    vertex 88.09999847412109 -126 1.600000023841858
    vertex 1.600000023841858 -126 3.080000162124634
    vertex 88.09999847412109 -126 3.080000162124634
  endloop
endfacet
facet normal 0 1 0
  outer loop
    vertex 88.09999847412109 -126 3.080000162124634
    vertex 1.600000023841858 -126 3.080000162124634
    vertex 16.04335784912109 -126 3.080000162124634
  endloop
endfacet
facet normal 0 1 0
  outer loop
    vertex 88.09999847412109 -126 3.080000162124634
    vertex 16.04335784912109 -126 3.080000162124634
    vertex 74.84336090087891 -126 3.080000162124634
  endloop
endfacet
facet normal 1 0 0
  outer loop
    vertex 1.600000023841858 -104.5760498046875 1.600000023841858
    vertex 1.600000023841858 -126 3.080000162124634
    vertex 1.600000023841858 -126 1.600000023841858
  endloop
endfacet
facet normal 1 0 0
  outer loop
    vertex 1.600000023841858 -126 3.080000162124634
    vertex 1.600000023841858 -104.5760498046875 1.600000023841858
    vertex 1.600000023841858 -104.5760498046875 3.080000162124634
  endloop
endfacet
facet normal 1 0 0
  outer loop
    vertex 89.59999847412109 -70 1.600000023841858
    vertex 89.59999847412109 -127.5999984741211 3.080000162124634
    vertex 89.59999847412109 -127.5999984741211 1.600000023841858
  endloop
endfacet
facet normal 1 0 0
  outer loop
    vertex 89.59999847412109 -127.5999984741211 3.080000162124634
    vertex 89.59999847412109 -70 1.600000023841858
    vertex 89.59999847412109 -70 3.080000162124634
  endloop
endfacet
facet normal -1 0 0
  outer loop
    vertex 88.09999847412109 -71.59999847412109 3.080000162124634
    vertex 88.09999847412109 -126 1.600000023841858
    vertex 88.09999847412109 -126 3.080000162124634
  endloop
endfacet
facet normal -1 0 0
  outer loop
    vertex 88.09999847412109 -126 1.600000023841858
    vertex 88.09999847412109 -71.59999847412109 3.080000162124634
    vertex 88.09999847412109 -71.59999847412109 1.600000023841858
  endloop
endfacet
endsolid FEF7
